<svg width="29" height="26" viewBox="0 0 29 26" fill="none" xmlns="http://www.w3.org/2000/svg">
<path d="M23.5285 0.977783H5.4631C2.90617 0.977783 0.82373 3.06901 0.82373 5.61715V16.8465C0.82373 19.4035 2.91496 21.4859 5.4631 21.4859H11.8422L12.9406 23.3838L14.0213 25.2554C14.2146 25.5981 14.7067 25.5981 14.9088 25.2554L15.9895 23.3838L17.0879 21.4859H23.5373C26.0942 21.4859 28.1767 19.3947 28.1767 16.8465V5.62594C28.1767 3.06901 26.0854 0.977783 23.5285 0.977783Z" fill="url(#paint0_linear_552_2367)"/>
<path d="M15.761 9.2019C14.3639 9.2019 13.2305 10.3178 13.2305 11.6973C13.2305 13.0768 14.3639 14.1927 15.761 14.1927C17.1581 14.1927 18.2916 13.0768 18.2916 11.6973C18.2916 10.3178 17.1669 9.2019 15.761 9.2019ZM15.761 12.8923C15.0932 12.8923 14.5485 12.3563 14.5485 11.6973C14.5485 11.0383 15.0932 10.5023 15.761 10.5023C16.4288 10.5023 16.9736 11.0383 16.9736 11.6973C16.9736 12.3563 16.4376 12.8923 15.761 12.8923Z" fill="white"/>
<path d="M7.75631 9.20224C7.21153 9.20224 6.7019 9.41312 6.3065 9.77337V7.7085H4.90063V14.0789H6.3065V13.6307C6.7019 13.9822 7.20275 14.2019 7.75631 14.2019C9.0128 14.2019 10.0321 13.086 10.0321 11.7064C10.0321 10.3269 9.02159 9.20224 7.75631 9.20224ZM7.47513 12.9454C6.95672 12.9454 6.5086 12.6378 6.31529 12.1897C6.25378 12.0403 6.20985 11.8734 6.20985 11.6977C6.20985 11.5219 6.245 11.355 6.31529 11.2056C6.5086 10.7575 6.95672 10.4499 7.47513 10.4499C8.17807 10.4499 8.74041 11.0035 8.74041 11.6977C8.74041 12.3918 8.17807 12.9454 7.47513 12.9454Z" fill="white"/>
<path d="M22.6762 9.30759V9.70299C22.2808 9.39546 21.7888 9.21094 21.2616 9.21094C19.9699 9.21094 18.9243 10.2917 18.9243 11.6185C18.9243 12.9453 19.9699 14.026 21.2616 14.026C21.7976 14.026 22.2896 13.8415 22.6762 13.534V14.2018C22.6762 14.2018 22.5356 14.8608 21.5515 14.8608V16.0997C21.5515 16.0997 22.6147 16.2227 23.5637 15.2737C23.5637 15.2737 24.003 14.8081 24.0997 14.193V9.30759H22.6762V9.30759ZM21.5252 12.8398C20.8135 12.8398 20.2423 12.2863 20.2423 11.6097C20.2423 10.9331 20.8222 10.3796 21.5252 10.3796C22.026 10.3796 22.4653 10.6607 22.6762 11.0649C22.7641 11.2319 22.808 11.4164 22.808 11.6097C22.808 11.803 22.7553 11.9963 22.6762 12.1545C22.4653 12.5675 22.026 12.8398 21.5252 12.8398Z" fill="white"/>
<path d="M10.1904 7.58556V8.85962C10.1904 8.85962 10.8406 8.94749 10.9637 9.58013V14.0789H12.4135V9.58013V9.54498C12.3256 8.91234 11.9478 8.43786 11.9478 8.43786C11.1218 7.46254 10.1904 7.58556 10.1904 7.58556Z" fill="white"/>
<defs>
<linearGradient id="paint0_linear_552_2367" x1="14.4986" y1="25.5106" x2="14.4986" y2="0.980251" gradientUnits="userSpaceOnUse">
<stop offset="1"/>
</linearGradient>
</defs>
</svg>
