<svg width="30" height="30" viewBox="0 0 30 30" fill="none" xmlns="http://www.w3.org/2000/svg">
<path d="M21.262 6H9.11854C7.3998 6 6 7.40571 6 9.11854V16.6668C6 18.3856 7.40571 19.7854 9.11854 19.7854H13.4065L14.1448 21.0612L14.8713 22.3192C15.0013 22.5495 15.332 22.5495 15.4679 22.3192L16.1943 21.0612L16.9326 19.7854H21.2679C22.9866 19.7854 24.3864 18.3797 24.3864 16.6668V9.12445C24.3864 7.40571 22.9807 6 21.262 6Z" fill="url(#paint0_linear_514_5399)"/>
<path d="M16.0407 11.5283C15.1016 11.5283 14.3397 12.2784 14.3397 13.2057C14.3397 14.133 15.1016 14.8831 16.0407 14.8831C16.9799 14.8831 17.7418 14.133 17.7418 13.2057C17.7418 12.2784 16.9858 11.5283 16.0407 11.5283ZM16.0407 14.009C15.5919 14.009 15.2257 13.6487 15.2257 13.2057C15.2257 12.7627 15.5919 12.4025 16.0407 12.4025C16.4896 12.4025 16.8558 12.7627 16.8558 13.2057C16.8558 13.6487 16.4955 14.009 16.0407 14.009Z" fill="white"/>
<path d="M10.6601 11.5285C10.2939 11.5285 9.95134 11.6702 9.68555 11.9124V10.5244H8.74054V14.8065H9.68555V14.5053C9.95134 14.7415 10.288 14.8892 10.6601 14.8892C11.5047 14.8892 12.1898 14.1391 12.1898 13.2118C12.1898 12.2845 11.5106 11.5285 10.6601 11.5285ZM10.4711 14.0446C10.1226 14.0446 9.8214 13.8379 9.69146 13.5367C9.65012 13.4362 9.62058 13.324 9.62058 13.2059C9.62058 13.0878 9.64421 12.9755 9.69146 12.8751C9.8214 12.5739 10.1226 12.3672 10.4711 12.3672C10.9436 12.3672 11.3216 12.7393 11.3216 13.2059C11.3216 13.6725 10.9436 14.0446 10.4711 14.0446Z" fill="white"/>
<path d="M20.6891 11.5993V11.8651C20.4233 11.6583 20.0925 11.5343 19.7381 11.5343C18.8699 11.5343 18.1671 12.2608 18.1671 13.1526C18.1671 14.0445 18.8699 14.771 19.7381 14.771C20.0984 14.771 20.4292 14.6469 20.6891 14.4402V14.8891C20.6891 14.8891 20.5946 15.3321 19.933 15.3321V16.1649C19.933 16.1649 20.6477 16.2476 21.2856 15.6097C21.2856 15.6097 21.5809 15.2966 21.6459 14.8832V11.5993H20.6891ZM19.9153 13.9736C19.4369 13.9736 19.053 13.6015 19.053 13.1467C19.053 12.6919 19.4428 12.3198 19.9153 12.3198C20.252 12.3198 20.5473 12.5088 20.6891 12.7805C20.7481 12.8928 20.7777 13.0168 20.7777 13.1467C20.7777 13.2767 20.7422 13.4066 20.6891 13.5129C20.5473 13.7905 20.252 13.9736 19.9153 13.9736Z" fill="white"/>
<path d="M12.2961 10.4417V11.2981C12.2961 11.2981 12.7332 11.3572 12.8159 11.7824V14.8065H13.7904V11.7824V11.7588C13.7314 11.3336 13.4774 11.0146 13.4774 11.0146C12.9222 10.359 12.2961 10.4417 12.2961 10.4417Z" fill="white"/>
<defs>
<linearGradient id="paint0_linear_514_5399" x1="15.1921" y1="22.4907" x2="15.1921" y2="6.00166" gradientUnits="userSpaceOnUse">
<stop stop-color="#00D44D"/>
<stop offset="1" stop-color="#00E56D"/>
</linearGradient>
</defs>
</svg>
