<?xml version="1.0" encoding="utf-8"?>
<!-- Generator: Adobe Illustrator 27.0.0, SVG Export Plug-In . SVG Version: 6.00 Build 0)  -->
<svg version="1.1" id="Layer_1" xmlns="http://www.w3.org/2000/svg" xmlns:xlink="http://www.w3.org/1999/xlink" x="0px" y="0px"
	 viewBox="0 0 464.8 464.8" style="enable-background:new 0 0 464.8 464.8;" xml:space="preserve">
<style type="text/css">
	.st0{fill:#FFFFFF;}
	.st1{fill:#42D31A;}
	.st2{filter:url(#Adobe_OpacityMaskFilter);}
	.st3{filter:url(#Adobe_OpacityMaskFilter_00000157298470762605590780000001604909752081782186_);}
	
		.st4{mask:url(#XMLID_00000182504389257927346750000004514251780865349003_);fill:url(#XMLID_00000072280719321686333160000003281587371146520764_);}
	.st5{fill:url(#XMLID_00000005977863033739256150000011594802862496360869_);}
	.st6{fill:#EE423E;}
	.st7{filter:url(#Adobe_OpacityMaskFilter_00000152266222524350985910000002605819791419333282_);}
	.st8{filter:url(#Adobe_OpacityMaskFilter_00000030473894966755633020000013389865359434845320_);}
	
		.st9{mask:url(#XMLID_00000020397787481770099960000009745683710013026709_);fill:url(#XMLID_00000165918316776174132440000002178198574188977080_);}
	.st10{filter:url(#Adobe_OpacityMaskFilter_00000029740237989109226850000018385293379807688870_);}
	.st11{filter:url(#Adobe_OpacityMaskFilter_00000181766060656868092980000006213335527964506802_);}
	
		.st12{mask:url(#XMLID_00000083779713664773036100000005059392716554462106_);fill:url(#XMLID_00000138532922053295568580000001828523738069819281_);}
</style>
<g>
	<path d="M409.4,102.4c-5.3-17-20.1-29.8-38-32.6c-8.9-1.5-269-1.5-278,0c-18.4,2.9-33.7,17-38.5,35.4c-1.3,5.1-1.5,17.6-1.5,89.2
		c0,57.1,0.3,84.9,1.1,88.5c1.6,7.6,7.3,17.9,13.2,23.8c5.8,5.8,16.6,11.5,24.6,13c3.1,0.6,25.7,1,53.6,1h48.2l16.2,38.3
		c11.1,26.1,17,38.9,18.7,40.5c2.8,2.5,5.6,2.3,8.6-0.7c0.9-0.9,8.9-18.8,17.9-39.8l16.2-38.3h48.1c53,0,55.7-0.3,66.8-6.2
		c10.8-5.8,21-19,23.7-30.9c0.7-2.8,1.1-35.8,1.1-89.5C411.4,111.6,411.3,108.7,409.4,102.4z M368.4,206.5c0,38.7-0.4,41.6-6.3,49.4
		c-1.8,2.4-5.7,5.6-8.7,7.3c-4.9,2.6-6.7,3-15.7,3.3l-10.3,0.4v-20.2h4.6c8,0,12.6-4.3,14-13l0.7-4.4l-2.8,2.2
		c-3.5,2.8-9.5,4.4-16.7,4.5c-4.5,0-7.1-0.7-12.2-3.2c-11.4-5.6-15.6-13.3-15.6-28.7c0-18.4,8.4-29.8,24.4-33.1
		c8.5-1.7,15.9,0,21.4,5l2.2,2v-6.3h21V206.5z M218.6,201.8c0.3-6,1.1-8.8,3.3-13c7-12.8,23-20,37.8-17.1
		c23.6,4.6,36,27.6,25.1,46.6c-3.3,5.9-11.6,13-17.7,15.2c-10,3.7-22,3.2-30.7-1.3c-6-3.1-12.6-10.2-15.5-16.7
		C218.5,210.1,218.2,208.5,218.6,201.8z M172.4,152.6v-11.1l4.3,0.7c12,2,19.3,7,23.9,16.3l3.3,6.7l0.3,34.2l0.3,34.3h-22.1v-63.2
		l-3.4-3.4c-1.9-1.9-4.1-3.4-5-3.4C172.6,163.7,172.4,162.1,172.4,152.6z M150,232.5c-9.5,4.5-19.7,4.4-26.7-0.3
		c-4.6-3-4.9-3-4.9-0.5c0,2-0.5,2.1-10.7,1.8l-10.8-0.3L96.6,189l-0.2-44.3h22V178l2.3-2c7.1-6.5,20.1-7.4,30.3-2.1
		c4.9,2.6,11,10,13,15.9c2.7,7.8,2.6,22.7-0.2,29C161.2,224.3,155.7,229.9,150,232.5L150,232.5z"/>
	<path d="M126,193.2c-8,3.8-8.8,15.8-1.4,20.9c5,3.5,14.5,1.1,17.3-4.4C147.5,198.9,137,188,126,193.2z"/>
	<path d="M246.7,214.7c8.8,5.4,19.7-1.2,19.7-11.9c0-3.7-0.6-4.9-3.9-8.2c-3.3-3.4-4.5-3.9-8.2-3.9c-5.6,0-8.7,1.6-11.6,5.9
		c-0.1,0.2-0.3,0.4-0.4,0.6C238.7,203.2,240.7,211.1,246.7,214.7z"/>
	<path d="M324.4,197c-3.9,6.4-1.3,15.4,5.3,18.2h0c3.9,1.7,5.7,1.8,9.4,0.4c7.5-2.8,10.6-10.1,7.5-17.2
		C342.4,188.9,329.8,188.1,324.4,197z"/>
</g>
</svg>
