<svg width="30" height="30" viewBox="0 0 30 30" fill="none" xmlns="http://www.w3.org/2000/svg">
<path fill-rule="evenodd" clip-rule="evenodd" d="M14.6644 11.79C14.7074 11.747 14.759 11.7126 14.8193 11.6868C14.8795 11.661 14.9397 11.6523 15 11.6523C15.0602 11.6523 15.1291 11.661 15.1807 11.6868C15.2409 11.7126 15.2926 11.747 15.3356 11.79L21.0843 17.5387C21.1704 17.6248 21.222 17.7539 21.222 17.8744C21.222 17.9949 21.1704 18.1239 21.0843 18.21C20.9983 18.2961 20.8692 18.3477 20.7487 18.3477C20.6196 18.3477 20.4991 18.2961 20.4131 18.21L15 12.7969L9.58691 18.21C9.50085 18.2961 9.37176 18.3477 9.25128 18.3477C9.12219 18.3477 9.00171 18.2961 8.91565 18.21C8.82959 18.1239 8.77795 17.9949 8.77795 17.8744C8.77795 17.7539 8.82959 17.6248 8.91565 17.5387L14.6644 11.79Z" fill="#F17522"/>
</svg>
