<?xml version="1.0" encoding="utf-8"?>
<!-- Generator: Adobe Illustrator 27.0.0, SVG Export Plug-In . SVG Version: 6.00 Build 0)  -->
<svg version="1.1" id="Layer_1" xmlns="http://www.w3.org/2000/svg" xmlns:xlink="http://www.w3.org/1999/xlink" x="0px" y="0px"
	 viewBox="0 0 464.8 464.8" style="enable-background:new 0 0 464.8 464.8;" xml:space="preserve">
<style type="text/css">
	.st0{fill:#FFFFFF;}
	.st1{fill:#42D31A;}
	.st2{filter:url(#Adobe_OpacityMaskFilter);}
	.st3{filter:url(#Adobe_OpacityMaskFilter_00000109734322696251226440000001048097580033643418_);}
	
		.st4{mask:url(#XMLID_00000010311443638431905960000014845318624096333745_);fill:url(#XMLID_00000077292104129708858880000003981554080720730254_);}
	.st5{fill:url(#XMLID_00000056391241506383594110000010243252406228903554_);}
	.st6{fill:#EE423E;}
	.st7{filter:url(#Adobe_OpacityMaskFilter_00000119110627704586550460000013747583760632506028_);}
	.st8{filter:url(#Adobe_OpacityMaskFilter_00000139286729481044897580000005695317869267525509_);}
	
		.st9{mask:url(#XMLID_00000122690294734716917450000016791028749564033921_);fill:url(#XMLID_00000143592592743796710920000008180937831869015995_);}
	.st10{filter:url(#Adobe_OpacityMaskFilter_00000017501925696497180330000013817347566532755881_);}
	.st11{filter:url(#Adobe_OpacityMaskFilter_00000044900702191442723430000010875184921104810680_);}
	
		.st12{mask:url(#XMLID_00000069383496157686465670000009328558445350518428_);fill:url(#XMLID_00000149360607570223861000000010855414864670142129_);}
	.st13{fill:#F9F1DE;}
	.st14{fill-rule:evenodd;clip-rule:evenodd;fill:#F17522;}
</style>
<path class="st13" d="M230.5,48.1L230.5,48.1c102.9,0,186.3,83.4,186.3,186.3l0,0c0,102.9-83.4,186.3-186.3,186.3l0,0
	c-102.9,0-186.3-83.4-186.3-186.3l0,0C44.2,131.5,127.6,48.1,230.5,48.1z"/>
<path class="st14" d="M226.6,197c0.5-0.5,1.1-0.9,1.8-1.2c0.7-0.3,1.4-0.4,2.1-0.4c0.7,0,1.5,0.1,2.1,0.4c0.7,0.3,1.3,0.7,1.8,1.2
	l66.8,66.8c1,1,1.6,2.5,1.6,3.9s-0.6,2.9-1.6,3.9s-2.5,1.6-3.9,1.6c-1.5,0-2.9-0.6-3.9-1.6l-62.9-62.9l-62.9,62.9
	c-1,1-2.5,1.6-3.9,1.6c-1.5,0-2.9-0.6-3.9-1.6c-1-1-1.6-2.5-1.6-3.9s0.6-2.9,1.6-3.9L226.6,197z"/>
</svg>
