<?xml version="1.0" encoding="utf-8"?>
<!-- Generator: Adobe Illustrator 27.0.0, SVG Export Plug-In . SVG Version: 6.00 Build 0)  -->
<svg version="1.1" id="Layer_1" xmlns="http://www.w3.org/2000/svg" xmlns:xlink="http://www.w3.org/1999/xlink" x="0px" y="0px"
	 viewBox="0 0 464.8 464.8" style="enable-background:new 0 0 464.8 464.8;" xml:space="preserve">
<style type="text/css">
	.st0{fill:#FFFFFF;}
	.st1{fill:#42D31A;}
	.st2{filter:url(#Adobe_OpacityMaskFilter);}
	.st3{filter:url(#Adobe_OpacityMaskFilter_00000013913569961310170060000009429822101507327372_);}
	
		.st4{mask:url(#XMLID_00000159452195974253618620000011030302440910611605_);fill:url(#XMLID_00000126291701880773502850000002244520238095664047_);}
	.st5{fill:url(#XMLID_00000128470652475987107610000000510546390847907992_);}
	.st6{fill:#EE423E;}
	.st7{filter:url(#Adobe_OpacityMaskFilter_00000116913571795840323380000006463634817632587155_);}
	.st8{filter:url(#Adobe_OpacityMaskFilter_00000078743122585550443540000011964369641208712867_);}
	
		.st9{mask:url(#XMLID_00000088812007876555392450000008112681203286810782_);fill:url(#XMLID_00000034782578345177465980000009161517809604444559_);}
	.st10{filter:url(#Adobe_OpacityMaskFilter_00000058575567722818336680000009376945939276293250_);}
	.st11{filter:url(#Adobe_OpacityMaskFilter_00000100376771884542384740000007719104111047558563_);}
	
		.st12{mask:url(#XMLID_00000147216991231008154490000009254366591755303553_);fill:url(#XMLID_00000093858353918350898480000016330559968539944109_);}
</style>
<g id="XMLID_00000005961518219404420510000011776069182316470935_">
	<defs>
		<filter id="Adobe_OpacityMaskFilter" filterUnits="userSpaceOnUse" x="64.9" y="64.9" width="335" height="335">
			<feFlood  style="flood-color:white;flood-opacity:1" result="back"/>
			<feBlend  in="SourceGraphic" in2="back" mode="normal"/>
		</filter>
	</defs>
	
		<mask maskUnits="userSpaceOnUse" x="64.9" y="64.9" width="335" height="335" id="XMLID_00000008851340375049635900000005266748435765851058_">
		<g id="XMLID_00000175301873342355203470000009318256971177948044_" class="st2">
			<defs>
				
					<filter id="Adobe_OpacityMaskFilter_00000179640537912739861760000003139635636431611549_" filterUnits="userSpaceOnUse" x="64.9" y="64.9" width="335" height="335">
					<feFlood  style="flood-color:white;flood-opacity:1" result="back"/>
					<feBlend  in="SourceGraphic" in2="back" mode="normal"/>
				</filter>
			</defs>
			
				<mask maskUnits="userSpaceOnUse" x="64.9" y="64.9" width="335" height="335" id="XMLID_00000008851340375049635900000005266748435765851058_">
			</mask>
			
				<radialGradient id="XMLID_00000062898522865061269380000003306172615781059201_" cx="92.169" cy="379.3333" r="359.4391" gradientUnits="userSpaceOnUse">
				<stop  offset="2.150540e-02" style="stop-color:#FAFAFA"/>
				<stop  offset="0.5134" style="stop-color:#FEFEFE"/>
				<stop  offset="1" style="stop-color:#FFFFFF"/>
			</radialGradient>
			
				<path id="XMLID_00000153704277617209131970000000714647284022911921_" style="mask:url(#XMLID_00000008851340375049635900000005266748435765851058_);fill:url(#XMLID_00000062898522865061269380000003306172615781059201_);" d="
				M232.4,192.1c-22.2,0-40.3,18.1-40.3,40.3c0,22.2,18.1,40.3,40.3,40.3s40.3-18.1,40.3-40.3C272.7,210.2,254.6,192.1,232.4,192.1z
				 M339.7,64.9H125.1c-33.3,0-60.2,27-60.2,60.2v214.6c0,33.3,27,60.2,60.2,60.2h214.6c33.3,0,60.2-27,60.2-60.2V125.1
				C399.9,91.9,372.9,64.9,339.7,64.9z M358.9,307.8c0,28.2-22.9,51.1-51.1,51.1H157c-28.2,0-51.1-22.9-51.1-51.1V157
				c0-28.2,22.9-51.1,51.1-51.1h150.7c28.2,0,51.1,22.9,51.1,51.1V307.8z M307.8,123.6H157c-18.5,0-33.5,15-33.5,33.5v150.7
				c0,18.5,15,33.5,33.5,33.5h150.7c18.5,0,33.5-15,33.5-33.5V157C341.2,138.6,326.2,123.6,307.8,123.6z M232.4,290.4
				c-32,0-58-26-58-58c0-32,26-58,58-58s58,26,58,58C290.4,264.4,264.4,290.4,232.4,290.4z M304.4,176.5c-9.7,0-17.5-7.8-17.5-17.5
				c0-9.7,7.8-17.5,17.5-17.5c9.7,0,17.5,7.8,17.5,17.5C321.9,168.7,314,176.5,304.4,176.5z"/>
		</g>
	</mask>
	<path id="XMLID_00000138542144794164877490000000569037088133082026_" d="M232.4,192.1c-22.2,0-40.3,18.1-40.3,40.3
		c0,22.2,18.1,40.3,40.3,40.3s40.3-18.1,40.3-40.3C272.7,210.2,254.6,192.1,232.4,192.1z M339.7,64.9H125.1
		c-33.3,0-60.2,27-60.2,60.2v214.6c0,33.3,27,60.2,60.2,60.2h214.6c33.3,0,60.2-27,60.2-60.2V125.1
		C399.9,91.9,372.9,64.9,339.7,64.9z M358.9,307.8c0,28.2-22.9,51.1-51.1,51.1H157c-28.2,0-51.1-22.9-51.1-51.1V157
		c0-28.2,22.9-51.1,51.1-51.1h150.7c28.2,0,51.1,22.9,51.1,51.1V307.8z M307.8,123.6H157c-18.5,0-33.5,15-33.5,33.5v150.7
		c0,18.5,15,33.5,33.5,33.5h150.7c18.5,0,33.5-15,33.5-33.5V157C341.2,138.6,326.2,123.6,307.8,123.6z M232.4,290.4
		c-32,0-58-26-58-58c0-32,26-58,58-58s58,26,58,58C290.4,264.4,264.4,290.4,232.4,290.4z M304.4,176.5c-9.7,0-17.5-7.8-17.5-17.5
		c0-9.7,7.8-17.5,17.5-17.5c9.7,0,17.5,7.8,17.5,17.5C321.9,168.7,314,176.5,304.4,176.5z"/>
</g>
</svg>
