<svg width="45" height="40" viewBox="0 0 45 40" fill="none" xmlns="http://www.w3.org/2000/svg">
<path d="M27.0076 38.3688H20.0996V35.5053H27.0076C31.8755 35.5053 35.8127 31.5681 35.8127 26.7002V15.0317C35.8127 8.83947 30.7659 3.79265 24.5737 3.79265H20.0996C13.9073 3.79265 8.86052 8.83947 8.86052 15.0317V26.4139H5.99707V15.0317C5.99707 7.26458 12.3324 0.929199 20.0996 0.929199H24.5737C32.3408 0.929199 38.6762 7.26458 38.6762 15.0317V26.6644C38.6762 33.1072 33.4504 38.3688 27.0076 38.3688Z" fill="#F17522"/>
<path d="M25.182 36.8295C25.182 38.4044 23.8934 39.693 22.3185 39.693C20.7436 39.693 19.4551 38.4044 19.4551 36.8295C19.4551 35.2546 20.7436 33.9661 22.3185 33.9661C23.9292 33.9661 25.182 35.2546 25.182 36.8295Z" fill="#F17522"/>
<path d="M7.03533 29.0267C3.20547 29.0267 0.127259 25.9127 0.127259 22.1187C0.0914655 18.2888 3.20547 15.1748 7.03533 15.1748C8.03753 15.1748 8.89657 15.998 8.89657 17.036V27.2013C8.86078 28.2035 8.03753 29.0267 7.03533 29.0267Z" fill="#F17522"/>
<path d="M37.6747 29.0266C41.5046 29.0266 44.5828 25.9126 44.5828 22.1185C44.5828 18.2887 41.4688 15.2104 37.6747 15.2104C36.6725 15.2104 35.8135 16.0337 35.8135 17.0717V27.2369C35.8493 28.2033 36.6725 29.0266 37.6747 29.0266Z" fill="#F17522"/>
<path d="M26.6863 31.8545H18.0959C14.3018 31.8545 11.2236 28.7763 11.2236 24.9823V16.2487C11.2236 12.4547 14.3018 9.37646 18.0959 9.37646H26.6863C30.4803 9.37646 33.5585 12.4547 33.5585 16.2487V24.9823C33.5585 28.7763 30.4803 31.8545 26.6863 31.8545Z" fill="white"/>
<path d="M21.4234 22.8343H19.24L20.7433 21.331C21.1371 20.9373 21.4234 20.5793 21.6024 20.1856C21.8171 19.7919 21.9245 19.3266 21.9245 18.8971V18.7539C21.9245 18.4675 21.8529 18.1812 21.7455 17.8949C21.6382 17.6085 21.4592 17.358 21.2086 17.1432C20.9939 16.9284 20.6717 16.7853 20.3138 16.6421C19.9559 16.5347 19.5622 16.4631 19.0968 16.4631C18.4884 16.4631 17.9515 16.6063 17.5219 16.8569C17.0924 17.1074 16.7703 17.4295 16.4839 17.8233C16.2692 18.1454 16.305 18.396 16.3408 18.5749C16.4124 18.7897 16.5555 19.0044 16.7703 19.1476C16.9851 19.2908 17.2356 19.3624 17.4504 19.3266C17.7009 19.2908 17.9157 19.1476 18.0588 18.9687C18.202 18.7897 18.3452 18.6465 18.5242 18.5391C18.6673 18.4675 18.8821 18.396 19.0968 18.396C19.3474 18.396 19.5622 18.4318 19.6337 18.5391C19.7411 18.6107 19.7769 18.6823 19.7769 18.8255V18.8613C19.7769 18.9687 19.7769 19.076 19.7411 19.1476C19.7411 19.2192 19.7053 19.3266 19.6337 19.434C19.5622 19.5413 19.4906 19.6487 19.3832 19.7919C19.2758 19.9351 19.1326 20.0782 18.9537 20.2572L16.6629 22.6911C16.5197 22.8343 16.4482 22.9417 16.3766 23.0849C16.2692 23.228 16.2334 23.407 16.2334 23.586C16.2334 24.0155 16.4124 24.266 16.5913 24.4092C16.8061 24.5882 17.1282 24.6598 17.5219 24.6598H21.4234C21.7097 24.6598 21.9245 24.5524 22.0677 24.3376C22.1751 24.1587 22.2466 23.9797 22.2466 23.7291C22.2466 23.5144 22.1751 23.2996 22.0677 23.1207C21.9603 22.9417 21.7097 22.8343 21.4234 22.8343Z" fill="#F2A36D"/>
<path d="M28.9401 21.6888C28.7969 21.4741 28.5822 21.3667 28.2958 21.3667H28.0453V20.0424C28.0453 19.6486 27.8663 19.4339 27.6873 19.2907C27.3294 19.0402 26.7925 19.0402 26.3988 19.2549L27.222 18.0379C27.4368 17.7158 27.4368 17.4295 27.3652 17.2505C27.2936 17.0357 27.1504 16.821 26.9357 16.6778C26.7209 16.5346 26.5062 16.4988 26.2556 16.5346C26.0766 16.5704 25.8261 16.642 25.6113 16.9642L22.6763 21.2235C22.6047 21.3309 22.5331 21.4383 22.4973 21.5099C22.4615 21.6173 22.3899 21.6888 22.3899 21.7246C22.3542 21.7962 22.3542 21.8678 22.3184 21.9394C22.3184 22.011 22.3184 22.0468 22.3184 22.1184C22.3184 22.5479 22.4973 22.7626 22.6405 22.9058C22.8553 23.049 23.1058 23.1564 23.4995 23.1564H26.005V23.8006C26.005 24.1944 26.184 24.4091 26.363 24.5523C26.5419 24.6955 26.7925 24.7671 27.043 24.7671C27.2936 24.7671 27.5084 24.6955 27.7231 24.5523C27.9021 24.4449 28.081 24.2302 28.081 23.8006V23.1564H28.3316C28.6179 23.1564 28.8685 23.049 28.9759 22.8342C29.0833 22.6553 29.1548 22.4763 29.1548 22.2615C29.119 22.0468 29.0475 21.832 28.9401 21.6888ZM24.967 21.3309L26.005 19.8276C26.005 19.8992 26.005 19.9708 26.005 20.0424V21.3667H24.967V21.3309Z" fill="#F2A36D"/>
</svg>
