<svg width="60" height="60" viewBox="0 0 60 60" fill="none" xmlns="http://www.w3.org/2000/svg">
<path d="M45.1435 38.6687L40.383 33.9082C39.5598 33.085 38.2355 33.085 37.4122 33.9082L36.0521 35.2683C34.6919 36.6285 32.5086 36.6285 31.1842 35.2683L24.4551 28.575C23.095 27.2149 23.095 25.0315 24.4551 23.7072L25.8153 22.347C26.6385 21.5238 26.6385 20.1994 25.8153 19.3762L21.0906 14.6157C20.2673 13.7925 18.9788 13.7925 18.1555 14.6157L17.2965 15.4748C14.5404 18.2308 13.6814 21.8817 14.791 26.0695C15.7932 29.8278 18.3345 33.8366 22.1286 37.6307C25.851 41.3532 30.003 43.9303 33.7971 44.8609C38.0207 45.8989 41.7074 45.0041 44.4635 42.248L44.9288 41.7827C45.7162 40.9952 45.9668 39.4919 45.1435 38.6687Z" fill="#3F3F3F"/>
</svg>
