<?xml version="1.0" encoding="utf-8"?>
<!-- Generator: Adobe Illustrator 27.0.0, SVG Export Plug-In . SVG Version: 6.00 Build 0)  -->
<svg version="1.1" id="Layer_1" xmlns="http://www.w3.org/2000/svg" xmlns:xlink="http://www.w3.org/1999/xlink" x="0px" y="0px"
	 viewBox="0 0 67.8 67.8" style="enable-background:new 0 0 67.8 67.8;" xml:space="preserve">
<style type="text/css">
	.st0{display:none;}
	.st1{display:inline;opacity:0.5;}
	.st2{fill:none;stroke:#E62AFF;stroke-width:0.25;stroke-miterlimit:10;}
	.st3{display:inline;fill:none;stroke:#FFFFFF;stroke-width:2;stroke-miterlimit:10;}
	.st4{fill:none;stroke:#FFFFFF;stroke-width:2;stroke-linecap:round;stroke-linejoin:round;stroke-miterlimit:10;}
</style>
<g id="guide" class="st0">
	<g class="st1">
		<g>
			<g>
				<g>
					<rect x="0.1" y="0.1" class="st2" width="67.5" height="67.5"/>
					<circle class="st2" cx="33.9" cy="33.9" r="33.8"/>
					<circle class="st2" cx="33.9" cy="33.9" r="16.9"/>
					<line class="st2" x1="33.9" y1="67.6" x2="33.9" y2="0.1"/>
					<line class="st2" x1="0.1" y1="33.9" x2="67.6" y2="33.9"/>
				</g>
			</g>
		</g>
	</g>
</g>
<g id="title" class="st0">
	<rect x="-144.2" y="-988.9" class="st3" width="1200" height="1335"/>
</g>
<g id="icon">
	<g>
		<g>
			<path class="st4" d="M17.7,23.9h38.6c4.1,0,7.5-3.4,7.5-7.5l0,0c0-4.1-3.3-7.5-7.5-7.5H12.1c-5.2,0-9.4,4.2-9.4,9.4v11.2
				c0,5.2,4.2,9.4,9.4,9.4h5.6"/>
			<line class="st4" x1="17.7" y1="38.9" x2="49.8" y2="38.9"/>
		</g>
		<path class="st4" d="M49.8,38.9H10.2c-4.1,0-7.5,3.3-7.5,7.5l0,0c0,4.1,3.3,7.5,7.5,7.5H13v5.6c0,2.6,2.1,4.7,4.7,4.7l0,0
			c2.6,0,4.7-2.1,4.7-4.7v-5.6h33c5.2,0,9.3-4.2,9.3-9.3v-9.3c0-6.2-5-11.2-11.2-11.2"/>
	</g>
</g>
</svg>
