<?xml version="1.0" encoding="utf-8"?>
<!-- Generator: Adobe Illustrator 27.0.0, SVG Export Plug-In . SVG Version: 6.00 Build 0)  -->
<svg version="1.1" id="Layer_1" xmlns="http://www.w3.org/2000/svg" xmlns:xlink="http://www.w3.org/1999/xlink" x="0px" y="0px"
	 viewBox="0 0 67.8 67.8" style="enable-background:new 0 0 67.8 67.8;" xml:space="preserve">
<style type="text/css">
	.st0{display:none;}
	.st1{display:inline;opacity:0.5;}
	.st2{fill:none;stroke:#E62AFF;stroke-width:0.25;stroke-miterlimit:10;}
	.st3{display:inline;fill:none;stroke:#FFFFFF;stroke-width:2;stroke-miterlimit:10;}
	.st4{fill:none;stroke:#FFFFFF;stroke-width:2;stroke-linecap:round;stroke-linejoin:round;stroke-miterlimit:10;}
	.st5{fill:none;stroke:#FFFFFF;stroke-width:2;stroke-linecap:round;stroke-linejoin:round;}
</style>
<g id="guide" class="st0">
	<g class="st1">
		<g>
			<g>
				<g>
					<rect x="0.1" y="0.1" class="st2" width="67.5" height="67.5"/>
					<circle class="st2" cx="33.9" cy="33.9" r="33.8"/>
					<circle class="st2" cx="33.9" cy="33.9" r="16.9"/>
					<line class="st2" x1="33.9" y1="67.6" x2="33.9" y2="0.1"/>
					<line class="st2" x1="0.1" y1="33.9" x2="67.6" y2="33.9"/>
				</g>
			</g>
		</g>
	</g>
</g>
<g id="title" class="st0">
	<rect x="-481.8" y="-681.4" class="st3" width="1200" height="1335"/>
</g>
<g id="icon">
	<g>
		<polyline class="st4" points="11.9,29.6 23.9,29.6 27.2,24.6 33.6,38 40.2,19 43.6,29.6 54.6,29.6 		"/>
		<g>
			<path class="st5" d="M61.7,50.6H4.8c-0.6,0-1-0.5-1-1V11.7c0-0.6,0.4-1,1-1h56.8c0.5,0,1,0.4,1,1v37.9
				C62.7,50.1,62.2,50.6,61.7,50.6z"/>
			<line class="st5" x1="19.3" y1="61" x2="47.2" y2="61"/>
			<line class="st5" x1="3.8" y1="43.7" x2="62.7" y2="43.7"/>
			<line class="st5" x1="26.4" y1="50.6" x2="26.4" y2="61"/>
			<line class="st4" x1="40.1" y1="50.8" x2="40.1" y2="60.9"/>
		</g>
	</g>
</g>
</svg>
