<?xml version="1.0" encoding="utf-8"?>
<!-- Generator: Adobe Illustrator 27.0.0, SVG Export Plug-In . SVG Version: 6.00 Build 0)  -->
<svg version="1.1" id="Layer_1" xmlns="http://www.w3.org/2000/svg" xmlns:xlink="http://www.w3.org/1999/xlink" x="0px" y="0px"
	 viewBox="0 0 67.8 67.8" style="enable-background:new 0 0 67.8 67.8;" xml:space="preserve">
<style type="text/css">
	.st0{display:none;}
	.st1{display:inline;opacity:0.5;}
	.st2{fill:none;stroke:#E62AFF;stroke-width:0.25;stroke-miterlimit:10;}
	.st3{display:inline;fill:none;stroke:#FFFFFF;stroke-width:2;stroke-miterlimit:10;}
	.st4{fill:none;stroke:#FFFFFF;stroke-width:2;stroke-linecap:round;stroke-linejoin:round;stroke-miterlimit:10;}
</style>
<g id="guide" class="st0">
	<g class="st1">
		<g>
			<g>
				<g>
					<rect x="0.1" y="0.1" class="st2" width="67.5" height="67.5"/>
					<circle class="st2" cx="33.9" cy="33.9" r="33.8"/>
					<circle class="st2" cx="33.9" cy="33.9" r="16.9"/>
					<line class="st2" x1="33.9" y1="67.6" x2="33.9" y2="0.1"/>
					<line class="st2" x1="0.1" y1="33.9" x2="67.6" y2="33.9"/>
				</g>
			</g>
		</g>
	</g>
</g>
<g id="title" class="st0">
	<rect x="-819.2" y="-527.6" class="st3" width="1200" height="1335"/>
</g>
<g id="icon">
	<g>
		<g>
			<line class="st4" x1="25.9" y1="52" x2="21.3" y2="47.4"/>
			<line class="st4" x1="30.8" y1="47.2" x2="26.2" y2="42.6"/>
			<line class="st4" x1="35.6" y1="42.3" x2="31" y2="37.8"/>
			<line class="st4" x1="40.5" y1="37.5" x2="35.9" y2="32.9"/>
		</g>
		<polyline class="st4" points="54.1,25.2 20.8,58.3 9.4,46.8 42.7,13.8 		"/>
		<polyline class="st4" points="17.6,55.6 13.8,59.4 8.2,53.8 12,50 		"/>
		<line class="st4" x1="61.5" y1="13.5" x2="52.3" y2="22.6"/>
		<line class="st4" x1="45.2" y1="15.5" x2="54.4" y2="6.4"/>
		<line class="st4" x1="40" y1="11.1" x2="56.7" y2="27.9"/>
		<line class="st4" x1="51.4" y1="3.4" x2="64.5" y2="16.6"/>
		<line class="st4" x1="5.4" y1="62.2" x2="9.9" y2="57.6"/>
	</g>
</g>
</svg>
