<?xml version="1.0" encoding="utf-8"?>
<!-- Generator: Adobe Illustrator 27.0.0, SVG Export Plug-In . SVG Version: 6.00 Build 0)  -->
<svg version="1.1" id="Layer_1" xmlns="http://www.w3.org/2000/svg" xmlns:xlink="http://www.w3.org/1999/xlink" x="0px" y="0px"
	 viewBox="0 0 67.8 67.8" style="enable-background:new 0 0 67.8 67.8;" xml:space="preserve">
<style type="text/css">
	.st0{display:none;}
	.st1{display:inline;opacity:0.5;}
	.st2{fill:none;stroke:#E62AFF;stroke-width:0.25;stroke-miterlimit:10;}
	.st3{display:inline;fill:none;stroke:#FFFFFF;stroke-width:2;stroke-miterlimit:10;}
	.st4{fill:none;stroke:#FFFFFF;stroke-width:2;stroke-linecap:round;stroke-linejoin:round;stroke-miterlimit:10;}
</style>
<g id="guide" class="st0">
	<g class="st1">
		<g>
			<g>
				<g>
					<rect x="0.1" y="0.1" class="st2" width="67.5" height="67.5"/>
					<circle class="st2" cx="33.9" cy="33.9" r="33.8"/>
					<circle class="st2" cx="33.9" cy="33.9" r="16.9"/>
					<line class="st2" x1="33.9" y1="67.6" x2="33.9" y2="0.1"/>
					<line class="st2" x1="0.1" y1="33.9" x2="67.6" y2="33.9"/>
				</g>
			</g>
		</g>
	</g>
</g>
<g id="title" class="st0">
	<rect x="-144.2" y="-527.6" class="st3" width="1200" height="1335"/>
</g>
<g id="icon">
	<g>
		<g>
			<path class="st4" d="M64.8,24.9c0-9-7.3-15.3-16.2-15.3c-6.6,0-12.2,3.9-14.8,9.6c-2.5-5.6-8.2-9.6-14.8-9.6
				C10,9.7,2.8,16,2.8,24.9c0,1.4,0.6,6.4,4.1,11.5c8.4,12.3,24.9,26.7,26.9,26.7c2.4,0,18.5-14.5,26.5-26.7
				C62.9,32.2,64.8,26.1,64.8,24.9z"/>
		</g>
		<polyline class="st4" points="6.8,36.4 16.1,36.4 18.9,23.2 35.6,50 40.5,39.2 63.1,39.2 		"/>
	</g>
</g>
</svg>
