<?xml version="1.0" encoding="utf-8"?>
<!-- Generator: Adobe Illustrator 27.0.0, SVG Export Plug-In . SVG Version: 6.00 Build 0)  -->
<svg version="1.1" id="Layer_1" xmlns="http://www.w3.org/2000/svg" xmlns:xlink="http://www.w3.org/1999/xlink" x="0px" y="0px"
	 viewBox="0 0 67.8 67.8" style="enable-background:new 0 0 67.8 67.8;" xml:space="preserve">
<style type="text/css">
	.st0{display:none;}
	.st1{display:inline;opacity:0.5;}
	.st2{fill:none;stroke:#E62AFF;stroke-width:0.25;stroke-miterlimit:10;}
	.st3{display:inline;fill:none;stroke:#FFFFFF;stroke-width:2;stroke-miterlimit:10;}
	.st4{fill:none;stroke:#FFFFFF;stroke-width:2;stroke-linecap:round;stroke-linejoin:round;stroke-miterlimit:10;}
</style>
<g id="guide" class="st0">
	<g class="st1">
		<g>
			<g>
				<g>
					<rect x="0.1" y="0.1" class="st2" width="67.5" height="67.5"/>
					<circle class="st2" cx="33.9" cy="33.9" r="33.8"/>
					<circle class="st2" cx="33.9" cy="33.9" r="16.9"/>
					<line class="st2" x1="33.9" y1="67.6" x2="33.9" y2="0.1"/>
					<line class="st2" x1="0.1" y1="33.9" x2="67.6" y2="33.9"/>
				</g>
			</g>
		</g>
	</g>
</g>
<g id="title" class="st0">
	<rect x="-481.8" y="-527.6" class="st3" width="1200" height="1335"/>
</g>
<g id="icon">
	<g>
		<path class="st4" d="M62.8,59.4c-1.7,0-3-1.3-3-3s1.3-3,3-3s3,1.3,3,3S64.4,59.4,62.8,59.4z"/>
		<path class="st4" d="M20,48.4h-1.4c-1.2,0-2.3-0.4-3.2-1.2c-3.5-3-12.1-10.5-12.1-13.3V4.4c0-0.5,0.5-1,1-1h29c0.5,0,1,0.5,1,1
			v29.8c0,2.6-7.6,9.9-10.9,12.8C22.5,47.9,21.2,48.4,20,48.4z"/>
		<path class="st4" d="M29.2,25.2v8.3c-0.8,1.3-3.6,4.7-9.3,9.9l0,0h-1.4c-6.3-5.3-9.5-8.9-10.3-10.2v-1.3c0,0,0.4-5.2,6-3.7
			c4.3,1.2,4.8-2.3,7.7-4.5C24.3,21.9,29.2,22.5,29.2,25.2z"/>
		<path class="st4" d="M63.2,52.4v-27c0-4.1-3.4-7.5-7.5-7.5l0,0c-4.1,0-7.5,3.4-7.5,7.5v26.8c0,7.3-6,13.3-13.3,13.3h-0.4
			c-7.4,0-13.3-6-13.3-13.3v-3.8"/>
		<line class="st4" x1="17.2" y1="48.4" x2="17.2" y2="52.4"/>
		<line class="st4" x1="8.2" y1="9.4" x2="14.2" y2="9.4"/>
		<line class="st4" x1="8.2" y1="15.9" x2="14.2" y2="15.9"/>
		<line class="st4" x1="8.2" y1="22.4" x2="14.2" y2="22.4"/>
	</g>
</g>
</svg>
