<?xml version="1.0" encoding="utf-8"?>
<!-- Generator: Adobe Illustrator 27.0.0, SVG Export Plug-In . SVG Version: 6.00 Build 0)  -->
<svg version="1.1" id="Layer_1" xmlns="http://www.w3.org/2000/svg" xmlns:xlink="http://www.w3.org/1999/xlink" x="0px" y="0px"
	 viewBox="0 0 67.8 67.8" style="enable-background:new 0 0 67.8 67.8;" xml:space="preserve">
<style type="text/css">
	.st0{display:none;}
	.st1{display:inline;opacity:0.5;}
	.st2{fill:none;stroke:#E62AFF;stroke-width:0.25;stroke-miterlimit:10;}
	.st3{display:inline;fill:none;stroke:#FFFFFF;stroke-width:2;stroke-miterlimit:10;}
	.st4{fill:none;stroke:#FFFFFF;stroke-width:2;stroke-linecap:round;stroke-linejoin:round;stroke-miterlimit:10;}
</style>
<g id="guide" class="st0">
	<g class="st1">
		<g>
			<g>
				<g>
					<rect x="0.1" y="0.1" class="st2" width="67.5" height="67.5"/>
					<circle class="st2" cx="33.9" cy="33.9" r="33.8"/>
					<circle class="st2" cx="33.9" cy="33.9" r="16.9"/>
					<line class="st2" x1="33.9" y1="67.6" x2="33.9" y2="0.1"/>
					<line class="st2" x1="0.1" y1="33.9" x2="67.6" y2="33.9"/>
				</g>
			</g>
		</g>
	</g>
</g>
<g id="title" class="st0">
	<rect x="-650.5" y="-527.6" class="st3" width="1200" height="1335"/>
</g>
<g id="icon">
	<g>
		<path class="st4" d="M57.8,57.6L57.8,57.6c-5,5-13.2,5-18.2,0L24.8,42.8L9.2,27.3c-5-5-5-13.2,0-18.2l0,0c5-5,13.2-5,18.2,0
			l30.3,30.3C62.8,44.4,62.8,52.6,57.8,57.6z"/>
		<path class="st4" d="M45.3,38.2l-7,7c-0.8,0.8-2.2,0.8-3,0L21.7,31.5c-0.8-0.8-0.8-2.2,0-3l6.9-6.9c0.8-0.8,2.2-0.8,3,0l13.6,13.6
			C46.2,36,46.2,37.4,45.3,38.2z"/>
		<path class="st4" d="M51.7,33.3l6-6c5-5,5-13.2,0-18.2l0,0c-5-5-13.2-5-18.2,0l-6,6"/>
		<path class="st4" d="M15.3,33.4l-6.1,6.1c-5,5-5,13.2,0,18.2l0,0c5,5,13.2,5,18.2,0l5.8-5.8"/>
	</g>
</g>
</svg>
