<?xml version="1.0" encoding="utf-8"?>
<!-- Generator: Adobe Illustrator 27.0.0, SVG Export Plug-In . SVG Version: 6.00 Build 0)  -->
<svg version="1.1" id="Layer_1" xmlns="http://www.w3.org/2000/svg" xmlns:xlink="http://www.w3.org/1999/xlink" x="0px" y="0px"
	 viewBox="0 0 67.8 67.8" style="enable-background:new 0 0 67.8 67.8;" xml:space="preserve">
<style type="text/css">
	.st0{display:none;}
	.st1{display:inline;opacity:0.5;}
	.st2{fill:none;stroke:#E62AFF;stroke-width:0.25;stroke-miterlimit:10;}
	.st3{display:inline;fill:none;stroke:#FFFFFF;stroke-width:2;stroke-miterlimit:10;}
	.st4{fill:none;stroke:#FFFFFF;stroke-width:2;stroke-linecap:round;stroke-linejoin:round;stroke-miterlimit:10;}
</style>
<g id="guide" class="st0">
	<g class="st1">
		<g>
			<g>
				<g>
					<rect x="0.1" y="0.1" class="st2" width="67.5" height="67.5"/>
					<circle class="st2" cx="33.9" cy="33.9" r="33.8"/>
					<circle class="st2" cx="33.9" cy="33.9" r="16.9"/>
					<line class="st2" x1="33.9" y1="67.6" x2="33.9" y2="0.1"/>
					<line class="st2" x1="0.1" y1="33.9" x2="67.6" y2="33.9"/>
				</g>
			</g>
		</g>
	</g>
</g>
<g id="title" class="st0">
	<rect x="-650.5" y="-681.4" class="st3" width="1200" height="1335"/>
</g>
<g id="icon">
	<g>
		<polyline class="st4" points="39.9,62 39.9,45.6 51.4,45.6 51.4,62 		"/>
		<line class="st4" x1="4.7" y1="62" x2="62.9" y2="62"/>
		<polyline class="st4" points="6.6,62 6.6,35.2 30.7,35.2 		"/>
		<polyline class="st4" points="30.9,62 30.9,23.3 60.3,23.3 60.3,62 		"/>
		<polyline class="st4" points="36.5,23.2 36.5,5.7 54.7,5.7 54.7,23.2 		"/>
		<g>
			<line class="st4" x1="45.6" y1="10.8" x2="45.6" y2="18.8"/>
			<line class="st4" x1="41.6" y1="14.8" x2="49.6" y2="14.8"/>
		</g>
		<line class="st4" x1="6.6" y1="54.3" x2="30.4" y2="54.3"/>
	</g>
</g>
</svg>
