<?xml version="1.0" encoding="utf-8"?>
<!-- Generator: Adobe Illustrator 27.0.0, SVG Export Plug-In . SVG Version: 6.00 Build 0)  -->
<svg version="1.1" id="Layer_1" xmlns="http://www.w3.org/2000/svg" xmlns:xlink="http://www.w3.org/1999/xlink" x="0px" y="0px"
	 viewBox="0 0 67.8 67.8" style="enable-background:new 0 0 67.8 67.8;" xml:space="preserve">
<style type="text/css">
	.st0{display:none;}
	.st1{display:inline;opacity:0.5;}
	.st2{fill:none;stroke:#E62AFF;stroke-width:0.25;stroke-miterlimit:10;}
	.st3{display:inline;fill:none;stroke:#FFFFFF;stroke-width:2;stroke-miterlimit:10;}
	.st4{fill:none;stroke:#FFFFFF;stroke-width:2;stroke-linecap:round;stroke-linejoin:round;stroke-miterlimit:10;}
</style>
<g id="guide" class="st0">
	<g class="st1">
		<g>
			<g>
				<g>
					<rect x="0.1" y="0.1" class="st2" width="67.5" height="67.5"/>
					<circle class="st2" cx="33.9" cy="33.9" r="33.8"/>
					<circle class="st2" cx="33.9" cy="33.9" r="16.9"/>
					<line class="st2" x1="33.9" y1="67.6" x2="33.9" y2="0.1"/>
					<line class="st2" x1="0.1" y1="33.9" x2="67.6" y2="33.9"/>
				</g>
			</g>
		</g>
	</g>
</g>
<g id="title" class="st0">
	<rect x="-144.2" y="-681.4" class="st3" width="1200" height="1335"/>
</g>
<g id="icon">
	<g>
		<g>
			<path class="st4" d="M46.4,9.9h7.3c0.5,0,1,0.4,1,1v51.8c0,0.5-0.5,1-1,1h-40c-0.6,0-1-0.5-1-1V10.9c0-0.6,0.4-1,1-1h7.2"/>
		</g>
		<path class="st4" d="M39.3,6.8c-0.5,0-0.9-0.3-1-0.8c-0.5-2.1-2.3-3.7-4.6-3.7S29.6,3.9,29.1,6c-0.1,0.5-0.5,0.8-1,0.8h-3
			c-1.8,0-3.4,1.2-3.9,3l-1.2,5h27.5l-1.2-5c-0.5-1.8-2-3-3.9-3H39.3z"/>
		<polyline class="st4" points="19.8,30.6 24.8,30.6 28.1,25.6 34.4,36 41.1,23 44.4,30.6 48.4,30.6 		"/>
		<line class="st4" x1="20.1" y1="43.5" x2="47.4" y2="43.5"/>
		<line class="st4" x1="27.3" y1="50.3" x2="40.2" y2="50.3"/>
	</g>
</g>
</svg>
