<?xml version="1.0" encoding="utf-8"?>
<!-- Generator: Adobe Illustrator 27.0.0, SVG Export Plug-In . SVG Version: 6.00 Build 0)  -->
<svg version="1.1" id="Layer_1" xmlns="http://www.w3.org/2000/svg" xmlns:xlink="http://www.w3.org/1999/xlink" x="0px" y="0px"
	 viewBox="0 0 67.8 67.8" style="enable-background:new 0 0 67.8 67.8;" xml:space="preserve">
<style type="text/css">
	.st0{display:none;}
	.st1{display:inline;opacity:0.5;}
	.st2{fill:none;stroke:#E62AFF;stroke-width:0.25;stroke-miterlimit:10;}
	.st3{display:inline;fill:none;stroke:#FFFFFF;stroke-width:2;stroke-miterlimit:10;}
	.st4{fill:none;stroke:#FFFFFF;stroke-width:2;stroke-linecap:round;stroke-linejoin:round;stroke-miterlimit:10;}
</style>
<g id="guide" class="st0">
	<g class="st1">
		<g>
			<g>
				<g>
					<rect x="0.1" y="0.1" class="st2" width="67.5" height="67.5"/>
					<circle class="st2" cx="33.9" cy="33.9" r="33.8"/>
					<circle class="st2" cx="33.9" cy="33.9" r="16.9"/>
					<line class="st2" x1="33.9" y1="67.6" x2="33.9" y2="0.1"/>
					<line class="st2" x1="0.1" y1="33.9" x2="67.6" y2="33.9"/>
				</g>
			</g>
		</g>
	</g>
</g>
<g id="title" class="st0">
	<rect x="-313" y="-988.9" class="st3" width="1200" height="1335"/>
</g>
<g id="icon">
	<g>
		<path class="st4" d="M44.5,10l-2,21.2c-1,10.2-9.5,18.1-19.8,18.4L19,49.7c-4.9,0-8.4,6.7-9.9,8c-2.7,2.6-4.8,0.9-5.1-0.8
			c-1.7-8.8-4.6-29.3,0.6-37.8C10.9,8.8,19.3,9.9,30.3,10H60c4.7,0,7.7,5.1,5.3,9.2L64,21.5l-4.5,10.4c-2.5,5.1-7.5,8.4-13.2,8.7
			l-7.2,0.3"/>
		<path class="st4" d="M39.4,10c0,0,3.2,7.3,3.7,14.5"/>
	</g>
</g>
</svg>
