<?xml version="1.0" encoding="utf-8"?>
<!-- Generator: Adobe Illustrator 27.0.0, SVG Export Plug-In . SVG Version: 6.00 Build 0)  -->
<svg version="1.1" id="Layer_1" xmlns="http://www.w3.org/2000/svg" xmlns:xlink="http://www.w3.org/1999/xlink" x="0px" y="0px"
	 viewBox="0 0 67.8 67.8" style="enable-background:new 0 0 67.8 67.8;" xml:space="preserve">
<style type="text/css">
	.st0{display:none;}
	.st1{display:inline;opacity:0.5;}
	.st2{fill:none;stroke:#E62AFF;stroke-width:0.25;stroke-miterlimit:10;}
	.st3{display:inline;fill:none;stroke:#FFFFFF;stroke-width:2;stroke-miterlimit:10;}
	.st4{fill:none;stroke:#FFFFFF;stroke-width:2;stroke-linecap:round;stroke-linejoin:round;stroke-miterlimit:10;}
</style>
<g id="guide" class="st0">
	<g class="st1">
		<g>
			<g>
				<g>
					<rect x="0.1" y="0.1" class="st2" width="67.5" height="67.5"/>
					<circle class="st2" cx="33.9" cy="33.9" r="33.8"/>
					<circle class="st2" cx="33.9" cy="33.9" r="16.9"/>
					<line class="st2" x1="33.9" y1="67.6" x2="33.9" y2="0.1"/>
					<line class="st2" x1="0.1" y1="33.9" x2="67.6" y2="33.9"/>
				</g>
			</g>
		</g>
	</g>
</g>
<g id="title" class="st0">
	<rect x="-819.2" y="-988.9" class="st3" width="1200" height="1335"/>
</g>
<g id="icon">
	<g>
		<path class="st4" d="M7.2,61.6c0,0,2.7-6.6,4.5-9.4c1.8-2.8,4.4-4.7,8.4-3.5c6.5,1.9,4.1,16.8,22.7,16c18.6-0.8,23-27,22.2-35.9
			S58,9,47.7,10.8c-0.7,0.1-1.3,0.3-2,0.4c-2.3-2.5-5.1-7.9-5.1-7.9"/>
		<path class="st4" d="M36.5,5.2c0,0,2.7,5.2,4.9,7.8c-5.3,3.2-7.5,9.4-5.6,17.9c2.6,11.4-4.2,12.9-7.2,12.9
			c-6.2,0-6.8-3.7-13.3-2.8C5.8,42.3,1.8,61.6,1.8,61.6"/>
	</g>
</g>
</svg>
