<?xml version="1.0" encoding="utf-8"?>
<!-- Generator: Adobe Illustrator 27.0.0, SVG Export Plug-In . SVG Version: 6.00 Build 0)  -->
<svg version="1.1" id="Layer_1" xmlns="http://www.w3.org/2000/svg" xmlns:xlink="http://www.w3.org/1999/xlink" x="0px" y="0px"
	 viewBox="0 0 67.8 67.8" style="enable-background:new 0 0 67.8 67.8;" xml:space="preserve">
<style type="text/css">
	.st0{display:none;}
	.st1{display:inline;opacity:0.5;}
	.st2{fill:none;stroke:#E62AFF;stroke-width:0.25;stroke-miterlimit:10;}
	.st3{display:inline;fill:none;stroke:#FFFFFF;stroke-width:2;stroke-miterlimit:10;}
	.st4{fill:none;stroke:#FFFFFF;stroke-width:2;stroke-linecap:round;stroke-linejoin:round;stroke-miterlimit:10;}
</style>
<g id="guide" class="st0">
	<g class="st1">
		<g>
			<g>
				<g>
					<rect x="0.1" y="0.1" class="st2" width="67.5" height="67.5"/>
					<circle class="st2" cx="33.9" cy="33.9" r="33.8"/>
					<circle class="st2" cx="33.9" cy="33.9" r="16.9"/>
					<line class="st2" x1="33.9" y1="67.6" x2="33.9" y2="0.1"/>
					<line class="st2" x1="0.1" y1="33.9" x2="67.6" y2="33.9"/>
				</g>
			</g>
		</g>
	</g>
</g>
<g id="title" class="st0">
	<rect x="-650.5" y="-988.9" class="st3" width="1200" height="1335"/>
</g>
<g id="icon">
	<g>
		<path class="st4" d="M22.4,31.2c-1.2,8.2,5.5,14.9-2.3,19.9c-6.8,4.3-18.9-5.8-16.5-22.5S20.5,5.4,25.7,11.5
			C31.5,18.2,23.6,22.6,22.4,31.2z"/>
		<path class="st4" d="M45.6,31.2c1.2,8.2-5.5,14.9,2.3,19.9c6.8,4.3,18.9-5.8,16.5-22.5C62,11.8,47.5,5.4,42.3,11.5
			C36.5,18.2,44.4,22.6,45.6,31.2z"/>
		<path class="st4" d="M22.6,31.2c0,0,11.1-0.1,11.8,14.3c0,0,1-13.9,10.9-14.4"/>
		<line class="st4" x1="34.4" y1="45.8" x2="34.4" y2="64.8"/>
		<path class="st4" d="M24.8,25.8c0,0,2,1.8,2.2,6.2c0,0-0.7,3.3-3.7,4.8"/>
		<path class="st4" d="M43,25.6c0,0-3,2.8-1.8,6.7c1.2,3.8,4.2,3.8,4.2,3.8"/>
	</g>
</g>
</svg>
