<?xml version="1.0" encoding="utf-8"?>
<!-- Generator: Adobe Illustrator 27.0.0, SVG Export Plug-In . SVG Version: 6.00 Build 0)  -->
<svg version="1.1" id="Layer_1" xmlns="http://www.w3.org/2000/svg" xmlns:xlink="http://www.w3.org/1999/xlink" x="0px" y="0px"
	 viewBox="0 0 67.8 67.8" style="enable-background:new 0 0 67.8 67.8;" xml:space="preserve">
<style type="text/css">
	.st0{display:none;}
	.st1{display:inline;opacity:0.5;}
	.st2{fill:none;stroke:#E62AFF;stroke-width:0.25;stroke-miterlimit:10;}
	.st3{display:inline;fill:none;stroke:#FFFFFF;stroke-width:2;stroke-miterlimit:10;}
	.st4{fill:none;stroke:#FFFFFF;stroke-width:2;stroke-linecap:round;stroke-linejoin:round;stroke-miterlimit:10;}
</style>
<g id="guide" class="st0">
	<g class="st1">
		<g>
			<g>
				<g>
					<rect x="0.1" y="0.1" class="st2" width="67.5" height="67.5"/>
					<circle class="st2" cx="33.9" cy="33.9" r="33.8"/>
					<circle class="st2" cx="33.9" cy="33.9" r="16.9"/>
					<line class="st2" x1="33.9" y1="67.6" x2="33.9" y2="0.1"/>
					<line class="st2" x1="0.1" y1="33.9" x2="67.6" y2="33.9"/>
				</g>
			</g>
		</g>
	</g>
</g>
<g id="title" class="st0">
	<rect x="-481.8" y="-988.9" class="st3" width="1200" height="1335"/>
</g>
<g id="icon">
	<g>
		<path class="st4" d="M40.7,17.5v31.4c0,3.2,1.9,7,4.6,7.7l3.3,0.1c1.8,0,3.6,0.8,5.1,2l3,2.6c3.6,2.1,7.8-0.5,8.4-5.1V40.3
			c0-18.2-20.3-26-20.3-26C42.8,13.4,40.7,15.1,40.7,17.5z"/>
		<path class="st4" d="M27.1,17.5v31.4c0,3.2-1.9,7-4.6,7.7l-3.3,0.1c-1.9,0-3.6,0.8-5.1,2l-3,2.6c-3.6,2.1-7.8-0.5-8.4-5.1V40.3
			c0-18.2,20.3-26,20.3-26C25,13.4,27.1,15.1,27.1,17.5z"/>
		<line class="st4" x1="33.9" y1="4.5" x2="33.9" y2="19.5"/>
		<polyline class="st4" points="27.4,31.5 33.9,19.5 40.1,31.5 		"/>
	</g>
</g>
</svg>
