<svg width="38" height="55" viewBox="0 0 38 55" fill="none" xmlns="http://www.w3.org/2000/svg">
<path fill-rule="evenodd" clip-rule="evenodd" d="M9.61845 10.1922C9.74606 10.0642 9.89766 9.96274 10.0646 9.89348C10.2315 9.82422 10.4104 9.78857 10.5911 9.78857C10.7718 9.78857 10.9507 9.82422 11.1176 9.89348C11.2845 9.96274 11.4361 10.0642 11.5637 10.1922L28.0493 26.6777C28.1772 26.8053 28.2787 26.9569 28.348 27.1238C28.4172 27.2907 28.4529 27.4697 28.4529 27.6504C28.4529 27.8311 28.4172 28.01 28.348 28.1769C28.2787 28.3438 28.1772 28.4954 28.0493 28.623L11.5637 45.1086C11.3058 45.3665 10.9559 45.5115 10.5911 45.5115C10.2263 45.5115 9.87641 45.3665 9.61845 45.1086C9.36048 44.8506 9.21556 44.5007 9.21556 44.1359C9.21556 43.7711 9.36048 43.4212 9.61845 43.1633L25.1341 27.6504L9.61845 12.1375C9.49051 12.0099 9.38901 11.8583 9.31975 11.6914C9.25049 11.5245 9.21484 11.3455 9.21484 11.1648C9.21484 10.9841 9.25049 10.8052 9.31975 10.6383C9.38901 10.4714 9.49051 10.3198 9.61845 10.1922Z" fill="#F17522"/>
</svg>
