<svg width="23" height="19" viewBox="0 0 23 19" fill="none" xmlns="http://www.w3.org/2000/svg">
<g clip-path="url(#clip0_552_936)">
<path d="M21.9822 11.7623C21.642 11.7623 21.3659 12.0825 21.3659 12.4771C21.3659 13.4664 21.0922 14.4129 20.6041 15.1935C20.6657 14.5902 20.6978 13.964 20.6978 13.312C20.6978 8.95157 19.0436 4.84273 16.1592 2.03773C15.2125 1.11703 14.0686 0.490837 12.8483 0.227779L12.8187 0.22206C11.5787 -0.0409975 10.3041 0.565179 9.56949 1.76895C9.29831 2.21501 9.0715 2.61245 8.89647 2.947C8.63761 3.44166 8.59817 4.05641 8.79293 4.58825C8.83484 4.70548 8.87921 4.81985 8.92359 4.93708C8.77567 5.20872 8.60803 5.49751 8.40095 5.82919C8.22344 6.11513 8.15935 6.47254 8.23084 6.81566C8.29987 7.15878 8.49709 7.45043 8.76827 7.61055C9.02959 7.76781 9.31557 7.92794 9.51032 8.03659C10.0921 8.35969 10.775 8.33396 11.3371 7.96797C11.4752 7.87933 11.6132 7.79069 11.7562 7.70777C11.6477 8.18528 11.5171 8.65992 11.3642 9.11742C10.9328 10.4184 11.0881 11.8566 11.7833 12.9689C11.8597 13.089 11.9337 13.212 12.0052 13.3349V16.423H11.6748C11.3346 16.423 11.0585 16.7432 11.0585 17.1378C11.0585 17.5324 11.3346 17.8526 11.6748 17.8526H12.6215C12.9617 17.8526 13.2378 17.5324 13.2378 17.1378V13.1205C13.2378 12.9804 13.2033 12.846 13.1368 12.7287C13.0209 12.5257 12.9026 12.3256 12.7793 12.1283C12.3306 11.4106 12.2295 10.4785 12.513 9.63209C12.73 8.97731 12.91 8.29679 13.0431 7.61341C13.1343 7.15306 12.9913 6.68127 12.6733 6.3839C12.3553 6.08653 11.9288 6.02649 11.5614 6.22664C11.2804 6.37818 11.0018 6.54688 10.7331 6.7213C10.5211 6.85855 10.2647 6.86713 10.0428 6.74418C9.90477 6.66698 9.71987 6.56404 9.53251 6.45253C9.78397 6.04078 9.98119 5.68623 10.1587 5.32881C10.2598 5.12294 10.2672 4.87418 10.1784 4.65973C10.0921 4.451 10.0083 4.23941 9.93189 4.02782C9.88998 3.91631 9.89984 3.78764 9.95408 3.68184C10.1143 3.37589 10.3239 3.00704 10.5778 2.58958C11.0363 1.83758 11.8277 1.46015 12.5944 1.62313L12.6314 1.63171C12.6782 1.64314 12.7226 1.65458 12.7694 1.66602C12.6733 1.88905 12.6758 2.16068 12.8039 2.38371C13.0234 2.76686 13.3192 3.08996 13.6594 3.32157C13.6865 3.34158 13.7038 3.37303 13.7038 3.41307C13.7038 3.73617 13.6224 4.04212 13.4696 4.30517C12.8952 4.10216 12.4884 3.47597 12.4884 2.76686C12.4884 2.73541 12.4884 2.70109 12.4909 2.66964C12.5106 2.27505 12.2517 1.93765 11.914 1.91192C11.5738 1.88619 11.2829 2.18927 11.2607 2.581C11.2582 2.64105 11.2557 2.70109 11.2557 2.764C11.2557 4.1908 12.1285 5.44033 13.3315 5.73484C13.403 5.75199 13.477 5.76057 13.5485 5.76057C13.8616 5.76057 14.1599 5.59759 14.3595 5.30594C14.7293 4.77124 14.934 4.09644 14.934 3.40163C14.934 3.10426 14.8551 2.81833 14.7195 2.57528C14.9463 2.74112 15.1657 2.92412 15.3728 3.12427C17.9761 5.65477 19.4701 9.36618 19.4701 13.3035C19.4701 14.6188 19.3345 15.8054 19.0559 16.9319C18.9869 17.2122 19.0707 17.5124 19.2679 17.6925C19.3789 17.7926 19.5145 17.8441 19.6476 17.8441C19.7536 17.8441 19.8596 17.8126 19.9533 17.7497C21.5878 16.6632 22.6035 14.6388 22.6035 12.4657C22.6035 12.0711 22.3273 11.7509 21.9871 11.7509L21.9822 11.7623Z" fill="#F17522"/>
<path d="M16.9137 12.0913C15.7599 12.0913 14.8231 13.1807 14.8231 14.516C14.8231 15.2509 15.0894 15.9028 15.4148 16.4232H14.621C14.2808 16.4232 14.0046 16.7434 14.0046 17.138C14.0046 17.5326 14.2808 17.8528 14.621 17.8528H16.9161C17.1849 17.8528 17.424 17.6498 17.5029 17.3496C17.5842 17.0522 17.4856 16.7263 17.2637 16.549C16.9285 16.2802 16.0558 15.3938 16.0558 14.516C16.0558 13.967 16.4403 13.521 16.9137 13.521C17.387 13.521 17.7716 13.967 17.7716 14.516C17.7716 14.9106 18.0477 15.2308 18.3879 15.2308C18.7281 15.2308 19.0042 14.9106 19.0042 14.516C19.0042 13.1779 18.065 12.0913 16.9137 12.0913Z" fill="#F17522"/>
<path d="M10.4666 16.4346C10.7156 15.085 10.7921 13.6038 10.691 12.0998C10.6811 11.9569 10.6688 11.811 10.6515 11.6652C10.7945 11.1763 10.866 10.6673 10.866 10.1469V10.0926C10.8586 9.312 10.3754 8.64864 9.71719 8.51711C9.66788 8.50853 9.62104 8.49709 9.57174 8.4828C9.19701 7.9481 8.74833 7.56781 8.23062 7.34479C8.07531 7.27902 7.9052 7.2876 7.75482 7.36766C7.60444 7.44772 7.49104 7.59641 7.4368 7.77654C7.36038 8.02245 7.30367 8.27693 7.26423 8.53427C7.08426 8.45706 6.89937 8.39416 6.71201 8.34555C6.52957 8.2998 6.33728 8.35127 6.19183 8.48852L6.1228 8.55428C5.97982 8.69153 5.896 8.89454 5.896 9.10899V9.18333C5.896 9.86099 6.0735 10.5387 6.40384 11.1391C6.47534 11.2706 6.5419 11.4079 6.59614 11.5509C6.6627 11.7196 6.60353 11.9168 6.46055 12.0026C6.13266 12.1971 5.70863 12.3143 5.26488 12.3314C5.19832 12.3314 5.11203 12.3314 5.0578 12.3257C4.7595 12.2886 4.45627 12.3114 4.16043 12.3915C3.62547 12.5373 3.12255 12.8347 2.70098 13.2464C2.67387 13.2722 2.64921 13.3036 2.62703 13.3351C2.11178 13.8984 1.8406 14.6847 1.88498 15.511C1.88498 15.5539 1.88991 15.5968 1.89484 15.6397C1.74692 15.5854 1.64831 15.4881 1.58175 15.4024C1.44615 15.2194 1.38206 14.9706 1.40671 14.7161C1.44369 14.313 1.64338 13.9041 1.93921 13.6239C2.00577 13.561 2.09699 13.5009 2.1956 13.4351C2.51855 13.2207 3.05845 12.8576 3.11269 11.994C3.13981 11.568 3.01408 11.162 2.75769 10.8503C2.4939 10.5301 2.11671 10.3499 1.73706 10.3614C1.20456 10.3757 0.76327 10.7703 0.617818 11.365C0.524137 11.7453 0.713964 12.1399 1.04185 12.2485C1.3574 12.3543 1.68775 12.1513 1.79376 11.7939C1.82581 11.7996 1.85046 11.8196 1.86525 11.8368C1.88251 11.8597 1.88498 11.8768 1.88251 11.8911C1.87758 11.9712 1.87511 11.9998 1.57928 12.1971C1.44862 12.2828 1.30317 12.3829 1.16018 12.5173C0.610422 13.0348 0.252956 13.7811 0.181463 14.5617C0.11983 15.2108 0.2924 15.8599 0.652332 16.3402C1.00733 16.8149 1.50532 17.0894 2.05755 17.1094C2.05755 17.1094 2.06001 17.1094 2.06248 17.1094C2.06741 17.1094 2.07234 17.1094 2.07727 17.1094C2.08466 17.1094 2.09206 17.1094 2.09946 17.1065C2.20793 17.1065 2.3164 17.1008 2.42487 17.0808C2.53828 17.238 2.66647 17.3839 2.80946 17.5097C3.24088 17.8928 3.76845 18.0958 4.30342 18.0958C4.47106 18.0958 4.63623 18.0758 4.80387 18.0358C5.08492 17.9672 5.37335 17.8271 5.62481 17.6298C6.0094 17.767 6.43096 17.8414 6.86485 17.8414C7.16069 17.8414 7.45406 17.807 7.73263 17.7413C8.06545 17.6612 8.28239 17.2838 8.21336 16.8978C8.14434 16.5118 7.81892 16.2602 7.4861 16.3402C7.13603 16.4231 6.75145 16.4317 6.39645 16.3688C6.41124 16.2745 6.4211 16.1801 6.4211 16.08C6.4211 14.8448 5.48429 14.1986 4.55981 14.1986C4.10127 14.1986 3.66245 14.353 3.28772 14.6303C3.34689 14.5217 3.42085 14.4216 3.50713 14.333C3.52439 14.3158 3.54165 14.2958 3.55644 14.2758C3.81776 14.0385 4.12345 13.864 4.44394 13.7783C4.60419 13.7354 4.76689 13.7211 4.92714 13.7411C5.03808 13.7554 5.18599 13.7611 5.31172 13.7554C5.75054 13.7382 6.40138 13.6382 7.02263 13.2722C7.75482 12.8375 8.06052 11.8196 7.71784 10.9504C7.63895 10.7502 7.54527 10.5529 7.44173 10.3642C7.38749 10.2642 7.34065 10.1641 7.29874 10.0611C7.42694 10.0726 7.5576 10.0354 7.671 9.95249C7.79673 9.86099 7.92986 9.77807 8.06791 9.70945C8.2676 9.60937 8.40566 9.39778 8.43524 9.15188C8.53139 9.26053 8.6226 9.38348 8.70642 9.52073C8.78531 9.6494 8.89871 9.74376 9.02937 9.78951C9.18222 9.84383 9.34 9.88672 9.49778 9.91818C9.56927 9.93247 9.62351 10.0125 9.62597 10.1012V10.1412C9.62597 10.5501 9.56188 10.9504 9.43615 11.3278C9.3967 11.4451 9.38684 11.5709 9.40163 11.6938C9.42382 11.8625 9.44108 12.0341 9.4534 12.2028C9.56681 13.8783 9.43861 15.511 9.07868 16.9264C9.02198 17.1437 9.06142 17.381 9.17976 17.5611C9.29809 17.7413 9.48792 17.8471 9.68268 17.8414C9.83799 17.8385 9.97111 17.8414 10.1067 17.8414H10.3384C10.6787 17.8414 10.9548 17.524 10.9548 17.1265C10.9548 16.7777 10.7403 16.4889 10.4568 16.426L10.4666 16.4346ZM3.63533 16.2058C3.84734 15.8427 4.18509 15.6368 4.56474 15.6368C4.57214 15.6368 5.19339 15.6425 5.19339 16.0886C5.19339 16.283 4.86797 16.569 4.55735 16.6433C4.20727 16.7262 3.84488 16.6319 3.56384 16.3802C3.55644 16.3745 3.54904 16.366 3.54165 16.3602C3.5737 16.3116 3.60575 16.263 3.63779 16.2087L3.63533 16.2058Z" fill="#F17522"/>
</g>
<defs>
<clipPath id="clip0_552_936">
<rect width="22.4242" height="17.9394" fill="white" transform="translate(0.174316 0.15918)"/>
</clipPath>
</defs>
</svg>
