<svg width="23" height="19" viewBox="0 0 23 19" fill="none" xmlns="http://www.w3.org/2000/svg">
<g clip-path="url(#clip0_552_2027)">
<path d="M21.9237 9.22546C22.798 7.20465 22.8277 5.07887 21.9921 3.34967C21.2577 1.8275 19.8987 0.754406 18.168 0.322834C15.7297 -0.283699 12.9166 0.827307 11.3881 2.97059C9.85968 0.827307 7.04662 -0.280783 4.60823 0.322834C2.65157 0.80981 1.21233 2.07828 0.55218 3.89788C-0.274493 6.18113 0.269684 8.91053 2.00926 11.1967C2.55047 11.9082 3.1333 12.5993 3.73992 13.2437C3.90942 13.4245 4.15326 13.5091 4.40305 13.4683C4.64986 13.4304 4.85801 13.2758 4.96209 13.0542C5.69956 11.4854 6.79683 10.319 7.92681 9.89032C7.92681 10.1615 8.03981 10.3715 8.27176 10.5318C8.75943 10.8497 9.07167 11.3629 9.12519 11.9374C9.14303 12.1123 9.22332 12.2727 9.35119 12.3952C9.36308 12.4068 9.37795 12.4185 9.38985 12.4302C9.07761 12.7918 8.57804 12.9434 8.10523 12.8093C7.86734 12.7422 7.61161 12.7947 7.4213 12.9492C7.23098 13.1067 7.13285 13.3429 7.15961 13.5849C7.33506 15.215 8.87541 16.3726 10.2611 16.9092C10.4306 16.9763 10.6328 17.0375 10.7904 17.0754C11.0194 17.1279 11.2395 17.2183 11.4417 17.3408C11.6885 17.4895 11.9174 17.6703 12.1196 17.8773C12.2624 18.0202 12.4497 18.0989 12.6549 18.0989C12.8601 18.0989 13.0326 18.026 13.1723 17.8948C13.4667 17.6149 13.4756 17.1541 13.1902 16.8625C13.0445 16.7138 12.8869 16.5768 12.7233 16.4455C12.9761 15.9702 13.3032 15.5357 13.6987 15.1537C14.6116 14.2731 15.2122 13.1009 15.3936 11.8557C15.4293 11.6079 15.465 11.3775 15.4918 11.2113C15.575 10.7097 15.4323 10.2286 15.1111 9.92239C14.8316 9.65412 14.4421 9.54622 14.0406 9.62204C13.6778 9.68911 13.3091 9.77367 12.9463 9.8699C12.6638 9.94572 12.3605 9.87865 12.1345 9.69203C11.9918 9.57538 11.8044 9.41792 11.6112 9.25462C12.0126 8.92219 12.3308 8.63059 12.6311 8.32732C12.8036 8.15236 12.875 7.90742 12.8274 7.67122C12.7798 7.43794 12.7352 7.20465 12.6995 6.97137C12.6817 6.8489 12.7233 6.72351 12.8155 6.63603C13.0801 6.37942 13.4221 6.07615 13.8265 5.73789C14.5521 5.13136 15.578 4.98556 16.4344 5.37339L16.4701 5.39089C16.5206 5.41422 16.5712 5.44046 16.6217 5.4667C16.4522 5.65916 16.3839 5.93035 16.476 6.18696C16.6336 6.62728 16.8953 7.03552 17.2343 7.36504C17.2611 7.39128 17.273 7.42919 17.2611 7.4671C17.1778 7.78494 17.0053 8.06488 16.7585 8.28067C16.14 7.91325 15.8248 7.16966 16.0062 6.47565C16.0151 6.44066 16.024 6.40858 16.0359 6.3765C16.1608 5.9945 15.9408 5.58334 15.5512 5.46087C15.1617 5.3384 14.7424 5.55127 14.6175 5.93618C14.5997 5.9945 14.5818 6.05282 14.567 6.11406C14.2012 7.52542 14.9 9.01551 16.2292 9.65703C16.4017 9.7416 16.595 9.78534 16.7853 9.78534C17.0589 9.78534 17.3206 9.69786 17.5436 9.53456C18.1145 9.11174 18.5249 8.5052 18.7033 7.81994C18.7806 7.52542 18.7598 7.21923 18.6646 6.9393C18.8877 7.16966 19.0958 7.41461 19.2861 7.67414C19.8957 8.50229 20.4102 9.40042 20.8146 10.3423C20.8919 10.5231 21.0346 10.6601 21.219 10.736C21.4034 10.8089 21.6056 10.8089 21.787 10.733C22.1646 10.5756 22.343 10.1498 22.1825 9.77659C22.1022 9.58996 22.013 9.40334 21.9237 9.21963V9.22546ZM11.2276 7.19591C11.2484 7.3213 11.2692 7.4496 11.293 7.57791C11.0551 7.80244 10.7845 8.03572 10.4514 8.30691C10.1689 8.53728 10.0054 8.87262 9.99944 9.23129C9.9935 9.58996 10.1481 9.93406 10.4217 10.1732C10.6864 10.4035 10.9778 10.6456 11.18 10.8118C11.7777 11.3017 12.5835 11.4766 13.3329 11.2783C13.5529 11.22 13.7789 11.1675 14.002 11.1209C13.9782 11.2754 13.9514 11.4591 13.9217 11.6545C13.7879 12.5847 13.3388 13.4595 12.6579 14.1156C12.1613 14.5939 11.7509 15.1392 11.4268 15.7369C11.3316 15.7049 11.2335 15.6786 11.1324 15.6553C11.0491 15.6349 10.9124 15.5941 10.8112 15.5532C10.0292 15.25 9.36308 14.7747 8.98543 14.2614C9.91321 14.0777 10.6953 13.4216 11.0135 12.541L11.0402 12.4593C11.1413 12.1532 11.0253 11.8236 10.7577 11.6399C10.6923 11.5962 10.6269 11.5466 10.5644 11.497C10.4306 10.7855 10.0678 10.1353 9.53258 9.64828C9.59503 9.51123 9.66045 9.37709 9.6991 9.30711C9.81805 9.08841 9.80616 8.82305 9.67234 8.59852C9.54448 8.38273 9.30064 8.24568 9.04193 8.23693C6.57381 8.17569 4.94128 10.1586 4.13542 11.4737C3.81427 11.1005 3.49906 10.7126 3.2017 10.3219C1.78327 8.45563 1.30451 6.17821 1.95574 4.38194C2.44342 3.03474 3.51393 2.09578 4.97399 1.73127C7.22801 1.16848 9.79426 2.53027 10.6982 4.75811C10.8112 5.03805 11.0818 5.21884 11.3881 5.21884C11.6944 5.21884 11.965 5.03805 12.078 4.75811C12.982 2.52735 15.5512 1.1714 17.8023 1.73127C19.1137 2.05787 20.0979 2.83062 20.6481 3.96787C21.1447 4.99722 21.2398 6.22487 20.9454 7.47585C20.7997 7.25423 20.6481 7.03261 20.4905 6.81974C19.6192 5.63292 18.4446 4.68229 17.0946 4.06701L17.0529 4.04952C15.6702 3.42549 14.0258 3.65294 12.8601 4.6298C12.4259 4.99139 12.0602 5.31799 11.7717 5.59792C11.3435 6.012 11.1413 6.60687 11.2305 7.19007L11.2276 7.19591Z" fill="#3F3F3F"/>
</g>
<defs>
<clipPath id="clip0_552_2027">
<rect width="22.4242" height="17.9394" fill="white" transform="translate(0.174316 0.15918)"/>
</clipPath>
</defs>
</svg>
