<svg width="23" height="19" viewBox="0 0 23 19" fill="none" xmlns="http://www.w3.org/2000/svg">
<g clip-path="url(#clip0_157_2397)">
<path d="M21.9822 11.7623C21.642 11.7623 21.3659 12.0825 21.3659 12.4771C21.3659 13.4664 21.0922 14.4129 20.6041 15.1935C20.6657 14.5902 20.6978 13.964 20.6978 13.312C20.6978 8.95157 19.0436 4.84273 16.1592 2.03773C15.2125 1.11703 14.0686 0.490837 12.8483 0.227779L12.8187 0.22206C11.5787 -0.0409975 10.3041 0.565179 9.56949 1.76895C9.29831 2.21501 9.0715 2.61245 8.89647 2.947C8.63761 3.44166 8.59817 4.05641 8.79293 4.58825C8.83484 4.70548 8.87921 4.81985 8.92359 4.93708C8.77567 5.20872 8.60803 5.49751 8.40095 5.82919C8.22344 6.11513 8.15935 6.47254 8.23084 6.81566C8.29987 7.15878 8.49709 7.45043 8.76827 7.61055C9.02959 7.76781 9.31557 7.92794 9.51032 8.03659C10.0921 8.35969 10.775 8.33396 11.3371 7.96797C11.4752 7.87933 11.6132 7.79069 11.7562 7.70777C11.6477 8.18528 11.5171 8.65992 11.3642 9.11742C10.9328 10.4184 11.0881 11.8566 11.7833 12.9689C11.8597 13.089 11.9337 13.212 12.0052 13.3349V16.423H11.6748C11.3346 16.423 11.0585 16.7432 11.0585 17.1378C11.0585 17.5324 11.3346 17.8526 11.6748 17.8526H12.6215C12.9617 17.8526 13.2378 17.5324 13.2378 17.1378V13.1205C13.2378 12.9804 13.2033 12.846 13.1368 12.7287C13.0209 12.5257 12.9026 12.3256 12.7793 12.1283C12.3306 11.4106 12.2295 10.4785 12.513 9.63209C12.73 8.97731 12.91 8.29679 13.0431 7.61341C13.1343 7.15306 12.9913 6.68127 12.6733 6.3839C12.3553 6.08653 11.9288 6.02649 11.5614 6.22664C11.2804 6.37818 11.0018 6.54688 10.7331 6.7213C10.5211 6.85855 10.2647 6.86713 10.0428 6.74418C9.90477 6.66698 9.71987 6.56404 9.53251 6.45253C9.78397 6.04078 9.98119 5.68623 10.1587 5.32881C10.2598 5.12294 10.2672 4.87418 10.1784 4.65973C10.0921 4.451 10.0083 4.23941 9.93189 4.02782C9.88998 3.91631 9.89984 3.78764 9.95408 3.68184C10.1143 3.37589 10.3239 3.00704 10.5778 2.58958C11.0363 1.83758 11.8277 1.46015 12.5944 1.62313L12.6314 1.63171C12.6782 1.64314 12.7226 1.65458 12.7694 1.66602C12.6733 1.88905 12.6758 2.16068 12.8039 2.38371C13.0234 2.76686 13.3192 3.08996 13.6594 3.32157C13.6865 3.34158 13.7038 3.37303 13.7038 3.41307C13.7038 3.73617 13.6224 4.04212 13.4696 4.30517C12.8952 4.10216 12.4884 3.47597 12.4884 2.76686C12.4884 2.73541 12.4884 2.70109 12.4909 2.66964C12.5106 2.27505 12.2517 1.93765 11.914 1.91192C11.5738 1.88619 11.2829 2.18927 11.2607 2.581C11.2582 2.64105 11.2557 2.70109 11.2557 2.764C11.2557 4.1908 12.1285 5.44033 13.3315 5.73484C13.403 5.75199 13.477 5.76057 13.5485 5.76057C13.8616 5.76057 14.1599 5.59759 14.3595 5.30594C14.7293 4.77124 14.934 4.09644 14.934 3.40163C14.934 3.10426 14.8551 2.81833 14.7195 2.57528C14.9463 2.74112 15.1657 2.92412 15.3728 3.12427C17.9761 5.65477 19.4701 9.36618 19.4701 13.3035C19.4701 14.6188 19.3345 15.8054 19.0559 16.9319C18.9869 17.2122 19.0707 17.5124 19.2679 17.6925C19.3789 17.7926 19.5145 17.8441 19.6476 17.8441C19.7536 17.8441 19.8596 17.8126 19.9533 17.7497C21.5878 16.6632 22.6035 14.6388 22.6035 12.4657C22.6035 12.0711 22.3273 11.7509 21.9871 11.7509L21.9822 11.7623Z" fill="#F17522"/>
<path d="M16.9129 12.0913C15.7592 12.0913 14.8224 13.1807 14.8224 14.516C14.8224 15.2509 15.0886 15.9028 15.4141 16.4232H14.6202C14.28 16.4232 14.0039 16.7434 14.0039 17.138C14.0039 17.5326 14.28 17.8528 14.6202 17.8528H16.9154C17.1841 17.8528 17.4233 17.6498 17.5021 17.3496C17.5835 17.0522 17.4849 16.7263 17.263 16.549C16.9277 16.2802 16.055 15.3938 16.055 14.516C16.055 13.967 16.4396 13.521 16.9129 13.521C17.3863 13.521 17.7709 13.967 17.7709 14.516C17.7709 14.9106 18.047 15.2308 18.3872 15.2308C18.7274 15.2308 19.0035 14.9106 19.0035 14.516C19.0035 13.1779 18.0642 12.0913 16.9129 12.0913Z" fill="#F17522"/>
<path d="M10.4664 16.4347C10.7154 15.0851 10.7918 13.604 10.6907 12.1C10.6809 11.957 10.6685 11.8112 10.6513 11.6653C10.7943 11.1764 10.8658 10.6674 10.8658 10.147V10.0927C10.8584 9.31212 10.3752 8.64876 9.71694 8.51723C9.66764 8.50865 9.6208 8.49722 9.57149 8.48292C9.19677 7.94823 8.74809 7.56794 8.23038 7.34491C8.07506 7.27914 7.90496 7.28772 7.75458 7.36778C7.60419 7.44784 7.49079 7.59653 7.43656 7.77667C7.36013 8.02257 7.30343 8.27705 7.26399 8.53439C7.08402 8.45719 6.89912 8.39428 6.71176 8.34567C6.52933 8.29992 6.33704 8.35139 6.19159 8.48864L6.12256 8.5544C5.97957 8.69165 5.89575 8.89466 5.89575 9.10911V9.18345C5.89575 9.86111 6.07325 10.5388 6.4036 11.1392C6.47509 11.2708 6.54166 11.408 6.59589 11.551C6.66246 11.7197 6.60329 11.917 6.4603 12.0027C6.13242 12.1972 5.70839 12.3144 5.26464 12.3316C5.19808 12.3316 5.11179 12.3316 5.05755 12.3258C4.75925 12.2887 4.45602 12.3116 4.16019 12.3916C3.62522 12.5374 3.1223 12.8348 2.70074 13.2466C2.67362 13.2723 2.64897 13.3037 2.62678 13.3352C2.11154 13.8985 1.84036 14.6848 1.88473 15.5111C1.88473 15.554 1.88966 15.5969 1.89459 15.6398C1.74668 15.5855 1.64806 15.4883 1.5815 15.4025C1.44591 15.2195 1.38181 14.9707 1.40647 14.7162C1.44344 14.3131 1.64313 13.9042 1.93897 13.624C2.00553 13.5611 2.09675 13.501 2.19536 13.4353C2.51831 13.2208 3.05821 12.8577 3.11244 11.9942C3.13956 11.5681 3.01383 11.1621 2.75744 10.8504C2.49366 10.5302 2.11647 10.3501 1.73681 10.3615C1.20431 10.3758 0.763026 10.7704 0.617574 11.3651C0.523893 11.7454 0.71372 12.14 1.0416 12.2486C1.35716 12.3544 1.68751 12.1514 1.79352 11.794C1.82556 11.7997 1.85022 11.8197 1.86501 11.8369C1.88227 11.8598 1.88473 11.8769 1.88227 11.8912C1.87734 11.9713 1.87487 11.9999 1.57904 12.1972C1.44838 12.283 1.30292 12.383 1.15994 12.5174C0.610178 13.035 0.252712 13.7812 0.181218 14.5618C0.119586 15.2109 0.292156 15.86 0.652088 16.3403C1.00709 16.815 1.50508 17.0895 2.0573 17.1095C2.0573 17.1095 2.05977 17.1095 2.06223 17.1095C2.06716 17.1095 2.07209 17.1095 2.07702 17.1095C2.08442 17.1095 2.09182 17.1095 2.09921 17.1066C2.20768 17.1066 2.31616 17.1009 2.42463 17.0809C2.53803 17.2382 2.66623 17.384 2.80921 17.5098C3.24064 17.893 3.76821 18.096 4.30318 18.096C4.47082 18.096 4.63599 18.0759 4.80363 18.0359C5.08467 17.9673 5.37311 17.8272 5.62457 17.6299C6.00915 17.7671 6.43072 17.8415 6.86461 17.8415C7.16044 17.8415 7.45381 17.8072 7.73239 17.7414C8.0652 17.6613 8.28215 17.2839 8.21312 16.8979C8.14409 16.5119 7.81867 16.2603 7.48586 16.3403C7.13579 16.4233 6.75121 16.4318 6.3962 16.3689C6.411 16.2746 6.42086 16.1802 6.42086 16.0801C6.42086 14.8449 5.48405 14.1987 4.55957 14.1987C4.10102 14.1987 3.6622 14.3531 3.28748 14.6305C3.34665 14.5218 3.4206 14.4217 3.50689 14.3331C3.52415 14.3159 3.5414 14.2959 3.5562 14.2759C3.81752 14.0386 4.12321 13.8642 4.4437 13.7784C4.60394 13.7355 4.76665 13.7212 4.92689 13.7412C5.03783 13.7555 5.18575 13.7612 5.31148 13.7555C5.7503 13.7384 6.40114 13.6383 7.02239 13.2723C7.75458 12.8377 8.06027 11.8197 7.7176 10.9505C7.63871 10.7504 7.54503 10.5531 7.44149 10.3644C7.38725 10.2643 7.34041 10.1642 7.2985 10.0613C7.42669 10.0727 7.55735 10.0355 7.67076 9.95261C7.79649 9.86111 7.92961 9.77819 8.06767 9.70957C8.26736 9.60949 8.40541 9.3979 8.435 9.152C8.53114 9.26066 8.62236 9.38361 8.70618 9.52085C8.78507 9.64952 8.89847 9.74388 9.02913 9.78963C9.18198 9.84396 9.33976 9.88685 9.49753 9.9183C9.56903 9.9326 9.62326 10.0127 9.62573 10.1013V10.1413C9.62573 10.5502 9.56163 10.9505 9.4359 11.3279C9.39646 11.4452 9.3866 11.571 9.40139 11.6939C9.42358 11.8626 9.44083 12.0342 9.45316 12.2029C9.56656 13.8785 9.43837 15.5111 9.07844 16.9265C9.02173 17.1438 9.06118 17.3811 9.17951 17.5613C9.29785 17.7414 9.48767 17.8472 9.68243 17.8415C9.83774 17.8386 9.97087 17.8415 10.1065 17.8415H10.3382C10.6784 17.8415 10.9545 17.5241 10.9545 17.1267C10.9545 16.7778 10.74 16.489 10.4565 16.4261L10.4664 16.4347ZM3.63508 16.206C3.8471 15.8428 4.18484 15.6369 4.5645 15.6369C4.57189 15.6369 5.19315 15.6427 5.19315 16.0887C5.19315 16.2832 4.86773 16.5691 4.5571 16.6434C4.20703 16.7263 3.84463 16.632 3.56359 16.3804C3.5562 16.3747 3.5488 16.3661 3.5414 16.3604C3.57345 16.3117 3.6055 16.2631 3.63755 16.2088L3.63508 16.206Z" fill="#F17522"/>
</g>
<defs>
<clipPath id="clip0_157_2397">
<rect width="22.4242" height="17.9394" fill="white" transform="translate(0.173828 0.15918)"/>
</clipPath>
</defs>
</svg>
