<svg width="48" height="51" viewBox="0 0 48 51" fill="none" xmlns="http://www.w3.org/2000/svg">
<path d="M23.9693 50.2803C23.4395 50.2803 23.009 49.8909 23.009 49.4116V37.0697C23.009 36.5904 23.4395 36.2009 23.9693 36.2009C24.4991 36.2009 24.9296 36.5904 24.9296 37.0697V49.4116C24.9296 49.8909 24.4991 50.2803 23.9693 50.2803Z" fill="#F17522"/>
<path d="M25.5919 17.9876H22.3799C21.3534 17.9876 20.5256 17.2387 20.5256 16.34V13.8537H17.6117C16.5851 13.8537 15.7573 13.1047 15.7573 12.2061V9.39019C15.7573 8.4915 16.5851 7.74259 17.6117 7.74259H20.5256V5.25623C20.5256 4.35754 21.3534 3.60864 22.3799 3.60864H25.5919C26.6184 3.60864 27.4463 4.35754 27.4463 5.25623V7.74259H30.3602C31.3867 7.74259 32.2145 8.4915 32.2145 9.39019V12.2061C32.2145 13.1047 31.3867 13.8537 30.3602 13.8537H27.4463V16.34C27.4463 17.2387 26.6184 17.9876 25.5919 17.9876ZM22.413 16.2501H25.5588V12.955C25.5588 12.4757 25.9893 12.0862 26.5191 12.0862H30.3271V9.42014H26.5191C25.9893 9.42014 25.5588 9.03071 25.5588 8.55141V5.25623H22.413V8.55141C22.413 9.03071 21.9826 9.42014 21.4528 9.42014H17.6448V12.0862H21.4528C21.9826 12.0862 22.413 12.4757 22.413 12.955V16.2501Z" fill="#558CCF"/>
<path d="M42.2809 50.2805H5.65779C5.12798 50.2805 4.69751 49.8911 4.69751 49.4118V20.2344C4.69751 19.7552 5.12798 19.3657 5.65779 19.3657H42.2809C42.8107 19.3657 43.2412 19.7552 43.2412 20.2344V49.4118C43.2412 49.8911 42.8107 50.2805 42.2809 50.2805ZM6.61808 48.543H41.3206V21.1032H6.61808V48.543Z" fill="#558CCF"/>
<path d="M46.2875 21.103H1.68416C1.15435 21.103 0.723877 20.7135 0.723877 20.2342V15.9505C0.723877 15.4712 1.15435 15.0818 1.68416 15.0818H9.92933C10.4591 15.0818 10.8896 15.4712 10.8896 15.9505C10.8896 16.4298 10.4591 16.8192 9.92933 16.8192H2.64444V19.3655H45.3273V16.8192H37.9761C37.4463 16.8192 37.0159 16.4298 37.0159 15.9505C37.0159 15.4712 37.4463 15.0818 37.9761 15.0818H46.2875C46.8173 15.0818 47.2478 15.4712 47.2478 15.9505V20.2342C47.2478 20.7135 46.8173 21.103 46.2875 21.103Z" fill="#558CCF"/>
<path d="M37.8767 21.1031H10.0948C9.56497 21.1031 9.13452 20.7137 9.13452 20.2344V1.30208C9.13452 0.822783 9.56497 0.43335 10.0948 0.43335H37.8767C38.4065 0.43335 38.837 0.822783 38.837 1.30208V20.2344C38.837 20.7137 38.4065 21.1031 37.8767 21.1031ZM11.0551 19.3657H36.9495V2.14086H11.0551V19.3657Z" fill="#558CCF"/>
<path d="M14.3664 32.9658H9.96236C9.43255 32.9658 9.00208 32.5764 9.00208 32.0971V24.8177C9.00208 24.3384 9.43255 23.949 9.96236 23.949H14.3664C14.8962 23.949 15.3267 24.3384 15.3267 24.8177V32.0971C15.3267 32.5764 14.8962 32.9658 14.3664 32.9658ZM10.8895 31.2283H13.4061V25.6565H10.8895V31.2283Z" fill="#558CCF"/>
<path d="M14.3664 45.4275H9.96236C9.43255 45.4275 9.00208 45.038 9.00208 44.5587V37.2794C9.00208 36.8001 9.43255 36.4106 9.96236 36.4106H14.3664C14.8962 36.4106 15.3267 36.8001 15.3267 37.2794V44.5587C15.3267 45.038 14.8962 45.4275 14.3664 45.4275ZM10.8895 43.69H13.4061V38.1181H10.8895V43.69Z" fill="#558CCF"/>
<path d="M26.1218 32.9658H21.7177C21.1879 32.9658 20.7574 32.5764 20.7574 32.0971V24.8177C20.7574 24.3384 21.1879 23.949 21.7177 23.949H26.1218C26.6516 23.949 27.0821 24.3384 27.0821 24.8177V32.0971C27.0821 32.5764 26.6516 32.9658 26.1218 32.9658ZM22.6449 31.2283H25.1615V25.6565H22.6449V31.2283Z" fill="#558CCF"/>
<path d="M37.8767 32.9658H33.4726C32.9428 32.9658 32.5123 32.5764 32.5123 32.0971V24.8177C32.5123 24.3384 32.9428 23.949 33.4726 23.949H37.8767C38.4065 23.949 38.8369 24.3384 38.8369 24.8177V32.0971C38.8369 32.5764 38.4065 32.9658 37.8767 32.9658ZM34.3998 31.2283H36.9164V25.6565H34.3998V31.2283Z" fill="#558CCF"/>
<path d="M37.8767 45.2177H33.4726C32.9428 45.2177 32.5123 44.8283 32.5123 44.349V37.0697C32.5123 36.5904 32.9428 36.2009 33.4726 36.2009H37.8767C38.4065 36.2009 38.8369 36.5904 38.8369 37.0697V44.349C38.8369 44.8283 38.4065 45.2177 37.8767 45.2177ZM34.3998 43.4803H36.9164V37.9084H34.3998V43.4803Z" fill="#558CCF"/>
</svg>
