<svg width="48" height="51" viewBox="0 0 48 51" fill="none" xmlns="http://www.w3.org/2000/svg">
<path d="M26.0715 32.5418C25.7333 32.5418 25.4233 32.2848 25.3106 31.8991L21.1961 14.3855L19.5052 21.5516C19.4206 21.9372 19.1106 22.1943 18.7443 22.1943H8.14798C7.72525 22.1943 7.35889 21.8087 7.35889 21.2945C7.35889 20.7804 7.69707 20.3947 8.14798 20.3947H18.1525L20.4352 10.7221C20.5197 10.3364 20.8297 10.0793 21.1961 10.0793C21.5343 10.0793 21.8443 10.3364 21.957 10.7221L26.0715 28.2357L27.7624 21.1017C27.7624 21.1017 27.8188 20.8768 27.8751 20.8125C27.9033 20.7482 27.9315 20.7161 27.9879 20.684C28.1288 20.5554 28.2979 20.459 28.4951 20.459H38.8942C39.3169 20.459 39.6833 20.8446 39.6833 21.3588C39.6833 21.873 39.3451 22.2586 38.8942 22.2586H29.1151L26.8324 31.9634C26.7479 32.349 26.4379 32.6061 26.0715 32.6061V32.5418Z" fill="#F17522"/>
<path d="M24.0142 50.2804C22.9996 50.2804 22.0414 49.8305 21.3651 48.9629L4.85063 29.0712C1.32792 24.8293 -0.0248036 18.8522 1.18701 13.0679C2.37064 7.50847 5.75244 3.10595 10.2615 1.30638C15.0524 -0.621729 20.266 0.695813 24.0142 4.74485C27.7623 0.695813 32.9477 -0.621729 37.7668 1.30638C42.2759 3.13809 45.6859 7.54061 46.8413 13.0679C48.0531 18.8522 46.7004 24.8615 43.1777 29.0712L26.6632 48.9629C25.9587 49.7984 25.0287 50.2804 24.0142 50.2804ZM14.7142 2.20617C13.3897 2.20617 12.0933 2.46325 10.797 2.97741C6.76698 4.58417 3.75154 8.5368 2.70882 13.4856C1.60974 18.6915 2.82155 24.0581 5.97789 27.85L22.4924 47.7417C22.8869 48.2238 23.4505 48.4808 24.0142 48.4808C24.606 48.4808 25.1414 48.2238 25.536 47.7417L42.0504 27.85C45.2068 24.0581 46.4186 18.6915 45.3195 13.4856C44.2768 8.50467 41.2332 4.58417 37.2314 2.97741C32.7787 1.17784 27.9314 2.55965 24.5778 6.60869C24.4369 6.8015 24.2396 6.8979 24.0142 6.8979C23.7887 6.8979 23.5914 6.8015 23.4505 6.60869C21.0833 3.74866 17.9269 2.20617 14.7142 2.20617Z" fill="#558CCF"/>
</svg>
