<svg width="47" height="51" viewBox="0 0 47 51" fill="none" xmlns="http://www.w3.org/2000/svg">
<path d="M27.0351 25.9067H19.5975C18.9542 25.9067 18.4316 25.5203 18.4316 25.0447V20.4969H12.2804C11.6372 20.4969 11.1145 20.1105 11.1145 19.6349V14.136C11.1145 13.6604 11.6372 13.274 12.2804 13.274H18.4316V8.72625C18.4316 8.25067 18.9542 7.86426 19.5975 7.86426H27.0351C27.6784 7.86426 28.201 8.25067 28.201 8.72625V13.274H34.3522C34.9954 13.274 35.5181 13.6604 35.5181 14.136V19.6349C35.5181 20.1105 34.9954 20.4969 34.3522 20.4969H28.201V25.0447C28.201 25.5203 27.6784 25.9067 27.0351 25.9067ZM20.7634 24.1827H25.8692V19.6349C25.8692 19.1594 26.3919 18.7729 27.0351 18.7729H33.1863V14.998H27.0351C26.3919 14.998 25.8692 14.6116 25.8692 14.136V9.58825H20.7634V14.136C20.7634 14.6116 20.2407 14.998 19.5975 14.998H13.4463V18.7729H19.5975C20.2407 18.7729 20.7634 19.1594 20.7634 19.6349V24.1827Z" fill="#F17522"/>
<path d="M23.3363 50.2804C22.09 50.2804 21.0045 49.8048 20.4015 49.0023L3.0335 25.9365C-1.02707 20.5565 -0.906458 14.1955 3.31492 8.90467C7.5363 3.61381 15.0142 0.43335 23.3363 0.43335C31.6585 0.43335 39.1363 3.58409 43.3577 8.90467C47.5791 14.2253 47.6595 20.5862 43.6391 25.9365L26.2712 49.0023C25.6681 49.8048 24.5826 50.2804 23.3363 50.2804ZM23.3363 2.15734C15.8584 2.15734 9.14445 5.01084 5.3251 9.76667C1.54596 14.5225 1.42535 20.2592 5.08388 25.1042L22.4518 48.17C22.7333 48.5267 23.1755 48.5564 23.3363 48.5564C23.3363 48.5564 23.9796 48.5267 24.2208 48.17L41.5888 25.1042C45.2071 20.2592 45.1267 14.5522 41.3475 9.76667C37.5684 5.01084 30.8142 2.15734 23.3363 2.15734Z" fill="#558CCF"/>
</svg>
