<svg width="47" height="51" viewBox="0 0 47 51" fill="none" xmlns="http://www.w3.org/2000/svg">
<path d="M35.7453 50.2805H1.24876C0.770052 50.2805 0.381104 49.8913 0.381104 49.4123V8.21733C0.381104 7.73832 0.770052 7.34912 1.24876 7.34912H11.4511C11.9298 7.34912 12.3188 7.73832 12.3188 8.21733V10.4926H24.7052V8.21733C24.7052 7.73832 25.0941 7.34912 25.5728 7.34912H35.7752C36.2539 7.34912 36.6428 7.73832 36.6428 8.21733V49.4123C36.6428 49.8913 36.2539 50.2805 35.7752 50.2805H35.7453ZM2.1164 48.544H34.9075V9.08554H26.4405V11.3608C26.4405 11.8398 26.0515 12.229 25.5728 12.229H11.4511C10.9724 12.229 10.5835 11.8398 10.5835 11.3608V9.08554H2.1164V48.574V48.544Z" fill="#558CCF"/>
<path d="M32.3942 17.9471H5.40732C4.92862 17.9471 4.53967 17.5579 4.53967 17.0789C4.53967 16.5999 4.92862 16.2107 5.40732 16.2107H32.3942C32.8729 16.2107 33.2618 16.5999 33.2618 17.0789C33.2618 17.5579 32.8729 17.9471 32.3942 17.9471Z" fill="#F17522"/>
<path d="M32.3942 22.9469H5.40732C4.92862 22.9469 4.53967 22.5577 4.53967 22.0787C4.53967 21.5996 4.92862 21.2104 5.40732 21.2104H32.3942C32.8729 21.2104 33.2618 21.5996 33.2618 22.0787C33.2618 22.5577 32.8729 22.9469 32.3942 22.9469Z" fill="#F17522"/>
<path d="M15.1908 27.9466H5.40732C4.92862 27.9466 4.53967 27.5574 4.53967 27.0784C4.53967 26.5994 4.92862 26.2102 5.40732 26.2102H15.1908C15.6695 26.2102 16.0585 26.5994 16.0585 27.0784C16.0585 27.5574 15.6695 27.9466 15.1908 27.9466Z" fill="#F17522"/>
<path d="M43.5541 49.1728C43.1054 49.1728 42.6865 48.8734 42.5668 48.4243L40.8614 42.9157C40.4725 41.6583 40.2631 40.3111 40.2631 38.9938V10.6723C40.2631 8.84603 41.759 7.34912 43.5841 7.34912C45.4091 7.34912 46.9051 8.84603 46.9051 10.6723V39.0237C46.9051 40.341 46.6956 41.6882 46.3067 42.9456L44.6013 48.4542C44.4517 48.9033 44.0628 49.2027 43.614 49.2027L43.5541 49.1728ZM43.5541 9.08554C42.6865 9.08554 41.9684 9.80405 41.9684 10.6723V39.0237C41.9684 40.1913 42.1479 41.329 42.4771 42.4367L43.5541 45.8796L44.6312 42.4367C44.9902 41.329 45.1398 40.1913 45.1398 39.0237V10.6723C45.1398 9.80405 44.4218 9.08554 43.5541 9.08554Z" fill="#558CCF"/>
<path d="M14.5926 3.80741H14.9746L15.075 3.43889C15.4672 1.99994 16.773 0.93335 18.3325 0.93335H18.5419C20.0778 0.93335 21.4078 1.97591 21.7988 3.4367L21.898 3.80741H22.2818H25.543C25.7452 3.80741 25.9106 3.97245 25.9106 4.17562V11.3608C25.9106 11.564 25.7452 11.729 25.543 11.729H11.4212C11.219 11.729 11.0536 11.564 11.0536 11.3608V4.17562C11.0536 3.97245 11.219 3.80741 11.4212 3.80741H14.5926ZM24.6753 10.9926H25.1753V10.4926V5.04383V4.54383H24.6753H21.5638C21.3759 4.54383 21.2087 4.387 21.1952 4.20477C21.119 2.80084 19.9405 1.6997 18.5419 1.6997H18.3325C16.9325 1.6997 15.753 2.80318 15.679 4.20924L15.6783 4.22236V4.2355C15.6783 4.37447 15.5485 4.54383 15.3107 4.54383H12.259H11.759V5.04383V10.4926V10.9926H12.259H12.2889H24.6753Z" fill="#558CCF" stroke="#558CCF"/>
<path d="M23.7778 47.2568C18.5419 47.2568 14.2935 42.8559 14.2935 37.467C14.2935 32.0782 18.5419 27.6772 23.7778 27.6772C29.0136 27.6772 33.2621 32.0782 33.2621 37.467C33.2621 42.8559 29.0136 47.2568 23.7778 47.2568ZM23.7778 29.3837C19.4994 29.3837 16.0288 33.0062 16.0288 37.467C16.0288 41.9278 19.4994 45.5503 23.7778 45.5503C28.0562 45.5503 31.5268 41.9278 31.5268 37.467C31.5268 33.0062 28.0562 29.3837 23.7778 29.3837Z" fill="#558CCF"/>
<path d="M24.9446 43.5444H22.611C21.7732 43.5444 21.0851 42.8558 21.0851 42.0176V40.1015H19.1703C18.3325 40.1015 17.6444 39.413 17.6444 38.5747V36.2395C17.6444 35.4012 18.3325 34.7127 19.1703 34.7127H21.0851V32.7966C21.0851 31.9584 21.7732 31.2698 22.611 31.2698H24.9446C25.7824 31.2698 26.4705 31.9584 26.4705 32.7966V34.7127H28.3853C29.223 34.7127 29.9112 35.4012 29.9112 36.2395V38.5747C29.9112 39.413 29.223 40.1015 28.3853 40.1015H26.4705V42.0176C26.4705 42.8558 25.7824 43.5444 24.9446 43.5444ZM22.8204 41.808H24.7352V39.2333C24.7352 38.7543 25.1241 38.3651 25.6028 38.3651H28.1759V36.4491H25.6028C25.1241 36.4491 24.7352 36.0599 24.7352 35.5809V33.0062H22.8204V35.5809C22.8204 36.0599 22.4314 36.4491 21.9527 36.4491H19.3797V38.3651H21.9527C22.4314 38.3651 22.8204 38.7543 22.8204 39.2333V41.808Z" fill="#558CCF"/>
<path d="M46.0074 16.5702H41.1007C40.622 16.5702 40.233 16.181 40.233 15.7019C40.233 15.2229 40.622 14.8337 41.1007 14.8337H46.0074C46.4861 14.8337 46.875 15.2229 46.875 15.7019C46.875 16.181 46.4861 16.5702 46.0074 16.5702Z" fill="#558CCF"/>
<path d="M45.7082 41.7481H41.4298C40.9511 41.7481 40.5621 41.3589 40.5621 40.8799C40.5621 40.4009 40.9511 40.0117 41.4298 40.0117H45.7082C46.1869 40.0117 46.5758 40.4009 46.5758 40.8799C46.5758 41.3589 46.1869 41.7481 45.7082 41.7481Z" fill="#558CCF"/>
</svg>
