<svg width="47" height="51" viewBox="0 0 47 51" fill="none" xmlns="http://www.w3.org/2000/svg">
<path d="M31.8615 35.7092H27.9056C27.4567 35.7092 27.092 35.321 27.092 34.8433C27.092 34.3655 27.4567 33.9774 27.9056 33.9774H31.8615C32.1981 33.9774 32.5348 33.8281 32.7593 33.5892C33.0118 33.3205 33.1521 32.992 33.1521 32.6039C33.1521 31.8574 32.5629 31.2304 31.8615 31.2304H23.6972C23.2483 31.2304 22.8835 30.8422 22.8835 30.3644C22.8835 29.8867 23.2483 29.4985 23.6972 29.4985H31.8615C33.4607 29.4985 34.7793 30.9019 34.7793 32.6039C34.7793 33.4399 34.4707 34.2162 33.9376 34.7836C33.4046 35.3807 32.6751 35.6793 31.8895 35.6793L31.8615 35.7092Z" fill="#F17522"/>
<path d="M18.8434 45.4134C18.647 45.4134 18.4226 45.3238 18.2823 45.1745L11.5488 38.0084C11.2402 37.68 11.2402 37.1126 11.5488 36.7842L16.3184 31.7082C17.637 30.3048 19.3765 29.5285 21.2282 29.5285H23.6691C24.118 29.5285 24.4827 29.9166 24.4827 30.3944C24.4827 30.8721 24.118 31.2603 23.6691 31.2603H21.2282C19.7973 31.2603 18.4787 31.8575 17.4687 32.9324L13.2603 37.4112L18.8434 43.3532L20.3584 41.7408C21.2562 40.7853 22.4626 40.2478 23.7252 40.2478H31.9175C32.647 40.2478 33.3484 39.9492 33.8534 39.3819L44.655 27.8862C44.8514 27.6772 44.9636 27.3786 44.9636 27.08C44.9636 26.7815 44.8514 26.4829 44.655 26.2739C44.4866 26.0947 44.2341 25.9454 43.9255 25.8857C43.1119 25.7065 42.2141 26.0051 41.5969 26.6919L33.3203 35.5003C33.1801 35.6495 32.9556 35.7391 32.7592 35.7391H27.9336C27.4847 35.7391 27.1199 35.351 27.1199 34.8732C27.1199 34.3955 27.4847 34.0073 27.9336 34.0073H32.4225L40.4746 25.4378C41.5127 24.333 42.9436 23.8553 44.2902 24.1539C44.9075 24.3032 45.4405 24.5719 45.8333 24.9899C46.3383 25.5274 46.6189 26.244 46.6189 27.0203C46.6189 27.7967 46.3383 28.5133 45.8333 29.0507L35.0318 40.5464C34.2181 41.4422 33.0959 41.9199 31.9456 41.9199H23.7532C22.9115 41.9199 22.126 42.2782 21.5368 42.9053L19.4606 45.1148C19.2923 45.294 19.0959 45.3537 18.8995 45.3537L18.8434 45.4134Z" fill="#F17522"/>
<path d="M0.91561 50.2803C0.719218 50.2803 0.494769 50.1907 0.326433 50.0116C0.0178166 49.6831 0.0178166 49.1158 0.326433 48.7874L8.0699 40.5762C8.37852 40.2477 8.91158 40.2477 9.2202 40.5762C9.52881 40.9046 9.52881 41.4719 9.2202 41.8004L1.47673 50.0116C1.30839 50.1907 1.112 50.2504 0.91561 50.2504V50.2803Z" fill="#558CCF"/>
<path d="M24.7913 27.7668C24.1179 27.7668 23.4726 27.4682 22.9957 26.9606L13.5688 16.3607C11.4646 14.0018 10.651 10.6875 11.3805 7.46274C12.0819 4.38727 14.1019 1.93884 16.7953 0.923638C19.5728 -0.121423 22.5468 0.535471 24.7632 2.59574C26.9796 0.535471 29.9536 -0.121423 32.7311 0.923638C35.4245 1.93884 37.4445 4.38727 38.1459 7.46274C38.8754 10.6875 38.0618 14.0018 35.9576 16.3607L26.5307 26.9606C26.0818 27.4682 25.4085 27.7668 24.7351 27.7668H24.7913ZM19.4887 2.14785C18.7873 2.14785 18.0578 2.26729 17.3845 2.53602C15.1961 3.34221 13.5688 5.34276 13.0077 7.8509C12.4185 10.5083 13.0638 13.2255 14.7752 15.1365L24.2021 25.7364C24.5107 26.0947 25.0999 26.0947 25.4085 25.7364L34.8353 15.1365C36.5467 13.2255 37.2201 10.4785 36.6028 7.8509C36.0417 5.34276 34.3864 3.34221 32.2261 2.53602C29.8133 1.64025 27.2041 2.32701 25.3804 4.35741C25.0718 4.71572 24.5107 4.71572 24.2021 4.35741C22.9115 2.92418 21.2281 2.14785 19.4887 2.14785Z" fill="#558CCF"/>
</svg>
