<svg width="47" height="51" viewBox="0 0 47 51" fill="none" xmlns="http://www.w3.org/2000/svg">
<path d="M46.0474 19.9759H41.1903C40.7016 19.9759 40.3044 19.5791 40.3044 19.0908C40.3044 18.6026 40.7016 18.2058 41.1903 18.2058H46.0474C46.5361 18.2058 46.9333 18.6026 46.9333 19.0908C46.9333 19.5791 46.5361 19.9759 46.0474 19.9759Z" fill="#F17522"/>
<path d="M25.5806 28.1852C25.1835 28.1852 24.8475 27.9106 24.7253 27.5443L21.1512 14.2689L19.7766 19.3349C19.685 19.7317 19.3184 19.9758 18.9213 19.9758H11.2233C10.7345 19.9758 10.3374 19.5791 10.3374 19.0908C10.3374 18.6025 10.7345 18.2058 11.2233 18.2058H18.2492L20.2959 10.6372C20.3875 10.2405 20.7541 9.99634 21.1512 9.99634C21.5484 9.99634 21.8844 10.271 22.0066 10.6372L25.5806 23.9127L26.9553 18.8466C27.0469 18.4499 27.4135 18.2058 27.8106 18.2058H36.5472C37.036 18.2058 37.4331 18.6025 37.4331 19.0908C37.4331 19.5791 37.036 19.9758 36.5472 19.9758H28.4826L26.436 27.5443C26.3443 27.9411 25.9777 28.1852 25.5806 28.1852Z" fill="#F17522"/>
<path d="M6.54948 19.9759H1.2953C0.806539 19.9759 0.409424 19.5791 0.409424 19.0908C0.409424 18.6026 0.806539 18.2058 1.2953 18.2058H6.54948C7.03824 18.2058 7.43536 18.6026 7.43536 19.0908C7.43536 19.5791 7.03824 19.9759 6.54948 19.9759Z" fill="#F17522"/>
<path d="M5.29697 50.2804C4.47219 50.2804 3.64741 50.0363 2.94481 49.5785C1.99784 48.9376 1.32579 47.9915 1.11196 46.8624C0.867577 45.7637 1.11196 44.604 1.72291 43.658L10.5206 30.9929C7.4964 27.7579 5.78573 23.5769 5.66354 19.1213C5.54135 15.3675 6.57997 11.7359 8.6572 8.59248C14.1863 0.230477 25.4889 -2.08891 33.8895 3.4349C39.1742 6.91398 42.229 12.804 42.0457 19.1213C41.954 22.5088 40.9154 25.7743 39.052 28.6125C34.4088 35.6316 25.5195 38.5309 17.6687 35.6927L8.84049 48.3883C8.22954 49.3343 7.25201 49.9752 6.1523 50.1889C5.87737 50.2499 5.5719 50.2804 5.29697 50.2804ZM23.9004 2.18365C18.5546 2.18365 13.3004 4.7777 10.154 9.56906C8.26008 12.4073 7.34366 15.7032 7.4353 19.0908C7.55749 23.3328 9.2987 27.3307 12.2924 30.291C12.5978 30.5961 12.6284 31.0539 12.384 31.4201L3.18919 44.665C2.82262 45.2144 2.70043 45.8858 2.82262 46.5267C2.94481 47.1675 3.34193 47.7474 3.89178 48.1136C4.44164 48.4798 5.11369 48.6019 5.78574 48.4798C6.45778 48.3578 7.00763 47.961 7.3742 47.4117L16.5996 34.1362C16.8439 33.8005 17.2716 33.6785 17.6687 33.8311C24.9085 36.7913 33.2785 34.1973 37.5857 27.6664C39.2658 25.1028 40.2128 22.1426 40.3045 19.0908C40.4572 13.3533 37.7079 8.07367 32.9425 4.89977C30.1627 3.06868 27.0163 2.18365 23.9004 2.18365ZM23.8699 32.122C22.4647 32.122 21.029 31.9084 19.6238 31.4201C18.4935 31.0539 17.4244 30.5351 16.4468 29.8637C15.4388 29.2228 14.5529 28.4293 13.7892 27.5443C11.7425 25.2249 10.5206 22.2341 10.3984 19.1213C10.2762 16.2831 11.0399 13.5364 12.6284 11.156C14.614 8.1347 17.6687 6.08999 21.2122 5.35755C24.7558 4.62511 28.3604 5.35755 31.3846 7.31072C35.3558 9.93529 37.6468 14.3604 37.4636 19.1213C37.3719 21.5933 36.6082 23.9737 35.2336 26.0489C32.6676 29.9247 28.3909 32.122 23.931 32.122H23.8699ZM23.9004 6.85294C23.1062 6.85294 22.312 6.9445 21.5177 7.09709C18.4324 7.73797 15.7748 9.50802 14.0641 12.1326C12.6895 14.2078 12.0174 16.5883 12.1396 19.0602C12.2618 21.7764 13.3004 24.3704 15.0722 26.3846C15.7442 27.1476 16.5385 27.819 17.3938 28.3988C18.2491 28.9787 19.1961 29.4364 20.1736 29.7416C25.214 31.4201 30.7736 29.4975 33.7062 25.0723C34.8975 23.2718 35.5696 21.1965 35.6612 19.0602C35.814 14.9098 33.8284 11.0645 30.3765 8.77559C28.4215 7.49382 26.1915 6.82242 23.931 6.82242L23.9004 6.85294Z" fill="#558CCF"/>
</svg>
