<svg width="23" height="23" viewBox="0 0 23 23" fill="none" xmlns="http://www.w3.org/2000/svg">
<path d="M15.2096 22.1317C14.4195 22.1317 13.6077 21.831 12.7975 21.2748C12.4885 21.1144 10.4038 19.9452 6.49674 16.0397C2.61471 12.1577 1.4354 10.043 1.27504 9.73897C0.523361 8.64151 0.276141 7.55408 0.540065 6.51007C0.986064 4.74612 2.78509 3.60357 3.8174 3.08073C4.04959 2.9638 4.33356 3.04231 4.47053 3.2628C4.69771 3.63029 5.17043 4.26839 6.13259 5.23054C7.08973 6.18769 7.8197 6.75061 8.26236 7.05463C8.37261 7.1298 8.44777 7.24839 8.47283 7.38036C8.49622 7.51232 8.46615 7.64929 8.38764 7.75787C7.90823 8.43605 7.14152 9.52182 7.10644 9.57026C7.10644 9.57026 7.10644 9.57193 7.10477 9.57193C6.96779 9.76737 6.75899 9.82082 6.60531 9.85924C6.59195 9.86258 6.57692 9.86592 6.56355 9.86926C6.54351 9.88597 6.53516 9.89766 6.53182 9.90267C6.53182 9.90267 6.53182 9.94443 6.57525 10.048C6.66545 10.2551 6.78071 10.4706 6.95276 10.7496C7.23339 11.2039 7.57081 11.6733 8.04521 12.2696C8.1187 12.3632 8.19387 12.4584 8.26904 12.5553C8.51459 12.8727 8.77016 13.2001 9.04244 13.4506C9.38821 13.768 9.78076 14.1004 10.2401 14.4679C10.8348 14.944 11.3075 15.2831 11.7702 15.5704C12.0492 15.7424 12.268 15.861 12.4768 15.9512C12.577 15.9946 12.6238 15.9997 12.6388 15.9997C12.6388 15.998 12.6488 15.9896 12.6605 15.9746C12.6639 15.9629 12.6672 15.9495 12.6689 15.9362C12.704 15.7875 12.7558 15.5654 12.9562 15.4234C13.0798 15.3348 13.4607 15.0676 14.7469 14.1589C14.8571 14.082 14.9958 14.0503 15.1277 14.0754C15.2614 14.1004 15.3783 14.1772 15.4535 14.2908C15.689 14.645 16.155 15.253 17.0353 16.135C18.1178 17.2174 18.9129 17.7953 19.2904 18.0442C19.5025 18.1846 19.576 18.4819 19.4624 18.7091C18.821 19.9786 17.4162 22.1284 15.2046 22.1284L15.2096 22.1317Z" fill="black"/>
<path d="M15.2093 22.1316C14.4192 22.1316 13.6074 21.8309 12.7973 21.2747C12.4882 21.1143 10.4036 19.945 6.49649 16.0396C2.61447 12.1576 1.43516 10.0429 1.2748 9.73885C0.523117 8.64139 0.275897 7.55396 0.539821 6.50995C0.98582 4.746 2.78485 3.60344 3.81716 3.08061C4.04935 2.96368 4.33332 3.04219 4.47029 3.26268C4.69747 3.63017 5.17019 4.26827 6.13235 5.23042C7.08949 6.18756 7.81946 6.75049 8.26212 7.05451C8.37236 7.12968 8.44753 7.24827 8.47259 7.38023C8.49597 7.5122 8.46591 7.64917 8.3874 7.75775C7.90799 8.43593 7.14127 9.5217 7.10619 9.57014C7.10619 9.57014 7.10619 9.57181 7.10452 9.57181C6.96755 9.76724 6.75875 9.8207 6.60507 9.85912C6.59171 9.86246 6.57667 9.8658 6.56331 9.86914C6.54327 9.88584 6.53491 9.89754 6.53157 9.90255C6.53157 9.90255 6.53157 9.94431 6.575 10.0479C6.66521 10.255 6.78046 10.4705 6.95252 10.7494C7.23314 11.2038 7.57057 11.6732 8.04496 12.2695C8.11846 12.3631 8.19363 12.4583 8.2688 12.5552C8.51435 12.8725 8.76992 13.1999 9.0422 13.4505C9.38797 13.7679 9.78052 14.1003 10.2399 14.4678C10.8345 14.9438 11.3073 15.2829 11.77 15.5702C12.0489 15.7423 12.2678 15.8609 12.4766 15.9511C12.5768 15.9945 12.6235 15.9995 12.6386 15.9995C12.6386 15.9979 12.6486 15.9895 12.6603 15.9745C12.6636 15.9628 12.667 15.9494 12.6687 15.9361C12.7037 15.7874 12.7555 15.5652 12.956 15.4232C13.0796 15.3347 13.4604 15.0675 14.7466 14.1587C14.8569 14.0819 14.9955 14.0502 15.1275 14.0752C15.2611 14.1003 15.3781 14.1771 15.4532 14.2907C15.6887 14.6448 16.1548 15.2529 17.0351 16.1348C18.1175 17.2173 18.9126 17.7952 19.2901 18.0441C19.5023 18.1844 19.5758 18.4818 19.4622 18.7089C18.8208 19.9784 17.4159 22.1283 15.2043 22.1283L15.2093 22.1316Z" fill="black"/>
<path d="M13.6832 10.7913H10.6831C10.8552 9.52346 11.4097 9.06075 12.2483 8.48613C12.7444 8.14871 12.9081 7.86474 12.9081 7.36362C12.9081 6.90091 12.6375 6.72886 12.2533 6.72886C11.8691 6.72886 11.5668 6.96606 11.5668 7.68767H10.8067C10.8067 6.63031 11.3813 6.03564 12.2733 6.03564C13.0985 6.03564 13.6614 6.49835 13.6614 7.3703C13.6614 8.17711 13.2455 8.61809 12.6041 9.06075C12.1013 9.41154 11.7254 9.68882 11.6402 10.058H13.6815V10.7913H13.6832Z" fill="black"/>
<path d="M17.5002 9.79895H17.0041V10.7895H16.2641V9.79895H14.3481V9.21096L16.3376 6.099H17.0041V9.08568H17.5002V9.79895ZM16.2658 9.08568V7.44034L15.2218 9.08568H16.2658Z" fill="black"/>
<path d="M15.731 0.444527C12.188 -0.661283 8.49141 0.361008 6.01587 2.78978L6.96299 3.79035C9.08942 1.69399 12.2715 0.807005 15.3217 1.75914C19.7249 3.13388 22.1804 7.8177 20.8057 12.2192C20.3881 13.5539 19.6681 14.7065 18.7427 15.6319L19.6882 16.6341C20.7789 15.5534 21.6292 14.1987 22.1186 12.6301C23.7188 7.50032 20.8591 2.04478 15.731 0.444527Z" fill="black"/>
</svg>
