<svg width="27" height="16" viewBox="0 0 27 16" fill="none" xmlns="http://www.w3.org/2000/svg">
<path d="M17.4942 8.28674L13.4988 3.05945L9.50523 8.28674L3.13062 6.49966L5.77951 15.8193H21.2199L23.8688 6.49966L17.4942 8.28674Z" fill="white"/>
<path d="M14.5204 1.02043C14.5204 1.5844 14.0639 2.04087 13.4999 2.04087C12.936 2.04087 12.4795 1.5844 12.4795 1.02043C12.4795 0.456463 12.936 0 13.4999 0C14.0639 0 14.5204 0.456463 14.5204 1.02043Z" fill="white"/>
<path d="M2.82109 4.98064C2.82109 5.54461 2.36462 6.00107 1.80065 6.00107C1.23668 6.00107 0.781982 5.54285 0.781982 4.98064C0.781982 4.41843 1.23845 3.96021 1.80242 3.96021C2.36638 3.96021 2.82285 4.41667 2.82285 4.98064H2.82109Z" fill="white"/>
<path d="M24.1772 4.98064C24.1772 5.54461 24.6337 6.00107 25.1977 6.00107C25.7616 6.00107 26.2181 5.54461 26.2181 4.98064C26.2181 4.41667 25.7616 3.96021 25.1977 3.96021C24.6337 3.96021 24.1772 4.41667 24.1772 4.98064Z" fill="white"/>
</svg>
