<?xml version="1.0" encoding="utf-8"?>
<!-- Generator: Adobe Illustrator 27.0.0, SVG Export Plug-In . SVG Version: 6.00 Build 0)  -->
<svg version="1.1" xmlns="http://www.w3.org/2000/svg" xmlns:xlink="http://www.w3.org/1999/xlink" x="0px" y="0px"
	 viewBox="0 0 67.75 67.75" style="enable-background:new 0 0 67.75 67.75;" xml:space="preserve">
<style type="text/css">
	.st0{display:none;}
	.st1{display:inline;opacity:0.5;}
	.st2{fill:none;stroke:#E62AFF;stroke-width:0.25;stroke-miterlimit:10;}
	.st3{display:inline;}
	.st4{display:inline;fill:none;stroke:#FFFFFF;stroke-width:2;stroke-miterlimit:10;}
	.st5{fill:none;stroke:#000000;stroke-width:2;stroke-linecap:round;stroke-linejoin:round;stroke-miterlimit:10;}
	.st6{fill:none;stroke:#000000;stroke-width:2;stroke-linecap:round;stroke-linejoin:round;}
</style>
<g id="guide" class="st0">
	<g class="st1">
		<g>
			<g>
				<g>
					<rect x="0.12" y="0.12" class="st2" width="67.5" height="67.5"/>
					<circle class="st2" cx="33.88" cy="33.88" r="33.75"/>
					<circle class="st2" cx="33.88" cy="33.88" r="16.88"/>
					<line class="st2" x1="33.88" y1="67.62" x2="33.88" y2="0.12"/>
					<line class="st2" x1="0.12" y1="33.88" x2="67.62" y2="33.88"/>
				</g>
			</g>
		</g>
	</g>
</g>
<g id="title" class="st0">
	<rect x="-144.25" y="-988.88" class="st4" width="1200" height="1335"/>
</g>
<g id="icon">
	<g>
		<g>
			<path class="st5" d="M17.71,23.91h38.62c4.13,0,7.48-3.35,7.48-7.48v0c0-4.13-3.35-7.48-7.48-7.48H12.1
				c-5.17,0-9.35,4.19-9.35,9.35v11.22c0,5.17,4.19,9.35,9.35,9.35h5.61"/>
			<line class="st5" x1="17.71" y1="38.87" x2="49.79" y2="38.87"/>
		</g>
		<path class="st5" d="M49.79,38.87H10.23c-4.13,0-7.48,3.35-7.48,7.48l0,0c0,4.13,3.35,7.48,7.48,7.48h2.81v5.61
			c0,2.58,2.09,4.68,4.68,4.68l0,0c2.58,0,4.68-2.09,4.68-4.68v-5.61H55.4c5.17,0,9.35-4.19,9.35-9.35v-9.35
			c0-6.2-5.02-11.22-11.22-11.22"/>
	</g>
</g>
</svg>
