<?xml version="1.0" encoding="utf-8"?>
<!-- Generator: Adobe Illustrator 27.0.0, SVG Export Plug-In . SVG Version: 6.00 Build 0)  -->
<svg version="1.1" xmlns="http://www.w3.org/2000/svg" xmlns:xlink="http://www.w3.org/1999/xlink" x="0px" y="0px"
	 viewBox="0 0 67.75 67.75" style="enable-background:new 0 0 67.75 67.75;" xml:space="preserve">
<style type="text/css">
	.st0{display:none;}
	.st1{display:inline;opacity:0.5;}
	.st2{fill:none;stroke:#E62AFF;stroke-width:0.25;stroke-miterlimit:10;}
	.st3{display:inline;}
	.st4{display:inline;fill:none;stroke:#FFFFFF;stroke-width:2;stroke-miterlimit:10;}
	.st5{fill:none;stroke:#000000;stroke-width:2;stroke-linecap:round;stroke-linejoin:round;stroke-miterlimit:10;}
	.st6{fill:none;stroke:#000000;stroke-width:2;stroke-linecap:round;stroke-linejoin:round;}
</style>
<g id="guide" class="st0">
	<g class="st1">
		<g>
			<g>
				<g>
					<rect x="0.12" y="0.12" class="st2" width="67.5" height="67.5"/>
					<circle class="st2" cx="33.88" cy="33.88" r="33.75"/>
					<circle class="st2" cx="33.88" cy="33.88" r="16.88"/>
					<line class="st2" x1="33.88" y1="67.62" x2="33.88" y2="0.12"/>
					<line class="st2" x1="0.12" y1="33.88" x2="67.62" y2="33.88"/>
				</g>
			</g>
		</g>
	</g>
</g>
<g id="title" class="st0">
	<rect x="-481.75" y="-681.38" class="st4" width="1200" height="1335"/>
</g>
<g id="icon">
	<g>
		<polyline class="st5" points="11.92,29.62 23.92,29.62 27.25,24.62 33.58,37.96 40.25,18.96 43.58,29.62 54.58,29.62 		"/>
		<g>
			<path class="st6" d="M61.65,50.58H4.85c-0.55,0-1-0.45-1-1v-37.9c0-0.55,0.45-1,1-1h56.8c0.55,0,1,0.45,1,1v37.9
				C62.65,50.12,62.2,50.58,61.65,50.58z"/>
			<line class="st6" x1="19.26" y1="61.03" x2="47.24" y2="61.03"/>
			<line class="st6" x1="3.85" y1="43.66" x2="62.65" y2="43.66"/>
			<line class="st6" x1="26.42" y1="50.58" x2="26.42" y2="61.03"/>
			<line class="st5" x1="40.08" y1="50.75" x2="40.08" y2="60.86"/>
		</g>
	</g>
</g>
</svg>
