<?xml version="1.0" encoding="utf-8"?>
<!-- Generator: Adobe Illustrator 27.0.0, SVG Export Plug-In . SVG Version: 6.00 Build 0)  -->
<svg version="1.1" xmlns="http://www.w3.org/2000/svg" xmlns:xlink="http://www.w3.org/1999/xlink" x="0px" y="0px"
	 viewBox="0 0 67.75 67.75" style="enable-background:new 0 0 67.75 67.75;" xml:space="preserve">
<style type="text/css">
	.st0{display:none;}
	.st1{display:inline;opacity:0.5;}
	.st2{fill:none;stroke:#E62AFF;stroke-width:0.25;stroke-miterlimit:10;}
	.st3{display:inline;}
	.st4{display:inline;fill:none;stroke:#FFFFFF;stroke-width:2;stroke-miterlimit:10;}
	.st5{fill:none;stroke:#000000;stroke-width:2;stroke-linecap:round;stroke-linejoin:round;stroke-miterlimit:10;}
	.st6{fill:none;stroke:#000000;stroke-width:2;stroke-linecap:round;stroke-linejoin:round;}
</style>
<g id="guide" class="st0">
	<g class="st1">
		<g>
			<g>
				<g>
					<rect x="0.12" y="0.12" class="st2" width="67.5" height="67.5"/>
					<circle class="st2" cx="33.88" cy="33.88" r="33.75"/>
					<circle class="st2" cx="33.88" cy="33.88" r="16.88"/>
					<line class="st2" x1="33.88" y1="67.62" x2="33.88" y2="0.12"/>
					<line class="st2" x1="0.12" y1="33.88" x2="67.62" y2="33.88"/>
				</g>
			</g>
		</g>
	</g>
</g>
<g id="title" class="st0">
	<rect x="-819.25" y="-527.62" class="st4" width="1200" height="1335"/>
</g>
<g id="icon">
	<g>
		<g>
			<line class="st5" x1="25.9" y1="51.97" x2="21.34" y2="47.37"/>
			<line class="st5" x1="30.75" y1="47.16" x2="26.19" y2="42.56"/>
			<line class="st5" x1="35.6" y1="42.35" x2="31.04" y2="37.75"/>
			<line class="st5" x1="40.45" y1="37.54" x2="35.89" y2="32.94"/>
		</g>
		<polyline class="st5" points="54.08,25.24 20.76,58.28 9.36,46.79 42.69,13.75 		"/>
		<polyline class="st5" points="17.59,55.59 13.76,59.39 8.19,53.77 12.02,49.98 		"/>
		<line class="st5" x1="61.47" y1="13.54" x2="52.27" y2="22.65"/>
		<line class="st5" x1="45.18" y1="15.5" x2="54.38" y2="6.39"/>
		<line class="st5" x1="40.03" y1="11.07" x2="56.74" y2="27.92"/>
		<line class="st5" x1="51.38" y1="3.36" x2="64.54" y2="16.64"/>
		<line class="st5" x1="5.36" y1="62.15" x2="9.95" y2="57.6"/>
	</g>
</g>
</svg>
