<?xml version="1.0" encoding="utf-8"?>
<!-- Generator: Adobe Illustrator 27.0.0, SVG Export Plug-In . SVG Version: 6.00 Build 0)  -->
<svg version="1.1" xmlns="http://www.w3.org/2000/svg" xmlns:xlink="http://www.w3.org/1999/xlink" x="0px" y="0px"
	 viewBox="0 0 67.75 67.75" style="enable-background:new 0 0 67.75 67.75;" xml:space="preserve">
<style type="text/css">
	.st0{display:none;}
	.st1{display:inline;opacity:0.5;}
	.st2{fill:none;stroke:#E62AFF;stroke-width:0.25;stroke-miterlimit:10;}
	.st3{display:inline;}
	.st4{display:inline;fill:none;stroke:#FFFFFF;stroke-width:2;stroke-miterlimit:10;}
	.st5{fill:none;stroke:#000000;stroke-width:2;stroke-linecap:round;stroke-linejoin:round;stroke-miterlimit:10;}
	.st6{fill:none;stroke:#000000;stroke-width:2;stroke-linecap:round;stroke-linejoin:round;}
</style>
<g id="guide" class="st0">
	<g class="st1">
		<g>
			<g>
				<g>
					<rect x="0.12" y="0.12" class="st2" width="67.5" height="67.5"/>
					<circle class="st2" cx="33.88" cy="33.88" r="33.75"/>
					<circle class="st2" cx="33.88" cy="33.88" r="16.88"/>
					<line class="st2" x1="33.88" y1="67.62" x2="33.88" y2="0.12"/>
					<line class="st2" x1="0.12" y1="33.88" x2="67.62" y2="33.88"/>
				</g>
			</g>
		</g>
	</g>
</g>
<g id="title" class="st0">
	<rect x="-481.75" y="-527.62" class="st4" width="1200" height="1335"/>
</g>
<g id="icon">
	<g>
		<path class="st5" d="M62.75,59.38c-1.65,0-3-1.35-3-3s1.35-3,3-3c1.65,0,3,1.35,3,3S64.4,59.38,62.75,59.38z"/>
		<path class="st5" d="M19.99,48.38h-1.43c-1.19,0-2.33-0.42-3.24-1.19C11.86,44.24,3.25,36.65,3.25,33.86V4.38c0-0.55,0.45-1,1-1
			h29c0.55,0,1,0.45,1,1v29.84c0,2.59-7.62,9.86-10.88,12.85C22.45,47.91,21.24,48.38,19.99,48.38z"/>
		<path class="st5" d="M29.25,25.21v8.32c-0.77,1.3-3.64,4.7-9.26,9.86l0.01-0.01h-1.43c-6.27-5.32-9.47-8.87-10.31-10.23v-1.27
			c0,0,0.38-5.18,6-3.67c4.33,1.17,4.83-2.33,7.67-4.5C24.27,21.91,29.25,22.54,29.25,25.21z"/>
		<path class="st5" d="M63.25,52.38V25.39c0-4.14-3.36-7.5-7.5-7.5l0,0c-4.14,0-7.5,3.36-7.5,7.5v26.77
			c0,7.35-5.96,13.31-13.31,13.31h-0.38c-7.35,0-13.31-5.96-13.31-13.31v-3.78"/>
		<line class="st5" x1="17.25" y1="48.38" x2="17.25" y2="52.38"/>
		<line class="st5" x1="8.25" y1="9.38" x2="14.25" y2="9.38"/>
		<line class="st5" x1="8.25" y1="15.88" x2="14.25" y2="15.88"/>
		<line class="st5" x1="8.25" y1="22.38" x2="14.25" y2="22.38"/>
	</g>
</g>
</svg>
