<?xml version="1.0" encoding="utf-8"?>
<!-- Generator: Adobe Illustrator 27.0.0, SVG Export Plug-In . SVG Version: 6.00 Build 0)  -->
<svg version="1.1" xmlns="http://www.w3.org/2000/svg" xmlns:xlink="http://www.w3.org/1999/xlink" x="0px" y="0px"
	 viewBox="0 0 1200 1335" style="enable-background:new 0 0 1200 1335;" xml:space="preserve">
<style type="text/css">
	.st0{display:none;}
	.st1{display:inline;opacity:0.5;}
	.st2{fill:none;stroke:#E62AFF;stroke-width:0.25;stroke-miterlimit:10;}
	.st3{display:inline;}
	.st4{display:inline;fill:#999999;}
	.st5{font-family:'NanumGothic';}
	.st6{font-size:28px;}
	.st7{display:inline;fill:none;stroke:#FFFFFF;stroke-width:2;stroke-miterlimit:10;}
	.st8{fill:none;stroke:#000000;stroke-width:2;stroke-linecap:round;stroke-linejoin:round;stroke-miterlimit:10;}
	.st9{fill:none;stroke:#000000;stroke-width:2;stroke-linecap:round;stroke-linejoin:round;}
</style>
<g id="guide" class="st0">
	<g class="st1">
		<g>
			<g>
				<g>
					<rect x="144.38" y="375" class="st2" width="67.5" height="67.5"/>
					<circle class="st2" cx="178.12" cy="408.75" r="33.75"/>
					<circle class="st2" cx="178.12" cy="408.75" r="16.88"/>
					<line class="st2" x1="178.12" y1="442.5" x2="178.12" y2="375"/>
					<line class="st2" x1="144.38" y1="408.75" x2="211.88" y2="408.75"/>
				</g>
			</g>
		</g>
	</g>
	<g class="st1">
		<g>
			<g>
				<g>
					<rect x="313.12" y="375" class="st2" width="67.5" height="67.5"/>
					<circle class="st2" cx="346.88" cy="408.75" r="33.75"/>
					<circle class="st2" cx="346.88" cy="408.75" r="16.88"/>
					<line class="st2" x1="346.88" y1="442.5" x2="346.88" y2="375"/>
					<line class="st2" x1="313.12" y1="408.75" x2="380.62" y2="408.75"/>
				</g>
			</g>
		</g>
	</g>
	<g class="st1">
		<g>
			<g>
				<g>
					<rect x="481.88" y="375" class="st2" width="67.5" height="67.5"/>
					<circle class="st2" cx="515.62" cy="408.75" r="33.75"/>
					<circle class="st2" cx="515.62" cy="408.75" r="16.88"/>
					<line class="st2" x1="515.62" y1="442.5" x2="515.62" y2="375"/>
					<line class="st2" x1="481.88" y1="408.75" x2="549.38" y2="408.75"/>
				</g>
			</g>
		</g>
	</g>
	<g class="st1">
		<g>
			<g>
				<g>
					<rect x="650.62" y="375" class="st2" width="67.5" height="67.5"/>
					<circle class="st2" cx="684.38" cy="408.75" r="33.75"/>
					<circle class="st2" cx="684.38" cy="408.75" r="16.88"/>
					<line class="st2" x1="684.38" y1="442.5" x2="684.38" y2="375"/>
					<line class="st2" x1="650.62" y1="408.75" x2="718.12" y2="408.75"/>
				</g>
			</g>
		</g>
	</g>
	<g class="st1">
		<g>
			<g>
				<g>
					<rect x="819.38" y="375" class="st2" width="67.5" height="67.5"/>
					<circle class="st2" cx="853.12" cy="408.75" r="33.75"/>
					<circle class="st2" cx="853.12" cy="408.75" r="16.88"/>
					<line class="st2" x1="853.12" y1="442.5" x2="853.12" y2="375"/>
					<line class="st2" x1="819.38" y1="408.75" x2="886.88" y2="408.75"/>
				</g>
			</g>
		</g>
	</g>
	<g class="st1">
		<g>
			<g>
				<g>
					<rect x="988.12" y="375" class="st2" width="67.5" height="67.5"/>
					<circle class="st2" cx="1021.88" cy="408.75" r="33.75"/>
					<circle class="st2" cx="1021.88" cy="408.75" r="16.88"/>
					<line class="st2" x1="1021.88" y1="442.5" x2="1021.88" y2="375"/>
					<line class="st2" x1="988.12" y1="408.75" x2="1055.62" y2="408.75"/>
				</g>
			</g>
		</g>
	</g>
	<g class="st1">
		<g>
			<g>
				<g>
					<rect x="144.38" y="528.75" class="st2" width="67.5" height="67.5"/>
					<circle class="st2" cx="178.12" cy="562.5" r="33.75"/>
					<circle class="st2" cx="178.12" cy="562.5" r="16.88"/>
					<line class="st2" x1="178.12" y1="596.25" x2="178.12" y2="528.75"/>
					<line class="st2" x1="144.38" y1="562.5" x2="211.88" y2="562.5"/>
				</g>
			</g>
		</g>
	</g>
	<g class="st1">
		<g>
			<g>
				<g>
					<rect x="313.12" y="528.75" class="st2" width="67.5" height="67.5"/>
					<circle class="st2" cx="346.88" cy="562.5" r="33.75"/>
					<circle class="st2" cx="346.88" cy="562.5" r="16.88"/>
					<line class="st2" x1="346.88" y1="596.25" x2="346.88" y2="528.75"/>
					<line class="st2" x1="313.12" y1="562.5" x2="380.62" y2="562.5"/>
				</g>
			</g>
		</g>
	</g>
	<g class="st1">
		<g>
			<g>
				<g>
					<rect x="481.88" y="528.75" class="st2" width="67.5" height="67.5"/>
					<circle class="st2" cx="515.62" cy="562.5" r="33.75"/>
					<circle class="st2" cx="515.62" cy="562.5" r="16.88"/>
					<line class="st2" x1="515.62" y1="596.25" x2="515.62" y2="528.75"/>
					<line class="st2" x1="481.88" y1="562.5" x2="549.38" y2="562.5"/>
				</g>
			</g>
		</g>
	</g>
	<g class="st1">
		<g>
			<g>
				<g>
					<rect x="650.62" y="528.75" class="st2" width="67.5" height="67.5"/>
					<circle class="st2" cx="684.38" cy="562.5" r="33.75"/>
					<circle class="st2" cx="684.38" cy="562.5" r="16.88"/>
					<line class="st2" x1="684.38" y1="596.25" x2="684.38" y2="528.75"/>
					<line class="st2" x1="650.62" y1="562.5" x2="718.12" y2="562.5"/>
				</g>
			</g>
		</g>
	</g>
	<g class="st1">
		<g>
			<g>
				<g>
					<rect x="819.38" y="528.75" class="st2" width="67.5" height="67.5"/>
					<circle class="st2" cx="853.12" cy="562.5" r="33.75"/>
					<circle class="st2" cx="853.12" cy="562.5" r="16.88"/>
					<line class="st2" x1="853.12" y1="596.25" x2="853.12" y2="528.75"/>
					<line class="st2" x1="819.38" y1="562.5" x2="886.88" y2="562.5"/>
				</g>
			</g>
		</g>
	</g>
	<g class="st1">
		<g>
			<g>
				<g>
					<rect x="988.12" y="528.75" class="st2" width="67.5" height="67.5"/>
					<circle class="st2" cx="1021.88" cy="562.5" r="33.75"/>
					<circle class="st2" cx="1021.88" cy="562.5" r="16.88"/>
					<line class="st2" x1="1021.88" y1="596.25" x2="1021.88" y2="528.75"/>
					<line class="st2" x1="988.12" y1="562.5" x2="1055.62" y2="562.5"/>
				</g>
			</g>
		</g>
	</g>
	<g class="st1">
		<g>
			<g>
				<g>
					<rect x="144.38" y="682.5" class="st2" width="67.5" height="67.5"/>
					<circle class="st2" cx="178.12" cy="716.25" r="33.75"/>
					<circle class="st2" cx="178.12" cy="716.25" r="16.88"/>
					<line class="st2" x1="178.12" y1="750" x2="178.12" y2="682.5"/>
					<line class="st2" x1="144.38" y1="716.25" x2="211.88" y2="716.25"/>
				</g>
			</g>
		</g>
	</g>
	<g class="st1">
		<g>
			<g>
				<g>
					<rect x="313.12" y="682.5" class="st2" width="67.5" height="67.5"/>
					<circle class="st2" cx="346.88" cy="716.25" r="33.75"/>
					<circle class="st2" cx="346.88" cy="716.25" r="16.88"/>
					<line class="st2" x1="346.88" y1="750" x2="346.88" y2="682.5"/>
					<line class="st2" x1="313.12" y1="716.25" x2="380.62" y2="716.25"/>
				</g>
			</g>
		</g>
	</g>
	<g class="st1">
		<g>
			<g>
				<g>
					<rect x="481.88" y="682.5" class="st2" width="67.5" height="67.5"/>
					<circle class="st2" cx="515.62" cy="716.25" r="33.75"/>
					<circle class="st2" cx="515.62" cy="716.25" r="16.88"/>
					<line class="st2" x1="515.62" y1="750" x2="515.62" y2="682.5"/>
					<line class="st2" x1="481.88" y1="716.25" x2="549.38" y2="716.25"/>
				</g>
			</g>
		</g>
	</g>
	<g class="st1">
		<g>
			<g>
				<g>
					<rect x="650.62" y="682.5" class="st2" width="67.5" height="67.5"/>
					<circle class="st2" cx="684.38" cy="716.25" r="33.75"/>
					<circle class="st2" cx="684.38" cy="716.25" r="16.88"/>
					<line class="st2" x1="684.38" y1="750" x2="684.38" y2="682.5"/>
					<line class="st2" x1="650.62" y1="716.25" x2="718.12" y2="716.25"/>
				</g>
			</g>
		</g>
	</g>
	<g class="st1">
		<g>
			<g>
				<g>
					<rect x="819.38" y="682.5" class="st2" width="67.5" height="67.5"/>
					<circle class="st2" cx="853.12" cy="716.25" r="33.75"/>
					<circle class="st2" cx="853.12" cy="716.25" r="16.88"/>
					<line class="st2" x1="853.12" y1="750" x2="853.12" y2="682.5"/>
					<line class="st2" x1="819.38" y1="716.25" x2="886.88" y2="716.25"/>
				</g>
			</g>
		</g>
	</g>
	<g class="st1">
		<g>
			<g>
				<g>
					<rect x="988.12" y="682.5" class="st2" width="67.5" height="67.5"/>
					<circle class="st2" cx="1021.88" cy="716.25" r="33.75"/>
					<circle class="st2" cx="1021.88" cy="716.25" r="16.88"/>
					<line class="st2" x1="1021.88" y1="750" x2="1021.88" y2="682.5"/>
					<line class="st2" x1="988.12" y1="716.25" x2="1055.62" y2="716.25"/>
				</g>
			</g>
		</g>
	</g>
	<g class="st1">
		<g>
			<g>
				<g>
					<rect x="144.38" y="836.25" class="st2" width="67.5" height="67.5"/>
					<circle class="st2" cx="178.12" cy="870" r="33.75"/>
					<circle class="st2" cx="178.12" cy="870" r="16.88"/>
					<line class="st2" x1="178.12" y1="903.75" x2="178.12" y2="836.25"/>
					<line class="st2" x1="144.38" y1="870" x2="211.88" y2="870"/>
				</g>
			</g>
		</g>
	</g>
	<g class="st1">
		<g>
			<g>
				<g>
					<rect x="313.12" y="836.25" class="st2" width="67.5" height="67.5"/>
					<circle class="st2" cx="346.88" cy="870" r="33.75"/>
					<circle class="st2" cx="346.88" cy="870" r="16.88"/>
					<line class="st2" x1="346.88" y1="903.75" x2="346.88" y2="836.25"/>
					<line class="st2" x1="313.12" y1="870" x2="380.62" y2="870"/>
				</g>
			</g>
		</g>
	</g>
	<g class="st1">
		<g>
			<g>
				<g>
					<rect x="481.88" y="836.25" class="st2" width="67.5" height="67.5"/>
					<circle class="st2" cx="515.62" cy="870" r="33.75"/>
					<circle class="st2" cx="515.62" cy="870" r="16.88"/>
					<line class="st2" x1="515.62" y1="903.75" x2="515.62" y2="836.25"/>
					<line class="st2" x1="481.88" y1="870" x2="549.38" y2="870"/>
				</g>
			</g>
		</g>
	</g>
	<g class="st1">
		<g>
			<g>
				<g>
					<rect x="650.62" y="836.25" class="st2" width="67.5" height="67.5"/>
					<circle class="st2" cx="684.38" cy="870" r="33.75"/>
					<circle class="st2" cx="684.38" cy="870" r="16.88"/>
					<line class="st2" x1="684.38" y1="903.75" x2="684.38" y2="836.25"/>
					<line class="st2" x1="650.62" y1="870" x2="718.12" y2="870"/>
				</g>
			</g>
		</g>
	</g>
	<g class="st1">
		<g>
			<g>
				<g>
					<rect x="819.38" y="836.25" class="st2" width="67.5" height="67.5"/>
					<circle class="st2" cx="853.12" cy="870" r="33.75"/>
					<circle class="st2" cx="853.12" cy="870" r="16.88"/>
					<line class="st2" x1="853.12" y1="903.75" x2="853.12" y2="836.25"/>
					<line class="st2" x1="819.38" y1="870" x2="886.88" y2="870"/>
				</g>
			</g>
		</g>
	</g>
	<g class="st1">
		<g>
			<g>
				<g>
					<rect x="988.12" y="836.25" class="st2" width="67.5" height="67.5"/>
					<circle class="st2" cx="1021.88" cy="870" r="33.75"/>
					<circle class="st2" cx="1021.88" cy="870" r="16.88"/>
					<line class="st2" x1="1021.88" y1="903.75" x2="1021.88" y2="836.25"/>
					<line class="st2" x1="988.12" y1="870" x2="1055.62" y2="870"/>
				</g>
			</g>
		</g>
	</g>
	<g class="st1">
		<g>
			<g>
				<g>
					<rect x="144.38" y="990" class="st2" width="67.5" height="67.5"/>
					<circle class="st2" cx="178.12" cy="1023.75" r="33.75"/>
					<circle class="st2" cx="178.12" cy="1023.75" r="16.88"/>
					<line class="st2" x1="178.12" y1="1057.5" x2="178.12" y2="990"/>
					<line class="st2" x1="144.38" y1="1023.75" x2="211.88" y2="1023.75"/>
				</g>
			</g>
		</g>
	</g>
	<g class="st1">
		<g>
			<g>
				<g>
					<rect x="313.12" y="990" class="st2" width="67.5" height="67.5"/>
					<circle class="st2" cx="346.88" cy="1023.75" r="33.75"/>
					<circle class="st2" cx="346.88" cy="1023.75" r="16.88"/>
					<line class="st2" x1="346.88" y1="1057.5" x2="346.88" y2="990"/>
					<line class="st2" x1="313.12" y1="1023.75" x2="380.62" y2="1023.75"/>
				</g>
			</g>
		</g>
	</g>
	<g class="st1">
		<g>
			<g>
				<g>
					<rect x="481.88" y="990" class="st2" width="67.5" height="67.5"/>
					<circle class="st2" cx="515.62" cy="1023.75" r="33.75"/>
					<circle class="st2" cx="515.62" cy="1023.75" r="16.88"/>
					<line class="st2" x1="515.62" y1="1057.5" x2="515.62" y2="990"/>
					<line class="st2" x1="481.88" y1="1023.75" x2="549.38" y2="1023.75"/>
				</g>
			</g>
		</g>
	</g>
	<g class="st1">
		<g>
			<g>
				<g>
					<rect x="650.62" y="990" class="st2" width="67.5" height="67.5"/>
					<circle class="st2" cx="684.38" cy="1023.75" r="33.75"/>
					<circle class="st2" cx="684.38" cy="1023.75" r="16.88"/>
					<line class="st2" x1="684.38" y1="1057.5" x2="684.38" y2="990"/>
					<line class="st2" x1="650.62" y1="1023.75" x2="718.12" y2="1023.75"/>
				</g>
			</g>
		</g>
	</g>
	<g class="st1">
		<g>
			<g>
				<g>
					<rect x="819.38" y="990" class="st2" width="67.5" height="67.5"/>
					<circle class="st2" cx="853.12" cy="1023.75" r="33.75"/>
					<circle class="st2" cx="853.12" cy="1023.75" r="16.88"/>
					<line class="st2" x1="853.12" y1="1057.5" x2="853.12" y2="990"/>
					<line class="st2" x1="819.38" y1="1023.75" x2="886.88" y2="1023.75"/>
				</g>
			</g>
		</g>
	</g>
	<g class="st1">
		<g>
			<g>
				<g>
					<rect x="988.12" y="990" class="st2" width="67.5" height="67.5"/>
					<circle class="st2" cx="1021.88" cy="1023.75" r="33.75"/>
					<circle class="st2" cx="1021.88" cy="1023.75" r="16.88"/>
					<line class="st2" x1="1021.88" y1="1057.5" x2="1021.88" y2="990"/>
					<line class="st2" x1="988.12" y1="1023.75" x2="1055.62" y2="1023.75"/>
				</g>
			</g>
		</g>
	</g>
	<g class="st1">
		<g>
			<g>
				<g>
					<rect x="144.38" y="1144" class="st2" width="67.5" height="67.5"/>
					<circle class="st2" cx="178.12" cy="1177.75" r="33.75"/>
					<circle class="st2" cx="178.12" cy="1177.75" r="16.88"/>
					<line class="st2" x1="178.12" y1="1211.5" x2="178.12" y2="1144"/>
					<line class="st2" x1="144.38" y1="1177.75" x2="211.88" y2="1177.75"/>
				</g>
			</g>
		</g>
	</g>
	<g class="st1">
		<g>
			<g>
				<g>
					<rect x="313.12" y="1144" class="st2" width="67.5" height="67.5"/>
					<circle class="st2" cx="346.88" cy="1177.75" r="33.75"/>
					<circle class="st2" cx="346.88" cy="1177.75" r="16.88"/>
					<line class="st2" x1="346.88" y1="1211.5" x2="346.88" y2="1144"/>
					<line class="st2" x1="313.12" y1="1177.75" x2="380.62" y2="1177.75"/>
				</g>
			</g>
		</g>
	</g>
	<g class="st1">
		<g>
			<g>
				<g>
					<rect x="481.88" y="1144" class="st2" width="67.5" height="67.5"/>
					<circle class="st2" cx="515.62" cy="1177.75" r="33.75"/>
					<circle class="st2" cx="515.62" cy="1177.75" r="16.88"/>
					<line class="st2" x1="515.62" y1="1211.5" x2="515.62" y2="1144"/>
					<line class="st2" x1="481.88" y1="1177.75" x2="549.38" y2="1177.75"/>
				</g>
			</g>
		</g>
	</g>
	<g class="st1">
		<g>
			<g>
				<g>
					<rect x="650.62" y="1144" class="st2" width="67.5" height="67.5"/>
					<circle class="st2" cx="684.38" cy="1177.75" r="33.75"/>
					<circle class="st2" cx="684.38" cy="1177.75" r="16.88"/>
					<line class="st2" x1="684.38" y1="1211.5" x2="684.38" y2="1144"/>
					<line class="st2" x1="650.62" y1="1177.75" x2="718.12" y2="1177.75"/>
				</g>
			</g>
		</g>
	</g>
	<g class="st1">
		<g>
			<g>
				<g>
					<rect x="819.38" y="1144" class="st2" width="67.5" height="67.5"/>
					<circle class="st2" cx="853.12" cy="1177.75" r="33.75"/>
					<circle class="st2" cx="853.12" cy="1177.75" r="16.88"/>
					<line class="st2" x1="853.12" y1="1211.5" x2="853.12" y2="1144"/>
					<line class="st2" x1="819.38" y1="1177.75" x2="886.88" y2="1177.75"/>
				</g>
			</g>
		</g>
	</g>
	<g class="st1">
		<g>
			<g>
				<g>
					<rect x="988.12" y="1144" class="st2" width="67.5" height="67.5"/>
					<circle class="st2" cx="1021.88" cy="1177.75" r="33.75"/>
					<circle class="st2" cx="1021.88" cy="1177.75" r="16.88"/>
					<line class="st2" x1="1021.88" y1="1211.5" x2="1021.88" y2="1144"/>
					<line class="st2" x1="988.12" y1="1177.75" x2="1055.62" y2="1177.75"/>
				</g>
			</g>
		</g>
	</g>
	<g>
		<g class="st3">
			<g>
				<rect x="519.38" y="62.26" class="st2" width="161.25" height="161.25"/>
				<circle class="st2" cx="600" cy="142.89" r="80.62"/>
				<circle class="st2" cx="600" cy="142.89" r="40.31"/>
				<line class="st2" x1="600" y1="223.51" x2="600" y2="62.26"/>
				<line class="st2" x1="519.38" y1="142.89" x2="680.62" y2="142.89"/>
			</g>
		</g>
	</g>
</g>
<g id="title" class="st0">
	<g class="st3">
		<path d="M480.27,272.44c0.45,0,0.67,0.22,0.67,0.67v1.67c0,0.45-0.22,0.67-0.67,0.67h-15.5c-0.45,0-0.79-0.01-1.03-0.02
			c-0.24-0.02-0.42-0.08-0.53-0.19c-0.11-0.11-0.18-0.3-0.19-0.55c-0.02-0.26-0.02-0.61-0.02-1.05v-32.91
			c0-0.45,0.22-0.67,0.67-0.67h2.2c0.45,0,0.67,0.22,0.67,0.67v31.71H480.27z"/>
		<path d="M485.43,240.54c0-0.64,0.22-1.19,0.67-1.65c0.45-0.46,0.99-0.69,1.63-0.69c0.64,0,1.19,0.23,1.65,0.69
			c0.46,0.46,0.69,1.01,0.69,1.65c0,0.64-0.23,1.18-0.69,1.63c-0.46,0.45-1.01,0.67-1.65,0.67c-0.64,0-1.18-0.22-1.63-0.67
			C485.66,241.72,485.43,241.18,485.43,240.54z M488.83,275.46h-2.1c-0.45,0-0.67-0.22-0.67-0.67v-24.54c0-0.45,0.22-0.67,0.67-0.67
			h2.1c0.45,0,0.67,0.22,0.67,0.67v24.54C489.5,275.23,489.28,275.46,488.83,275.46z"/>
		<path d="M518.15,274.79c0,0.45-0.22,0.67-0.67,0.67h-1.91c-0.45,0-0.67-0.22-0.67-0.67v-15.07c0-2.93-0.53-5.02-1.58-6.24
			c-1.05-1.23-2.53-1.84-4.45-1.84c-2.58,0-4.55,0.72-5.91,2.15c-1.36,1.43-2.03,3.44-2.03,6.03v14.97c0,0.45-0.22,0.67-0.67,0.67
			h-1.91c-0.45,0-0.67-0.22-0.67-0.67v-19.13c0-1.37-0.01-2.44-0.02-3.21c-0.02-0.77-0.06-1.5-0.12-2.2
			c-0.03-0.22,0.02-0.39,0.17-0.5c0.14-0.11,0.31-0.17,0.5-0.17h1.72c0.45,0,0.67,0.22,0.67,0.67v2.63
			c0.89-1.37,1.97-2.38,3.23-3.01c1.26-0.64,2.99-0.96,5.19-0.96c3.03,0,5.31,0.88,6.84,2.63c1.53,1.76,2.3,4.23,2.3,7.42V274.79z"
			/>
		<path d="M528.29,263.45c-0.03,1.59,0.15,3.01,0.55,4.23c0.4,1.23,0.98,2.26,1.74,3.09c0.77,0.83,1.68,1.47,2.75,1.91
			c1.07,0.45,2.26,0.67,3.56,0.67c1.28,0,2.47-0.12,3.59-0.36c1.12-0.24,2.15-0.63,3.11-1.17c0.41-0.19,0.62-0.08,0.62,0.33v2.15
			c0,0.29-0.18,0.51-0.53,0.67c-1.05,0.41-2.15,0.73-3.3,0.93c-1.15,0.21-2.39,0.31-3.73,0.31c-3.92,0-6.89-1.14-8.9-3.42
			c-2.01-2.28-3.01-5.72-3.01-10.31c0-4.05,1.01-7.32,3.01-9.81c2.1-2.52,4.77-3.78,7.99-3.78c1.79,0,3.33,0.32,4.64,0.96
			c1.31,0.64,2.42,1.6,3.35,2.87c1.63,2.26,2.44,5.29,2.44,9.09c0,0.41-0.01,0.73-0.02,0.96c-0.02,0.22-0.07,0.38-0.17,0.48
			c-0.1,0.1-0.26,0.15-0.5,0.17c-0.24,0.02-0.58,0.02-1.03,0.02H528.29z M542.64,260.73c0-1.31-0.13-2.47-0.38-3.49
			c-0.25-1.02-0.65-1.94-1.2-2.77c-1.18-1.88-2.89-2.82-5.12-2.82c-2.3,0-4.16,0.96-5.6,2.87c-0.57,0.86-1.05,1.85-1.43,2.97
			c-0.38,1.12-0.59,2.2-0.62,3.25H542.64z"/>
		<path d="M569,275.46h-2.3c-0.45,0-0.67-0.22-0.67-0.67v-34.06c0-0.45,0.22-0.67,0.67-0.67h2.3c0.45,0,0.67,0.22,0.67,0.67v34.06
			C569.67,275.23,569.44,275.46,569,275.46z"/>
		<path d="M594.3,275.65c-0.96,0.16-1.88,0.27-2.78,0.33c-0.89,0.06-1.96,0.1-3.2,0.1c-1.98,0-3.74-0.35-5.29-1.05
			c-1.55-0.7-2.85-1.66-3.92-2.87c-1.07-1.21-1.89-2.65-2.46-4.31c-0.58-1.66-0.86-3.44-0.86-5.36c0-1.94,0.3-3.74,0.91-5.38
			c0.6-1.64,1.47-3.06,2.61-4.26c1.13-1.2,2.49-2.14,4.07-2.82c1.58-0.69,3.36-1.03,5.33-1.03c1.05,0,2.01,0.04,2.87,0.12
			c0.86,0.08,1.79,0.23,2.77,0.45c0.45,0.13,0.65,0.43,0.62,0.91l-0.14,1.53c-0.06,0.38-0.3,0.53-0.72,0.43
			c-0.83-0.25-1.63-0.44-2.39-0.55c-0.77-0.11-1.61-0.17-2.53-0.17c-1.63,0-3.05,0.26-4.28,0.79c-1.23,0.53-2.26,1.27-3.09,2.22
			c-0.83,0.96-1.45,2.1-1.87,3.42c-0.41,1.32-0.62,2.77-0.62,4.33c0,1.43,0.22,2.81,0.65,4.11c0.43,1.31,1.05,2.46,1.86,3.47
			c0.81,1,1.8,1.8,2.97,2.39c1.16,0.59,2.5,0.89,4,0.89c1.12,0,2.04-0.05,2.77-0.14c0.73-0.1,1.56-0.27,2.49-0.53
			c0.48-0.13,0.73-0.02,0.77,0.33l0.14,1.77C595,275.27,594.78,275.55,594.3,275.65z"/>
		<path d="M623.34,262.54c0,1.88-0.27,3.63-0.81,5.24c-0.54,1.61-1.26,3.02-2.15,4.23c-1.12,1.34-2.45,2.37-3.99,3.11
			c-1.55,0.73-3.31,1.1-5.29,1.1s-3.75-0.37-5.31-1.1c-1.56-0.73-2.9-1.77-4.02-3.11c-0.89-1.21-1.6-2.62-2.13-4.23
			c-0.53-1.61-0.79-3.36-0.79-5.24c0-3.86,0.97-7.01,2.92-9.47c2.23-2.77,5.34-4.16,9.33-4.16c2.01,0,3.78,0.34,5.31,1.03
			c1.53,0.68,2.85,1.73,3.97,3.13C622.35,255.59,623.34,258.75,623.34,262.54z M619.8,262.54c0-1.5-0.2-2.9-0.6-4.21
			c-0.4-1.31-0.95-2.47-1.65-3.49c-1.66-2.04-3.81-3.06-6.46-3.06c-1.34,0-2.54,0.26-3.61,0.79c-1.07,0.53-2.02,1.28-2.85,2.27
			c-0.73,1.02-1.3,2.18-1.7,3.49c-0.4,1.31-0.6,2.71-0.6,4.21c0,1.53,0.2,2.95,0.6,4.26c0.4,1.31,0.96,2.46,1.7,3.44
			c1.69,2.07,3.84,3.11,6.46,3.11c1.34,0,2.54-0.27,3.61-0.81c1.07-0.54,2.02-1.31,2.85-2.3c0.7-0.99,1.25-2.14,1.65-3.44
			C619.6,265.49,619.8,264.07,619.8,262.54z"/>
		<path d="M650.31,274.79c0,0.45-0.22,0.67-0.67,0.67h-1.91c-0.45,0-0.67-0.22-0.67-0.67v-15.07c0-2.93-0.53-5.02-1.58-6.24
			c-1.05-1.23-2.54-1.84-4.45-1.84c-2.58,0-4.55,0.72-5.91,2.15c-1.35,1.43-2.03,3.44-2.03,6.03v14.97c0,0.45-0.22,0.67-0.67,0.67
			h-1.91c-0.45,0-0.67-0.22-0.67-0.67v-19.13c0-1.37-0.01-2.44-0.02-3.21c-0.02-0.77-0.06-1.5-0.12-2.2
			c-0.03-0.22,0.02-0.39,0.17-0.5c0.14-0.11,0.31-0.17,0.5-0.17h1.72c0.45,0,0.67,0.22,0.67,0.67v2.63
			c0.89-1.37,1.97-2.38,3.23-3.01c1.26-0.64,2.99-0.96,5.19-0.96c3.03,0,5.31,0.88,6.84,2.63c1.53,1.76,2.3,4.23,2.3,7.42V274.79z"
			/>
		<path d="M671.89,274.98c-0.51-0.16-0.72-0.45-0.62-0.86l0.19-2.2c0.06-0.25,0.17-0.43,0.31-0.53c0.14-0.1,0.31-0.08,0.5,0.05
			c1.12,0.61,2.24,1.04,3.37,1.31c1.13,0.27,2.43,0.41,3.9,0.41c2.33,0,4.23-0.64,5.71-1.91c1.48-1.28,2.22-3.08,2.22-5.41
			c0-0.93-0.36-1.85-1.07-2.77c-0.72-0.92-1.72-1.8-2.99-2.63c-1.12-0.7-2.38-1.43-3.78-2.2c-1.4-0.77-2.74-1.6-4.02-2.51
			c-1.27-0.91-2.34-1.93-3.2-3.06c-0.86-1.13-1.29-2.45-1.29-3.95c0-1.53,0.32-2.88,0.96-4.04c0.64-1.16,1.49-2.14,2.56-2.92
			c1.07-0.78,2.29-1.38,3.66-1.79c1.37-0.41,2.77-0.62,4.21-0.62c1.24,0,2.34,0.07,3.3,0.22c0.96,0.14,1.99,0.39,3.11,0.74
			c0.48,0.16,0.67,0.45,0.57,0.86l-0.38,1.87c-0.1,0.54-0.37,0.69-0.81,0.43c-0.89-0.41-1.76-0.69-2.61-0.84
			c-0.85-0.14-1.92-0.21-3.23-0.21c-1.05,0-2.05,0.13-2.99,0.38c-0.94,0.26-1.75,0.64-2.44,1.15c-0.69,0.51-1.24,1.15-1.65,1.91
			c-0.42,0.77-0.62,1.67-0.62,2.73c0,0.83,0.28,1.61,0.84,2.34c0.56,0.73,1.24,1.42,2.06,2.06c0.81,0.64,1.69,1.22,2.63,1.75
			c0.94,0.53,1.79,1.01,2.56,1.46c1.05,0.61,2.07,1.23,3.06,1.86c0.99,0.64,1.86,1.36,2.63,2.15c0.77,0.8,1.39,1.67,1.87,2.63
			c0.48,0.96,0.72,2.06,0.72,3.3c0,1.59-0.33,3.01-0.98,4.26c-0.65,1.24-1.52,2.3-2.61,3.16c-1.09,0.86-2.34,1.52-3.75,1.99
			c-1.42,0.46-2.89,0.69-4.42,0.69c-1.4,0-2.66-0.1-3.75-0.29C674.49,275.74,673.26,275.43,671.89,274.98z"/>
		<path d="M699.92,263.45c-0.03,1.59,0.15,3.01,0.55,4.23c0.4,1.23,0.98,2.26,1.74,3.09c0.77,0.83,1.68,1.47,2.75,1.91
			c1.07,0.45,2.26,0.67,3.56,0.67c1.27,0,2.47-0.12,3.59-0.36c1.11-0.24,2.15-0.63,3.11-1.17c0.41-0.19,0.62-0.08,0.62,0.33v2.15
			c0,0.29-0.18,0.51-0.52,0.67c-1.05,0.41-2.15,0.73-3.3,0.93c-1.15,0.21-2.39,0.31-3.73,0.31c-3.92,0-6.89-1.14-8.9-3.42
			c-2.01-2.28-3.01-5.72-3.01-10.31c0-4.05,1.01-7.32,3.01-9.81c2.1-2.52,4.77-3.78,7.99-3.78c1.79,0,3.33,0.32,4.64,0.96
			c1.31,0.64,2.42,1.6,3.35,2.87c1.63,2.26,2.44,5.29,2.44,9.09c0,0.41-0.01,0.73-0.02,0.96c-0.02,0.22-0.07,0.38-0.17,0.48
			c-0.1,0.1-0.26,0.15-0.5,0.17c-0.24,0.02-0.58,0.02-1.03,0.02H699.92z M714.27,260.73c0-1.31-0.13-2.47-0.38-3.49
			c-0.25-1.02-0.65-1.94-1.19-2.77c-1.18-1.88-2.89-2.82-5.12-2.82c-2.3,0-4.16,0.96-5.6,2.87c-0.57,0.86-1.05,1.85-1.43,2.97
			c-0.38,1.12-0.59,2.2-0.62,3.25H714.27z"/>
		<path d="M736.41,275.51c-1.34,0.48-2.66,0.72-3.97,0.72c-2.58,0-4.29-0.85-5.12-2.53c-0.54-1.15-0.81-3.17-0.81-6.07v-15.26h-4.5
			c-0.45,0-0.67-0.22-0.67-0.67v-1.43c0-0.45,0.22-0.67,0.67-0.67h4.5v-6.46c0-0.48,0.21-0.72,0.62-0.72h2.01
			c0.41,0,0.62,0.24,0.62,0.72v6.46h5.31c0.45,0,0.67,0.22,0.67,0.67v1.43c0,0.45-0.22,0.67-0.67,0.67h-5.31v16.89
			c0,2.84,1.15,4.26,3.44,4.26c0.89,0,1.9-0.19,3.01-0.57c0.16-0.06,0.31-0.06,0.45,0c0.14,0.06,0.22,0.19,0.22,0.38l0.1,1.24
			C737.05,275,736.86,275.31,736.41,275.51z"/>
	</g>
	<text transform="matrix(1 0 0 1 540.6548 314.1157)" class="st4 st5 st6">Medicine</text>
	<rect y="1" class="st7" width="1200" height="1335"/>
</g>
<g id="icon">
	<g>
		<path class="st8" d="M200.63,431.38L200.63,431.38c-4.67,4.67-12.3,4.67-16.97,0l-13.79-13.79l-14.5-14.5
			c-4.67-4.67-4.67-12.3,0-16.97l0,0c4.67-4.67,12.3-4.67,16.97,0l28.28,28.28C205.29,419.07,205.29,426.71,200.63,431.38z"/>
		<path class="st8" d="M158.79,399.68c-2.73-2.73-2.73-7.17,0-9.9"/>
		<line class="st8" x1="169.69" y1="417.41" x2="186.66" y2="400.44"/>
	</g>
	<g>
		<g>
			<path class="st8" d="M209,553.56c0-8.96-7.26-15.26-16.21-15.26c-6.59,0-12.25,3.93-14.79,9.58c-2.54-5.65-8.19-9.58-14.79-9.58
				c-8.95,0-16.21,6.31-16.21,15.26c0,1.39,0.61,6.39,4.05,11.45c8.39,12.3,24.9,26.71,26.94,26.71c2.36,0,18.45-14.48,26.47-26.71
				C207.19,560.85,209,554.77,209,553.56z"/>
		</g>
		<polyline class="st8" points="151.05,565 160.33,565 163.11,551.79 179.83,578.61 184.7,567.81 207.34,567.81 		"/>
	</g>
	<g>
		<path class="st8" d="M545.5,435h-60c-0.55,0-1-0.45-1-1v-45c0-0.55,0.45-1,1-1h60c0.55,0,1,0.45,1,1v45
			C546.5,434.55,546.05,435,545.5,435z"/>
		<line class="st8" x1="485.5" y1="400" x2="545.5" y2="400"/>
		<path class="st8" d="M503.5,388l1.48-4.07c1.12-2.41,3.41-3.93,5.92-3.93h9.2c2.51,0,4.8,1.52,5.92,3.93l1.48,4.07"/>
		<line class="st8" x1="509.5" y1="417.25" x2="521.5" y2="417.25"/>
		<line class="st8" x1="515.5" y1="423.25" x2="515.5" y2="411.25"/>
	</g>
	<g>
		<g>
			<line class="st8" x1="679.35" y1="417.25" x2="689.35" y2="417.25"/>
			<line class="st8" x1="684.35" y1="422.25" x2="684.35" y2="412.25"/>
		</g>
		<path class="st8" d="M676.21,389v5.24c0,0.35-0.19,0.67-0.5,0.86c-4.25,2.54-6.87,7.13-6.87,12.1V434c0,2.76,2.24,5,5,5h21
			c2.76,0,5-2.24,5-5v-26.96c0-4.9-2.54-9.43-6.68-11.99c-0.3-0.18-0.48-0.5-0.48-0.85V389"/>
		<g>
			<rect x="674.35" y="379" class="st8" width="20" height="10"/>
		</g>
		<line class="st8" x1="668.85" y1="406.2" x2="699.85" y2="406.2"/>
		<line class="st8" x1="669.01" y1="428" x2="699.68" y2="428"/>
	</g>
	<g>
		<g>
			<line class="st8" x1="860" y1="417.25" x2="870" y2="417.25"/>
			<line class="st8" x1="865" y1="422.25" x2="865" y2="412.25"/>
		</g>
		<path class="st8" d="M855.5,439h21c2.76,0,5-2.24,5-5v-26.96c0-4.9-2.54-9.43-6.68-11.99c-0.3-0.18-0.48-0.5-0.48-0.85V389"/>
		<path class="st8" d="M857.87,389v5.24c0,0.35-0.19,0.67-0.5,0.86c-1.06,0.63-2.02,1.4-2.87,2.26"/>
		<g>
			<rect x="856" y="379" class="st8" width="20" height="10"/>
		</g>
		<line class="st8" x1="852.5" y1="406.2" x2="881.5" y2="406.2"/>
		<line class="st8" x1="860.67" y1="428" x2="881.33" y2="428"/>
		<path class="st8" d="M832.87,402v5.24c0,0.35-0.19,0.67-0.5,0.86c-4.25,2.54-6.87,4.13-6.87,9.1V434c0,2.76,2.24,5,5,5h24
			c2.76,0,5-2.24,5-5v-16.96c0-4.9-2.54-6.43-6.68-8.99c-0.3-0.18-0.48-0.5-0.48-0.85V402"/>
		<g>
			<rect x="831" y="392" class="st8" width="23" height="10"/>
		</g>
		<line class="st8" x1="826.5" y1="416.2" x2="858.5" y2="416.2"/>
		<line class="st8" x1="825.67" y1="431" x2="859.33" y2="431"/>
	</g>
	<g>
		<path class="st8" d="M1045.57,883.4c-4.66,0-8.46-3.79-8.46-8.46c0-4.66,3.79-8.46,8.46-8.46c4.66,0,8.46,3.79,8.46,8.46
			C1054.03,879.6,1050.24,883.4,1045.57,883.4z"/>
		<path class="st8" d="M1045.57,879.17c-2.33,0-4.23-1.9-4.23-4.23c0-2.33,1.9-4.23,4.23-4.23s4.23,1.9,4.23,4.23
			C1049.8,877.27,1047.91,879.17,1045.57,879.17z"/>
		<path class="st8" d="M995.29,846.54c-1.65,0-3-1.35-3-3c0-1.65,1.35-3,3-3s3,1.35,3,3C998.29,845.2,996.94,846.54,995.29,846.54z"
			/>
		<path class="st8" d="M1019.46,846.54c-1.65,0-3-1.35-3-3c0-1.65,1.35-3,3-3c1.65,0,3,1.35,3,3
			C1022.46,845.2,1021.11,846.54,1019.46,846.54z"/>
		<path class="st8" d="M1045.2,884.12c0,9.38-7.67,17.05-17.05,17.05h-3.41c-9.38,0-17.05-7.67-17.05-17.05v-13.09"/>
		<path class="st8" d="M992.28,844.37v11.91c0,7.54,6.17,13.72,13.72,13.72h2.74c7.54,0,13.72-6.17,13.72-13.72v-11.91"/>
		<path class="st8" d="M993.7,861.58c8.38,2.08,19.12,2.46,27.5-0.25"/>
	</g>
	<g>
		<path class="st8" d="M368.25,571.35c0,11.92-9.4,21.58-21,21.58c-11.6,0-21-9.66-21-21.58c0-9.88,14.44-31,19.37-37.92
			c0.8-1.12,2.46-1.12,3.25,0C353.81,540.35,368.25,561.46,368.25,571.35z"/>
		<path class="st8" d="M359.66,579.6c-2.63,4.23-7.21,7.03-12.41,7.03"/>
		<path class="st8" d="M362,571.35c0,1.59-0.24,3.13-0.68,4.58"/>
	</g>
	<g>
		<path class="st8" d="M544.5,588c-1.65,0-3-1.35-3-3s1.35-3,3-3c1.65,0,3,1.35,3,3S546.15,588,544.5,588z"/>
		<path class="st8" d="M501.74,577h-1.43c-1.19,0-2.33-0.42-3.24-1.19c-3.47-2.95-12.08-10.53-12.08-13.33V533c0-0.55,0.45-1,1-1h29
			c0.55,0,1,0.45,1,1v29.84c0,2.59-7.62,9.86-10.88,12.85C504.2,576.54,502.99,577,501.74,577z"/>
		<path class="st8" d="M511,553.83v8.32c-0.77,1.3-3.64,4.7-9.26,9.86l0.01-0.01h-1.43c-6.27-5.32-9.47-8.87-10.31-10.23v-1.27
			c0,0,0.38-5.18,6-3.67c4.33,1.17,4.83-2.33,7.67-4.5C506.02,550.53,511,551.17,511,553.83z"/>
		<path class="st8" d="M545,581v-26.98c0-4.14-3.36-7.5-7.5-7.5l0,0c-4.14,0-7.5,3.36-7.5,7.5v26.77c0,7.35-5.96,13.31-13.31,13.31
			h-0.38c-7.35,0-13.31-5.96-13.31-13.31V577"/>
		<line class="st8" x1="499" y1="577" x2="499" y2="581"/>
		<line class="st8" x1="490" y1="538" x2="496" y2="538"/>
		<line class="st8" x1="490" y1="544.5" x2="496" y2="544.5"/>
		<line class="st8" x1="490" y1="551" x2="496" y2="551"/>
	</g>
	<g>
		<ellipse transform="matrix(0.9969 -0.0782 0.0782 0.9969 -30.0999 27.4992)" class="st8" cx="336" cy="398" rx="18" ry="18"/>
		<path class="st8" d="M323.48,401.48c-1.11-4.03-0.28-8.52,2.64-11.93"/>
		<line class="st8" x1="323.39" y1="410.29" x2="346.28" y2="383.51"/>
		<line class="st8" x1="326.39" y1="412.79" x2="349.28" y2="386.01"/>
		
			<ellipse transform="matrix(0.975 -0.2223 0.2223 0.975 -85.3226 91.1529)" class="st8" cx="362.31" cy="424.64" rx="12.19" ry="12.19"/>
		<line class="st8" x1="351.99" y1="418.15" x2="372.63" y2="431.13"/>
	</g>
	<g>
		<path class="st8" d="M708.25,586.25L708.25,586.25c-5,5-13.19,5-18.19,0l-14.78-14.78l-15.53-15.53c-5-5-5-13.19,0-18.19l0,0
			c5-5,13.19-5,18.19,0l30.31,30.31C713.25,573.06,713.25,581.25,708.25,586.25z"/>
		<path class="st8" d="M695.81,566.86l-6.95,6.95c-0.84,0.84-2.19,0.84-3.03,0l-13.64-13.64c-0.84-0.84-0.84-2.19,0-3.03l6.95-6.95
			c0.84-0.84,2.19-0.84,3.03,0l13.64,13.64C696.65,564.67,696.65,566.02,695.81,566.86z"/>
		<path class="st8" d="M702.21,561.97l6.04-6.04c5-5,5-13.19,0-18.19l0,0c-5-5-13.19-5-18.19,0l-6.04,6.04"/>
		<path class="st8" d="M665.81,562.01l-6.06,6.06c-5,5-5,13.19,0,18.19l0,0c5,5,13.19,5,18.19,0l5.79-5.79"/>
	</g>
	<g>
		<polyline class="st8" points="690.36,744.38 690.36,728 701.86,728 701.86,744.38 		"/>
		<line class="st8" x1="655.24" y1="744.38" x2="713.37" y2="744.38"/>
		<polyline class="st8" points="657.12,744.38 657.12,717.59 681.22,717.59 		"/>
		<polyline class="st8" points="681.42,744.38 681.42,705.72 710.8,705.72 710.8,744.38 		"/>
		<polyline class="st8" points="687.05,705.58 687.05,688.08 705.17,688.08 705.17,705.58 		"/>
		<g>
			<line class="st8" x1="696.11" y1="693.14" x2="696.11" y2="701.14"/>
			<line class="st8" x1="692.11" y1="697.14" x2="700.11" y2="697.14"/>
		</g>
		<line class="st8" x1="657.12" y1="736.72" x2="680.87" y2="736.72"/>
	</g>
	<g>
		<g>
			<path class="st8" d="M190.67,692.27H198c0.55,0,1,0.45,1,1v51.8c0,0.55-0.45,1-1,1h-40c-0.55,0-1-0.45-1-1v-51.8
				c0-0.55,0.45-1,1-1h7.17"/>
		</g>
		<path class="st8" d="M183.59,689.17c-0.47,0-0.87-0.33-0.97-0.79c-0.47-2.12-2.35-3.71-4.62-3.71s-4.15,1.59-4.62,3.71
			c-0.1,0.46-0.5,0.79-0.97,0.79h-3.04c-1.84,0-3.44,1.25-3.88,3.03l-1.24,4.97h27.5l-1.24-4.97c-0.45-1.78-2.05-3.03-3.88-3.03
			H183.59z"/>
		<polyline class="st8" points="164,713 169,713 172.33,708 178.67,718.33 185.33,705.33 188.67,713 192.67,713 		"/>
		<line class="st8" x1="164.35" y1="725.84" x2="191.65" y2="725.84"/>
		<line class="st8" x1="171.51" y1="732.7" x2="184.49" y2="732.7"/>
	</g>
	<g>
		<g>
			<line class="st8" x1="668.68" y1="871.42" x2="682.68" y2="871.42"/>
			<line class="st8" x1="675.68" y1="878.42" x2="675.68" y2="864.42"/>
		</g>
		<g>
			<path class="st8" d="M673.77,892.04c0,3.86-3.13,6.98-6.98,6.98c-3.86,0-6.98-3.13-6.98-6.98c0-3.86,3.13-6.98,6.98-6.98
				C670.64,885.05,673.77,888.18,673.77,892.04z"/>
			<circle class="st8" cx="701.4" cy="892.04" r="6.98"/>
			<path class="st8" d="M708.29,890.8h6.09c1.15,0,2.1-0.95,2.1-2.1V874c0-2.17-2.32-3.17-5.57-4.67"/>
			<line class="st8" x1="694.58" y1="890.8" x2="673.48" y2="890.8"/>
			<path class="st8" d="M696.61,869.42h14.28l0,0c0-5.55-2.94-11.09-8.19-11.09h-6.1V869.42z"/>
			<path class="st8" d="M660.16,890.8h-5.12c-1.15,0-2.1-0.95-2.1-2.1v-32.94c0-1.16,0.95-2.11,2.1-2.11h43.71
				c2.49,0,3.95,0.77,4.67,2.43l0.72,2.17"/>
		</g>
		<polyline class="st8" points="694.33,853.33 694.33,848 699,848 699,853.65 		"/>
		<line class="st8" x1="658" y1="845" x2="678.5" y2="845"/>
		<line class="st8" x1="674" y1="839.5" x2="683.5" y2="839.5"/>
	</g>
	<g>
		<g>
			<line class="st8" x1="1016.18" y1="413.5" x2="1026.18" y2="413.5"/>
			<line class="st8" x1="1021.18" y1="418.5" x2="1021.18" y2="408.5"/>
		</g>
		<path class="st8" d="M990.12,400.94c0.29,12.26,7.82,22.75,18.55,27.41v6.17c0,1.18,0.96,2.14,2.14,2.14h20.72
			c1.18,0,2.14-0.96,2.14-2.14v-6.17c10.73-4.67,18.27-15.15,18.55-27.41H990.12z"/>
		<path class="st8" d="M1028.62,400.95l17.61-17.61c1.43-1.43,3.76-1.43,5.19,0l0.37,0.37c1.43,1.43,1.43,3.76,0,5.19L1039.5,401"/>
		<line class="st8" x1="1013.93" y1="429.17" x2="1028.43" y2="429.17"/>
	</g>
	<g>
		<g>
			<line class="st8" x1="845.15" y1="580.59" x2="840.59" y2="576"/>
			<line class="st8" x1="850" y1="575.78" x2="845.44" y2="571.19"/>
			<line class="st8" x1="854.85" y1="570.97" x2="850.29" y2="566.38"/>
			<line class="st8" x1="859.7" y1="566.16" x2="855.14" y2="561.57"/>
		</g>
		<polyline class="st8" points="873.33,553.86 840.01,586.9 828.61,575.41 861.94,542.37 		"/>
		<polyline class="st8" points="836.84,584.22 833.01,588.02 827.44,582.4 831.27,578.6 		"/>
		<line class="st8" x1="880.72" y1="542.16" x2="871.52" y2="551.27"/>
		<line class="st8" x1="864.43" y1="544.13" x2="873.63" y2="535.01"/>
		<line class="st8" x1="859.28" y1="539.69" x2="875.99" y2="556.54"/>
		<line class="st8" x1="870.63" y1="531.98" x2="883.79" y2="545.26"/>
		<line class="st8" x1="824.61" y1="590.78" x2="829.2" y2="586.22"/>
	</g>
	<g>
		<line class="st8" x1="1017" y1="541.67" x2="1022" y2="541.67"/>
		<line class="st8" x1="1017" y1="548.78" x2="1022" y2="548.78"/>
		<line class="st8" x1="1017" y1="555.89" x2="1022" y2="555.89"/>
		<line class="st8" x1="1017" y1="563" x2="1022" y2="563"/>
		<path class="st8" d="M1022.76,593.5c-7.89,0-14.31-6.21-14.31-13.83c0-4.91,2.74-9.49,7.16-11.97l1.02-0.57v-30.2
			c0-3.27,2.75-5.93,6.13-5.93s6.13,2.66,6.13,5.93v30.2l1.02,0.57c4.42,2.47,7.16,7.06,7.16,11.97
			C1037.07,587.29,1030.65,593.5,1022.76,593.5z"/>
	</g>
	<g>
		<path class="st8" d="M826.5,742h-4c-0.55,0-1-0.45-1-1v-49c0-0.55,0.45-1,1-1h4c0.55,0,1,0.45,1,1v49
			C827.5,741.55,827.05,742,826.5,742z"/>
		<path class="st8" d="M884,742h-4c-0.55,0-1-0.45-1-1v-49c0-0.55,0.45-1,1-1h4c0.55,0,1,0.45,1,1v49C885,741.55,884.55,742,884,742
			z"/>
		<line class="st8" x1="846" y1="736" x2="828" y2="736"/>
		<line class="st8" x1="828" y1="712" x2="846" y2="712"/>
		<path class="st8" d="M878.34,738H847c-0.55,0-1-0.45-1-1v-27c0-0.55,0.45-1,1-1h31.34"/>
		<path class="st8" d="M828,705h4.33c3.68,0,6.67,2.98,6.67,6.67l0,0"/>
	</g>
	<g>
		<g>
			<line class="st8" x1="178.18" y1="842.01" x2="178.18" y2="847.64"/>
			<line class="st8" x1="175.37" y1="844.83" x2="181" y2="844.83"/>
		</g>
		<circle class="st8" cx="178.18" cy="864" r="13"/>
		<path class="st8" d="M152.18,902.59c1.87-14.14,12.81-25,26.03-25c13.1,0,23.96,10.67,25.97,24.63"/>
		<path class="st8" d="M186.17,853.17l6.67-10.33c-3.92-3.01-9.18-5.33-14.11-5.33c-5.38,0-10.39,2.07-14.54,5.61l6.29,8.89"/>
		<polyline class="st8" points="165.75,881.5 170.75,888.5 178.21,877.59 185.5,888.5 191.25,881.5 		"/>
		<path class="st8" d="M166.67,865.33c0,0,12.33,0,17.33-12.33"/>
	</g>
	<g>
		<path class="st8" d="M353.73,852.01c3.63,2.31,6.05,6.36,6.05,10.99c0,7.18-5.82,13-13,13c-7.18,0-13-5.82-13-13
			c0-4.5,2.29-8.47,5.77-10.8"/>
		<path class="st8" d="M320.78,901.59c1.87-14.14,12.81-25,26.03-25c13.1,0,23.96,10.67,25.97,24.63"/>
		<polyline class="st8" points="335.95,880.33 346.95,901.33 357.61,880 		"/>
		<circle class="st8" cx="346.78" cy="847.67" r="8"/>
		<circle class="st8" cx="346.78" cy="847.67" r="4"/>
		<polyline class="st8" points="351.67,878 348.67,883 344,883 341,878 		"/>
		<line class="st8" x1="344" y1="883" x2="342.33" y2="892.33"/>
		<line class="st8" x1="348.67" y1="883" x2="351" y2="891.67"/>
	</g>
	<g>
		<path class="st8" d="M1022,1185.85c3.61,0,4.59,3.43,5.94,8.5c1.12,4.21,2.56,15.07,7.07,13.1c4.51-1.96,2.38-16.78,7.22-27.5
			c4.36-9.65,10.52-23.06-1.05-29.6c-10.62-6-15.77,4.22-19.17,4.22c-3.23,0-8.55-10.22-19.17-4.22
			c-11.58,6.54-6.31,19.95-1.95,29.6c4.84,10.71,3.61,25.53,8.12,27.5c4.51,1.96,5.94-8.89,7.07-13.1
			C1017.41,1189.28,1018.39,1185.85,1022,1185.85z"/>
		<path class="st8" d="M1034.4,1154.62c1.19,0,2.39,0.36,3.69,1.09c2.37,1.34,3.68,3.04,4.09,5.29"/>
	</g>
	<g>
		<path class="st8" d="M522.46,1007.32v31.36c0,3.16,1.91,7.04,4.59,7.7l3.27,0.06c1.85,0.04,3.64,0.75,5.12,2.04l2.97,2.6
			c3.57,2.06,7.83-0.55,8.35-5.11v-15.81c0-18.2-20.3-25.96-20.3-25.96C524.54,1003.33,522.46,1004.95,522.46,1007.32z"/>
		<path class="st8" d="M508.85,1007.32v31.36c0,3.16-1.91,7.04-4.59,7.7l-3.27,0.06c-1.85,0.04-3.64,0.75-5.12,2.04l-2.97,2.6
			c-3.57,2.06-7.83-0.55-8.35-5.11v-15.81c0-18.2,20.3-25.96,20.3-25.96C506.77,1003.33,508.85,1004.95,508.85,1007.32z"/>
		<line class="st8" x1="515.67" y1="994.33" x2="515.67" y2="1009.4"/>
		<polyline class="st8" points="509.17,1021.34 515.67,1009.4 521.83,1021.34 		"/>
	</g>
	<g>
		<path class="st8" d="M533.1,871.29c0,4.97-4.03,9.2-9,9.2c-4.97,0-9-4.23-9-9.2s4.03-9,9-9
			C529.07,862.29,533.1,866.32,533.1,871.29z"/>
		<path class="st8" d="M483.64,862.21l21.97,0.06c4.95,0.01,8.99,4.07,8.98,9.02l0,0c-0.01,4.95-4.07,9.21-9.02,9.2"/>
		<path class="st8" d="M483.64,880.5h51.21c1.29,0,2.33,1.05,2.33,2.34l0,0c0,1.29-1.05,2.33-2.34,2.32l-51.2-0.15"/>
		<path class="st8" d="M497.08,862c2.52-11.72,12.94-20.5,25.42-20.5c14.36,0,26,11.64,26,26s-11.64,26-26,26
			c-7.58,0-14.41-3.25-19.16-8.42"/>
		<path class="st8" d="M506.41,862c2.29-6.69,8.63-11.5,16.09-11.5c9.39,0,17,7.61,17,17c0,5.05-2.21,9.59-5.71,12.71"/>
	</g>
	<g>
		<path class="st8" d="M209,1178c0,0-13.88,18-31,18s-31-18-31-18s13.88-18,31-18S209,1178,209,1178z"/>
		<circle class="st8" cx="178" cy="1178" r="18"/>
		<circle class="st8" cx="178" cy="1178" r="6"/>
	</g>
	<g>
		<path class="st8" d="M357.55,999.84l-1.98,21.18c-1.01,10.25-9.49,18.14-19.78,18.42l-3.76,0.1c-4.86,0.04-8.43,6.65-9.86,8.04
			c-2.67,2.58-4.77,0.93-5.08-0.75c-1.66-8.85-4.57-29.29,0.58-37.83c6.21-10.3,14.67-9.25,25.59-9.16h29.79
			c4.74,0,7.68,5.15,5.28,9.23l-1.38,2.34l-4.53,10.42c-2.45,5.1-7.51,8.43-13.17,8.67l-7.15,0.3"/>
		<path class="st8" d="M352.36,999.84c0,0,3.23,7.32,3.74,14.47"/>
	</g>
	<g>
		<path class="st8" d="M826.42,1051.49c0,0,2.71-6.58,4.52-9.42c1.81-2.84,4.39-4.66,8.39-3.49c6.45,1.89,4.13,16.78,22.72,16.01
			c18.59-0.77,22.98-26.98,22.2-35.88c-0.77-8.91-6.97-19.88-17.3-18.07c-0.69,0.12-1.35,0.28-1.99,0.45
			c-2.26-2.52-5.07-7.94-5.07-7.94"/>
		<path class="st8" d="M855.77,995.13c0,0,2.68,5.17,4.91,7.76c-5.32,3.24-7.54,9.36-5.6,17.89c2.58,11.36-4.23,12.91-7.23,12.91
			c-6.2,0-6.84-3.74-13.3-2.84c-9.46,1.32-13.55,20.65-13.55,20.65"/>
	</g>
	<g>
		<path class="st8" d="M333.5,1149.5c0,0,5.25,2.75,6,7.5c1.03,6.5-5.61,27.5-5.61,27.5c-5.52,0-10,3.98-10,9.5
			c0,5.52,4.48,10,10,10c2.1,0,4.04-0.65,5.65-1.75c1.22,2.86,4.06,4.86,7.36,4.86"/>
		<path class="st8" d="M360.5,1149.5c0,0-5,2.25-6,7.5c-1.23,6.46,5.61,27.5,5.61,27.5c5.52,0,10,3.98,10,9.5c0,5.52-4.48,10-10,10
			c-2.1,0-4.04-0.65-5.65-1.75c-1.22,2.86-4.06,4.86-7.36,4.86"/>
	</g>
	<g>
		<path class="st8" d="M547.17,1173.67c0,0-11.33,5.33-31.67,5.67c-20-0.67-31.67-5.67-31.67-5.67s4.67-0.17,7-1.17
			c2.33-1,4.74-3.56,10.17-7c3.79-2.4,10.42-2.54,14.61,1.35l0,0c3.68-3.73,9.88-4.15,14.22-1.69c6.17,3.5,8.67,6.17,10.83,7.17
			C542.83,1173.33,547.17,1173.67,547.17,1173.67z"/>
		<path class="st8" d="M547.17,1173.67c0,0-6.67,5.67-8.83,8.17c-2.17,2.5-9.65,11.39-22.83,11.67
			c-13.19-0.28-19.33-9.17-22.67-12.17c-3.5-3-9-7.67-9-7.67"/>
	</g>
	<g>
		<path class="st8" d="M670.25,1161.75c3-6.75,7.16-14.95,15.25-15.25c13.5-0.5,23.75,9.25,22,24.5c-1.2,10.44-9.5,33.5-19.5,37
			c-13.11,4.59-20-8.5-20-8.5"/>
		<path class="st8" d="M669.64,1191.44c0,0,5.94-0.49,6.04-4.1c0.1-3.62-5.82-9.38-2.83-16.04s11.57-17,21.21-10.81
			c8.49,5.45-3.32,23.43-3.32,23.43"/>
		<path class="st8" d="M677.63,1164.08c0,0-3.63,7.12-2.05,10.11c1.59,3.01,4.11,1.8,4.19,4.68c0.06,2.14-1.95,6.35-3.99,7.97"/>
	</g>
	<g>
		<path class="st8" d="M672.92,1021.08c-1.17,8.25,5.47,14.91-2.3,19.87c-6.75,4.31-18.88-5.77-16.51-22.53
			c2.37-16.77,16.87-23.14,22.1-17.08C682,1008.06,674.13,1012.5,672.92,1021.08z"/>
		<path class="st8" d="M696.08,1021.08c1.17,8.25-5.47,14.91,2.3,19.87c6.75,4.31,18.88-5.77,16.51-22.53
			c-2.37-16.77-16.87-23.14-22.1-17.08C687,1008.06,694.87,1012.5,696.08,1021.08z"/>
		<path class="st8" d="M673.12,1021.08c0,0,11.12-0.08,11.75,14.29c0,0,1.04-13.88,10.88-14.38"/>
		<line class="st8" x1="684.88" y1="1035.67" x2="684.88" y2="1054.67"/>
		<path class="st8" d="M675.33,1015.67c0,0,2,1.83,2.17,6.17c0,0-0.67,3.33-3.67,4.83"/>
		<path class="st8" d="M693.5,1015.5c0,0-3.01,2.81-1.83,6.67c1.17,3.83,4.17,3.83,4.17,3.83"/>
	</g>
	<g>
		<path class="st8" d="M1001.71,1044.05c0,0,4.25-3.72-1.59-16.47c-5.85-12.75-3.52-24.61,9.3-31.88
			c17.8-10.1,35.53,4.52,36.13,14.88c0.4,6.91-2.92,6.38-2.66,10.1c0.27,3.72,6.69,8.1,5.23,9.56c-0.71,0.71-3.9,1.33-3.9,1.33
			l0.49,2.9c0.24,0.45,0.11,1.01-0.29,1.34c-1.04,0.85-1.17,1.56-1.08,2.04c0.08,0.37,0,0.77-0.31,1c-0.5,0.37-1.17,1.06-1.48,2.29
			c-0.53,2.13,1.06,3.72-1.33,5.31c-2.39,1.59-9.83,0-9.83,0s-2.39-0.27-4.52,3.19c-2.13,3.45-2.56,5.7-2.56,5.7"/>
		<path class="st8" d="M1004.1,1011.91c0,0-2.92,6.11,2.66,8.5c5.58,2.39,10.36-2.92,13.02-6.11c1.83-2.2,7.05-2.47,11.16-1.59
			c3.72,0.8,9.3-5.05,4.78-9.83C1029.4,996.18,1009.95,995.43,1004.1,1011.91z"/>
		<path class="st8" d="M1028.01,1007.12c0,0,3.72,0.53,0.53,4.78"/>
		<path class="st8" d="M1012.34,1020.41c0,0,1.33,5.58-1.33,8.5"/>
		<path class="st8" d="M1012.6,1001.55c0,0,4.25-0.27,5.05,2.66"/>
		<path class="st8" d="M1004.37,1017.75c0.8-0.27,5.84-1.06,5.84-4.25"/>
	</g>
	<g>
		<g>
			<path class="st8" d="M161.96,1013.79h38.62c4.13,0,7.48-3.35,7.48-7.48v0c0-4.13-3.35-7.48-7.48-7.48h-44.23
				c-5.17,0-9.35,4.19-9.35,9.35v11.22c0,5.17,4.19,9.35,9.35,9.35h5.61"/>
			<line class="st8" x1="161.96" y1="1028.75" x2="194.04" y2="1028.75"/>
		</g>
		<path class="st8" d="M194.04,1028.75h-39.55c-4.13,0-7.48,3.35-7.48,7.48l0,0c0,4.13,3.35,7.48,7.48,7.48h2.81v5.61
			c0,2.58,2.09,4.68,4.68,4.68l0,0c2.58,0,4.68-2.09,4.68-4.68v-5.61h33.01c5.17,0,9.35-4.19,9.35-9.35v-9.35
			c0-6.2-5.02-11.22-11.22-11.22"/>
	</g>
	<g>
		<path class="st8" d="M847.63,1195.47l23.46-23.46c3.23,2.45,7.85,2.22,10.79-0.73c3.22-3.22,3.21-8.44-0.01-11.66
			c-2-2-4.77-2.76-7.36-2.28c0.48-2.58-0.28-5.36-2.28-7.36c-3.22-3.22-8.44-3.23-11.66-0.01c-2.94,2.94-3.18,7.56-0.73,10.79
			l-23.46,23.46c-3.23-2.45-7.85-2.22-10.79,0.73c-3.22,3.22-3.21,8.44,0.01,11.66c2,2,4.77,2.76,7.36,2.28
			c-0.48,2.58,0.28,5.36,2.28,7.36c3.22,3.22,8.44,3.23,11.66,0.01C849.84,1203.32,850.08,1198.7,847.63,1195.47z"/>
	</g>
	<g>
		<g>
			<path class="st8" d="M869.96,846.55c0-4.88-3.95-8.32-8.84-8.32c-3.59,0-6.68,2.14-8.06,5.22c-1.38-3.08-4.47-5.22-8.06-5.22
				c-4.88,0-8.84,3.44-8.84,8.32c0,0.76,0.33,3.48,2.21,6.24c4.58,6.71,13.57,14.56,14.69,14.56c1.28,0,10.06-7.89,14.43-14.56
				C868.97,850.53,869.96,847.21,869.96,846.55z"/>
		</g>
		<path class="st8" d="M875.88,891.56v-4.05c0-1.58,5.52-8.78,7.91-13.01c0.71-1.25,1.09-2.72,1.09-4.21v-21.27
			c0-3.1-2.43-5.59-5.21-5.09c-2.21,0.39-3.79,2.69-3.79,5.25v11.27"/>
		<path class="st8" d="M872.8,875.97l4.95-7.58c1.21-2.12,0.97-5.01-0.71-6.65c-2.03-2-5.08-1.43-6.49,1.05l-8.4,13.66
			c-0.97,1.39-1.56,3.15-1.56,5.06v4.46v5.6"/>
		<path class="st8" d="M876.58,900.41h-15.8c-1.1,0-2-0.9-2-2v-4.85c0-1.1,0.9-2,2-2h15.8c1.1,0,2,0.9,2,2v4.85
			C878.58,899.52,877.69,900.41,876.58,900.41z"/>
		<path class="st8" d="M830.78,891.56v-4.05c0-1.58-5.52-8.78-7.91-13.01c-0.71-1.25-1.09-2.72-1.09-4.21v-21.27
			c0-3.1,2.43-5.59,5.21-5.09c2.21,0.39,3.79,2.69,3.79,5.25v11.27"/>
		<path class="st8" d="M833.87,875.97l-4.95-7.58c-1.21-2.12-0.97-5.01,0.71-6.65c2.03-2,5.08-1.43,6.49,1.05l8.4,13.66
			c0.97,1.39,1.56,3.15,1.56,5.06v4.46v5.6"/>
		<path class="st8" d="M830.08,900.41h15.8c1.1,0,2-0.9,2-2v-4.85c0-1.1-0.9-2-2-2h-15.8c-1.1,0-2,0.9-2,2v4.85
			C828.08,899.52,828.98,900.41,830.08,900.41z"/>
	</g>
	<g>
		<g>
			<path class="st9" d="M351.21,745.19c0,0.55-0.45,1-1,1h-31.6c-0.55,0-1-0.45-1-1v-56.8c0-0.55,0.45-1,1-1h31.6c0.55,0,1,0.45,1,1
				V745.19z"/>
			<line class="st9" x1="317.61" y1="731.18" x2="351.16" y2="731.18"/>
			<line class="st9" x1="317.61" y1="695.13" x2="351.16" y2="695.13"/>
			<path class="st9" d="M334.79,739.59c0,0.52-0.42,0.94-0.94,0.94c-0.52,0-0.94-0.42-0.94-0.94c0-0.52,0.42-0.94,0.94-0.94
				C334.37,738.65,334.79,739.07,334.79,739.59z"/>
		</g>
		<g>
			<path class="st8" d="M335.15,720.19c0-3.12,2.54-5.66,5.66-5.66c3.12,0,5.66,2.54,5.66,5.66c0,3.12-2.54,5.66-5.66,5.66
				C337.69,725.86,335.15,723.32,335.15,720.19z"/>
			<path class="st8" d="M372.48,698.34c0-1.11,0.9-2.01,2.01-2.01s2.01,0.9,2.01,2.01c0,1.11-0.9,2.01-2.01,2.01
				S372.48,699.45,372.48,698.34z"/>
			<path class="st8" d="M356.29,698.34c0-1.11,0.9-2.01,2.01-2.01c1.11,0,2.01,0.9,2.01,2.01c0,1.11-0.9,2.01-2.01,2.01
				C357.19,700.35,356.29,699.45,356.29,698.34z"/>
			<path class="st8" d="M341.07,726.34c0,6.28,5.14,11.42,11.42,11.42h2.28c6.28,0,11.42-5.14,11.42-11.42v-6.59"/>
			<path class="st8" d="M376.5,698.9v10.98c0,5.05-4.13,9.19-9.19,9.19h-1.84c-5.05,0-9.19-4.13-9.19-9.19V698.9"/>
		</g>
	</g>
	<g>
		<polyline class="st8" points="493.67,712 505.67,712 509,707 515.33,720.33 522,701.33 525.33,712 536.33,712 		"/>
		<g>
			<path class="st9" d="M543.4,732.95h-56.8c-0.55,0-1-0.45-1-1v-37.9c0-0.55,0.45-1,1-1h56.8c0.55,0,1,0.45,1,1v37.9
				C544.4,732.5,543.95,732.95,543.4,732.95z"/>
			<line class="st9" x1="501.01" y1="743.41" x2="528.99" y2="743.41"/>
			<line class="st9" x1="485.6" y1="726.04" x2="544.4" y2="726.04"/>
			<line class="st9" x1="508.17" y1="732.95" x2="508.17" y2="743.41"/>
			<line class="st8" x1="521.83" y1="733.13" x2="521.83" y2="743.23"/>
		</g>
	</g>
	<g>
		<path class="st8" d="M1041,747c0-20.26-10.42-26.16-18-31c-7.58-4.84-18-10.74-18-31"/>
		<path class="st8" d="M1005,747c0-20.26,10.42-26.16,18-31c7.58-4.84,18-10.74,18-31"/>
		<line class="st8" x1="1005.59" y1="689" x2="1040.64" y2="689"/>
		<line class="st8" x1="1006.54" y1="695.25" x2="1039.7" y2="695.25"/>
		<line class="st8" x1="1008.43" y1="701.5" x2="1036.86" y2="701.5"/>
		<line class="st8" x1="1013.17" y1="707.75" x2="1033.07" y2="707.75"/>
		<line class="st8" x1="1014.12" y1="722.83" x2="1032.12" y2="722.83"/>
		<line class="st8" x1="1009.38" y1="729.08" x2="1036.86" y2="729.08"/>
		<line class="st8" x1="1006.54" y1="735.33" x2="1038.75" y2="735.33"/>
		<line class="st8" x1="1005.59" y1="741.58" x2="1040.64" y2="741.58"/>
	</g>
</g>
</svg>
