<?xml version="1.0" encoding="utf-8"?>
<!-- Generator: Adobe Illustrator 27.0.0, SVG Export Plug-In . SVG Version: 6.00 Build 0)  -->
<svg version="1.1" xmlns="http://www.w3.org/2000/svg" xmlns:xlink="http://www.w3.org/1999/xlink" x="0px" y="0px"
	 viewBox="0 0 67.75 67.75" style="enable-background:new 0 0 67.75 67.75;" xml:space="preserve">
<style type="text/css">
	.st0{display:none;}
	.st1{display:inline;opacity:0.5;}
	.st2{fill:none;stroke:#E62AFF;stroke-width:0.25;stroke-miterlimit:10;}
	.st3{display:inline;}
	.st4{display:inline;fill:none;stroke:#FFFFFF;stroke-width:2;stroke-miterlimit:10;}
	.st5{fill:none;stroke:#000000;stroke-width:2;stroke-linecap:round;stroke-linejoin:round;stroke-miterlimit:10;}
	.st6{fill:none;stroke:#000000;stroke-width:2;stroke-linecap:round;stroke-linejoin:round;}
</style>
<g id="guide" class="st0">
	<g class="st1">
		<g>
			<g>
				<g>
					<rect x="0.12" y="0.12" class="st2" width="67.5" height="67.5"/>
					<circle class="st2" cx="33.88" cy="33.88" r="33.75"/>
					<circle class="st2" cx="33.88" cy="33.88" r="16.88"/>
					<line class="st2" x1="33.88" y1="67.62" x2="33.88" y2="0.12"/>
					<line class="st2" x1="0.12" y1="33.88" x2="67.62" y2="33.88"/>
				</g>
			</g>
		</g>
	</g>
</g>
<g id="title" class="st0">
	<rect x="-650.5" y="-527.62" class="st4" width="1200" height="1335"/>
</g>
<g id="icon">
	<g>
		<path class="st5" d="M57.75,57.62L57.75,57.62c-5,5-13.19,5-18.19,0L24.79,42.85L9.25,27.31c-5-5-5-13.19,0-18.19l0,0
			c5-5,13.19-5,18.19,0l30.31,30.31C62.75,44.44,62.75,52.62,57.75,57.62z"/>
		<path class="st5" d="M45.31,38.24l-6.95,6.95c-0.84,0.84-2.19,0.84-3.03,0L21.69,31.55c-0.84-0.84-0.84-2.19,0-3.03l6.95-6.95
			c0.84-0.84,2.19-0.84,3.03,0L45.31,35.2C46.15,36.04,46.15,37.4,45.31,38.24z"/>
		<path class="st5" d="M51.71,33.35l6.04-6.04c5-5,5-13.19,0-18.19l0,0c-5-5-13.19-5-18.19,0l-6.04,6.04"/>
		<path class="st5" d="M15.31,33.38l-6.06,6.06c-5,5-5,13.19,0,18.19l0,0c5,5,13.19,5,18.19,0l5.79-5.79"/>
	</g>
</g>
</svg>
