<?xml version="1.0" encoding="utf-8"?>
<!-- Generator: Adobe Illustrator 27.0.0, SVG Export Plug-In . SVG Version: 6.00 Build 0)  -->
<svg version="1.1" xmlns="http://www.w3.org/2000/svg" xmlns:xlink="http://www.w3.org/1999/xlink" x="0px" y="0px"
	 viewBox="0 0 67.75 67.75" style="enable-background:new 0 0 67.75 67.75;" xml:space="preserve">
<style type="text/css">
	.st0{display:none;}
	.st1{display:inline;opacity:0.5;}
	.st2{fill:none;stroke:#E62AFF;stroke-width:0.25;stroke-miterlimit:10;}
	.st3{display:inline;}
	.st4{display:inline;fill:none;stroke:#FFFFFF;stroke-width:2;stroke-miterlimit:10;}
	.st5{fill:none;stroke:#000000;stroke-width:2;stroke-linecap:round;stroke-linejoin:round;stroke-miterlimit:10;}
	.st6{fill:none;stroke:#000000;stroke-width:2;stroke-linecap:round;stroke-linejoin:round;}
</style>
<g id="guide" class="st0">
	<g class="st1">
		<g>
			<g>
				<g>
					<rect x="0.12" y="0.12" class="st2" width="67.5" height="67.5"/>
					<circle class="st2" cx="33.88" cy="33.88" r="33.75"/>
					<circle class="st2" cx="33.88" cy="33.88" r="16.88"/>
					<line class="st2" x1="33.88" y1="67.62" x2="33.88" y2="0.12"/>
					<line class="st2" x1="0.12" y1="33.88" x2="67.62" y2="33.88"/>
				</g>
			</g>
		</g>
	</g>
</g>
<g id="title" class="st0">
	<rect x="-650.5" y="-681.38" class="st4" width="1200" height="1335"/>
</g>
<g id="icon">
	<g>
		<polyline class="st5" points="39.86,62 39.86,45.62 51.36,45.62 51.36,62 		"/>
		<line class="st5" x1="4.74" y1="62" x2="62.87" y2="62"/>
		<polyline class="st5" points="6.62,62 6.62,35.22 30.72,35.22 		"/>
		<polyline class="st5" points="30.92,62 30.92,23.34 60.3,23.34 60.3,62 		"/>
		<polyline class="st5" points="36.55,23.2 36.55,5.7 54.67,5.7 54.67,23.2 		"/>
		<g>
			<line class="st5" x1="45.61" y1="10.76" x2="45.61" y2="18.76"/>
			<line class="st5" x1="41.61" y1="14.76" x2="49.61" y2="14.76"/>
		</g>
		<line class="st5" x1="6.62" y1="54.34" x2="30.37" y2="54.34"/>
	</g>
</g>
</svg>
