<?xml version="1.0" encoding="utf-8"?>
<!-- Generator: Adobe Illustrator 27.0.0, SVG Export Plug-In . SVG Version: 6.00 Build 0)  -->
<svg version="1.1" xmlns="http://www.w3.org/2000/svg" xmlns:xlink="http://www.w3.org/1999/xlink" x="0px" y="0px"
	 viewBox="0 0 67.75 67.75" style="enable-background:new 0 0 67.75 67.75;" xml:space="preserve">
<style type="text/css">
	.st0{display:none;}
	.st1{display:inline;opacity:0.5;}
	.st2{fill:none;stroke:#E62AFF;stroke-width:0.25;stroke-miterlimit:10;}
	.st3{display:inline;}
	.st4{display:inline;fill:none;stroke:#FFFFFF;stroke-width:2;stroke-miterlimit:10;}
	.st5{fill:none;stroke:#000000;stroke-width:2;stroke-linecap:round;stroke-linejoin:round;stroke-miterlimit:10;}
	.st6{fill:none;stroke:#000000;stroke-width:2;stroke-linecap:round;stroke-linejoin:round;}
</style>
<g id="guide" class="st0">
	<g class="st1">
		<g>
			<g>
				<g>
					<rect x="0.12" y="0.12" class="st2" width="67.5" height="67.5"/>
					<circle class="st2" cx="33.88" cy="33.88" r="33.75"/>
					<circle class="st2" cx="33.88" cy="33.88" r="16.88"/>
					<line class="st2" x1="33.88" y1="67.62" x2="33.88" y2="0.12"/>
					<line class="st2" x1="0.12" y1="33.88" x2="67.62" y2="33.88"/>
				</g>
			</g>
		</g>
	</g>
</g>
<g id="title" class="st0">
	<rect x="-819.25" y="-988.88" class="st4" width="1200" height="1335"/>
</g>
<g id="icon">
	<g>
		<path class="st5" d="M7.17,61.62c0,0,2.71-6.58,4.52-9.42c1.81-2.84,4.39-4.66,8.39-3.49c6.45,1.89,4.13,16.78,22.72,16.01
			C61.39,63.94,65.77,37.74,65,28.83c-0.77-8.91-6.97-19.88-17.3-18.07c-0.69,0.12-1.35,0.28-1.99,0.45
			c-2.26-2.52-5.07-7.94-5.07-7.94"/>
		<path class="st5" d="M36.52,5.25c0,0,2.68,5.17,4.91,7.76c-5.32,3.24-7.54,9.36-5.6,17.88C38.41,42.25,31.6,43.8,28.6,43.8
			c-6.2,0-6.84-3.74-13.3-2.84C5.84,42.29,1.75,61.62,1.75,61.62"/>
	</g>
</g>
</svg>
