<?xml version="1.0" encoding="utf-8"?>
<!-- Generator: Adobe Illustrator 27.0.0, SVG Export Plug-In . SVG Version: 6.00 Build 0)  -->
<svg version="1.1" xmlns="http://www.w3.org/2000/svg" xmlns:xlink="http://www.w3.org/1999/xlink" x="0px" y="0px"
	 viewBox="0 0 67.75 67.75" style="enable-background:new 0 0 67.75 67.75;" xml:space="preserve">
<style type="text/css">
	.st0{display:none;}
	.st1{display:inline;opacity:0.5;}
	.st2{fill:none;stroke:#E62AFF;stroke-width:0.25;stroke-miterlimit:10;}
	.st3{display:inline;}
	.st4{display:inline;fill:none;stroke:#FFFFFF;stroke-width:2;stroke-miterlimit:10;}
	.st5{fill:none;stroke:#000000;stroke-width:2;stroke-linecap:round;stroke-linejoin:round;stroke-miterlimit:10;}
	.st6{fill:none;stroke:#000000;stroke-width:2;stroke-linecap:round;stroke-linejoin:round;}
</style>
<g id="guide" class="st0">
	<g class="st1">
		<g>
			<g>
				<g>
					<rect x="0.12" y="0.12" class="st2" width="67.5" height="67.5"/>
					<circle class="st2" cx="33.88" cy="33.88" r="33.75"/>
					<circle class="st2" cx="33.88" cy="33.88" r="16.88"/>
					<line class="st2" x1="33.88" y1="67.62" x2="33.88" y2="0.12"/>
					<line class="st2" x1="0.12" y1="33.88" x2="67.62" y2="33.88"/>
				</g>
			</g>
		</g>
	</g>
</g>
<g id="title" class="st0">
	<rect x="-650.5" y="-988.88" class="st4" width="1200" height="1335"/>
</g>
<g id="icon">
	<g>
		<path class="st5" d="M22.42,31.21c-1.17,8.25,5.47,14.91-2.3,19.87c-6.75,4.31-18.88-5.77-16.51-22.53
			c2.37-16.76,16.87-23.14,22.1-17.08C31.5,18.18,23.63,22.63,22.42,31.21z"/>
		<path class="st5" d="M45.58,31.21c1.17,8.25-5.47,14.91,2.3,19.87c6.75,4.31,18.88-5.77,16.51-22.53
			c-2.37-16.76-16.87-23.14-22.1-17.08C36.5,18.18,44.37,22.63,45.58,31.21z"/>
		<path class="st5" d="M22.62,31.21c0,0,11.12-0.08,11.75,14.29c0,0,1.04-13.88,10.88-14.38"/>
		<line class="st5" x1="34.38" y1="45.79" x2="34.38" y2="64.79"/>
		<path class="st5" d="M24.83,25.79c0,0,2,1.83,2.17,6.17c0,0-0.67,3.33-3.67,4.83"/>
		<path class="st5" d="M43,25.62c0,0-3.01,2.81-1.83,6.67c1.17,3.83,4.17,3.83,4.17,3.83"/>
	</g>
</g>
</svg>
