<?xml version="1.0" encoding="utf-8"?>
<!-- Generator: Adobe Illustrator 27.0.0, SVG Export Plug-In . SVG Version: 6.00 Build 0)  -->
<svg version="1.1" xmlns="http://www.w3.org/2000/svg" xmlns:xlink="http://www.w3.org/1999/xlink" x="0px" y="0px"
	 viewBox="0 0 67.75 67.75" style="enable-background:new 0 0 67.75 67.75;" xml:space="preserve">
<style type="text/css">
	.st0{display:none;}
	.st1{display:inline;opacity:0.5;}
	.st2{fill:none;stroke:#E62AFF;stroke-width:0.25;stroke-miterlimit:10;}
	.st3{display:inline;}
	.st4{display:inline;fill:none;stroke:#FFFFFF;stroke-width:2;stroke-miterlimit:10;}
	.st5{fill:none;stroke:#000000;stroke-width:2;stroke-linecap:round;stroke-linejoin:round;stroke-miterlimit:10;}
	.st6{fill:none;stroke:#000000;stroke-width:2;stroke-linecap:round;stroke-linejoin:round;}
</style>
<g id="guide" class="st0">
	<g class="st1">
		<g>
			<g>
				<g>
					<rect x="0.12" y="0.12" class="st2" width="67.5" height="67.5"/>
					<circle class="st2" cx="33.88" cy="33.88" r="33.75"/>
					<circle class="st2" cx="33.88" cy="33.88" r="16.88"/>
					<line class="st2" x1="33.88" y1="67.62" x2="33.88" y2="0.12"/>
					<line class="st2" x1="0.12" y1="33.88" x2="67.62" y2="33.88"/>
				</g>
			</g>
		</g>
	</g>
</g>
<g id="title" class="st0">
	<rect x="-481.75" y="-988.88" class="st4" width="1200" height="1335"/>
</g>
<g id="icon">
	<g>
		<path class="st5" d="M40.71,17.45v31.36c0,3.16,1.91,7.04,4.59,7.7l3.27,0.06c1.85,0.04,3.64,0.75,5.12,2.04l2.97,2.6
			c3.57,2.06,7.83-0.55,8.35-5.11V40.31c0-18.2-20.3-25.96-20.3-25.96C42.79,13.45,40.71,15.07,40.71,17.45z"/>
		<path class="st5" d="M27.1,17.45v31.36c0,3.16-1.91,7.04-4.59,7.7l-3.27,0.06c-1.85,0.04-3.64,0.75-5.12,2.04l-2.97,2.6
			c-3.57,2.06-7.83-0.55-8.35-5.11V40.31c0-18.2,20.3-25.96,20.3-25.96C25.02,13.45,27.1,15.07,27.1,17.45z"/>
		<line class="st5" x1="33.92" y1="4.46" x2="33.92" y2="19.53"/>
		<polyline class="st5" points="27.42,31.46 33.92,19.53 40.08,31.46 		"/>
	</g>
</g>
</svg>
